999
"DXF R12 Output" (www.mydxf.blogspot.com)
 0 
SECTION
 2 
HEADER
 9 
$ACADVER
 1 
AC1009
 9 
$EXTMIN
 10 
 0 
 20 
 0 
 9 
$EXTMAX
 10 
 8.5 
 20 
 11 
 0 
ENDSEC
 0 
SECTION
 2 
ENTITIES
0
POLYLINE
8
Cut006
62
7
70
0
10
0.000000
20
0.000000
66
1
0
VERTEX
8
Cut006
10
46.658154
20
28.121230
70
0
0
VERTEX
8
Cut006
10
46.658154
20
28.121230
70
0
0
SEQEND
8
Cut006
0
POLYLINE
8
Cut006
62
7
70
0
10
0.000000
20
0.000000
66
1
0
VERTEX
8
Cut006
10
46.658154
20
28.121230
70
0
0
VERTEX
8
Cut006
10
46.658154
20
28.121230
70
0
0
SEQEND
8
Cut006
0
POLYLINE
8
Cut006
62
7
70
0
10
0.000000
20
0.000000
66
1
0
VERTEX
8
Cut006
10
46.658275
20
28.121177
70
0
0
VERTEX
8
Cut006
10
46.496464
20
30.558431
70
0
0
VERTEX
8
Cut006
10
46.021351
20
32.922056
70
0
0
VERTEX
8
Cut006
10
45.248418
20
35.185240
70
0
0
VERTEX
8
Cut006
10
44.193146
20
37.321166
70
0
0
VERTEX
8
Cut006
10
42.871015
20
39.303022
70
0
0
VERTEX
8
Cut006
10
41.297508
20
41.103994
70
0
0
VERTEX
8
Cut006
10
39.488105
20
42.697266
70
0
0
VERTEX
8
Cut006
10
37.458287
20
44.056026
70
0
0
VERTEX
8
Cut006
10
35.266658
20
45.134520
70
0
0
VERTEX
8
Cut006
10
32.982142
20
45.904873
70
0
0
VERTEX
8
Cut006
10
30.635701
20
46.367084
70
0
0
VERTEX
8
Cut006
10
28.258298
20
46.521155
70
0
0
VERTEX
8
Cut006
10
25.880895
20
46.367084
70
0
0
VERTEX
8
Cut006
10
23.534454
20
45.904873
70
0
0
VERTEX
8
Cut006
10
21.249938
20
45.134520
70
0
0
VERTEX
8
Cut006
10
19.058309
20
44.056026
70
0
0
VERTEX
8
Cut006
10
17.028491
20
42.697266
70
0
0
VERTEX
8
Cut006
10
15.219088
20
41.103994
70
0
0
VERTEX
8
Cut006
10
13.645580
20
39.303022
70
0
0
VERTEX
8
Cut006
10
12.323450
20
37.321166
70
0
0
VERTEX
8
Cut006
10
11.268177
20
35.185240
70
0
0
VERTEX
8
Cut006
10
10.495244
20
32.922056
70
0
0
VERTEX
8
Cut006
10
10.020131
20
30.558431
70
0
0
VERTEX
8
Cut006
10
9.858320
20
28.121177
70
0
0
VERTEX
8
Cut006
10
10.020131
20
25.683924
70
0
0
VERTEX
8
Cut006
10
10.495244
20
23.320299
70
0
0
VERTEX
8
Cut006
10
11.268177
20
21.057115
70
0
0
VERTEX
8
Cut006
10
12.323450
20
18.921189
70
0
0
VERTEX
8
Cut006
10
13.645580
20
16.939333
70
0
0
VERTEX
8
Cut006
10
15.219088
20
15.138361
70
0
0
VERTEX
8
Cut006
10
17.028491
20
13.545089
70
0
0
VERTEX
8
Cut006
10
19.058309
20
12.186329
70
0
0
VERTEX
8
Cut006
10
21.249938
20
11.107835
70
0
0
VERTEX
8
Cut006
10
23.534454
20
10.337482
70
0
0
VERTEX
8
Cut006
10
25.880895
20
9.875271
70
0
0
VERTEX
8
Cut006
10
28.258298
20
9.721200
70
0
0
VERTEX
8
Cut006
10
30.635701
20
9.875271
70
0
0
VERTEX
8
Cut006
10
32.982142
20
10.337482
70
0
0
VERTEX
8
Cut006
10
35.266658
20
11.107835
70
0
0
VERTEX
8
Cut006
10
37.458287
20
12.186329
70
0
0
VERTEX
8
Cut006
10
39.488105
20
13.545089
70
0
0
VERTEX
8
Cut006
10
41.297508
20
15.138361
70
0
0
VERTEX
8
Cut006
10
42.871015
20
16.939333
70
0
0
VERTEX
8
Cut006
10
44.193146
20
18.921189
70
0
0
VERTEX
8
Cut006
10
45.248418
20
21.057115
70
0
0
VERTEX
8
Cut006
10
46.021351
20
23.320299
70
0
0
VERTEX
8
Cut006
10
46.496464
20
25.683924
70
0
0
VERTEX
8
Cut006
10
46.658275
20
28.121177
70
0
0
VERTEX
8
Cut006
10
46.658275
20
28.121177
70
0
0
SEQEND
8
Cut006
0
POLYLINE
8
Cut006
62
7
70
0
10
0.000000
20
0.000000
66
1
0
VERTEX
8
Cut006
10
46.658275
20
28.121177
70
0
0
VERTEX
8
Cut006
10
46.496464
20
30.558431
70
0
0
VERTEX
8
Cut006
10
46.021351
20
32.922056
70
0
0
VERTEX
8
Cut006
10
45.248418
20
35.185240
70
0
0
VERTEX
8
Cut006
10
44.193146
20
37.321166
70
0
0
VERTEX
8
Cut006
10
42.871015
20
39.303022
70
0
0
VERTEX
8
Cut006
10
41.297508
20
41.103994
70
0
0
VERTEX
8
Cut006
10
39.488105
20
42.697266
70
0
0
VERTEX
8
Cut006
10
37.458287
20
44.056026
70
0
0
VERTEX
8
Cut006
10
35.266658
20
45.134520
70
0
0
VERTEX
8
Cut006
10
32.982142
20
45.904873
70
0
0
VERTEX
8
Cut006
10
30.635701
20
46.367084
70
0
0
VERTEX
8
Cut006
10
28.258298
20
46.521155
70
0
0
VERTEX
8
Cut006
10
25.880895
20
46.367084
70
0
0
VERTEX
8
Cut006
10
23.534454
20
45.904873
70
0
0
VERTEX
8
Cut006
10
21.249938
20
45.134520
70
0
0
VERTEX
8
Cut006
10
19.058309
20
44.056026
70
0
0
VERTEX
8
Cut006
10
17.028491
20
42.697266
70
0
0
VERTEX
8
Cut006
10
15.219088
20
41.103994
70
0
0
VERTEX
8
Cut006
10
13.645580
20
39.303022
70
0
0
VERTEX
8
Cut006
10
12.323450
20
37.321166
70
0
0
VERTEX
8
Cut006
10
11.268177
20
35.185240
70
0
0
VERTEX
8
Cut006
10
10.495244
20
32.922056
70
0
0
VERTEX
8
Cut006
10
10.020131
20
30.558431
70
0
0
VERTEX
8
Cut006
10
9.858320
20
28.121177
70
0
0
VERTEX
8
Cut006
10
10.020131
20
25.683924
70
0
0
VERTEX
8
Cut006
10
10.495244
20
23.320299
70
0
0
VERTEX
8
Cut006
10
11.268177
20
21.057115
70
0
0
VERTEX
8
Cut006
10
12.323450
20
18.921189
70
0
0
VERTEX
8
Cut006
10
13.645580
20
16.939333
70
0
0
VERTEX
8
Cut006
10
15.219088
20
15.138361
70
0
0
VERTEX
8
Cut006
10
17.028491
20
13.545089
70
0
0
VERTEX
8
Cut006
10
19.058309
20
12.186329
70
0
0
VERTEX
8
Cut006
10
21.249938
20
11.107835
70
0
0
VERTEX
8
Cut006
10
23.534454
20
10.337482
70
0
0
VERTEX
8
Cut006
10
25.880895
20
9.875271
70
0
0
VERTEX
8
Cut006
10
28.258298
20
9.721200
70
0
0
VERTEX
8
Cut006
10
30.635701
20
9.875271
70
0
0
VERTEX
8
Cut006
10
32.982142
20
10.337482
70
0
0
VERTEX
8
Cut006
10
35.266658
20
11.107835
70
0
0
VERTEX
8
Cut006
10
37.458287
20
12.186329
70
0
0
VERTEX
8
Cut006
10
39.488105
20
13.545089
70
0
0
VERTEX
8
Cut006
10
41.297508
20
15.138361
70
0
0
VERTEX
8
Cut006
10
42.871015
20
16.939333
70
0
0
VERTEX
8
Cut006
10
44.193146
20
18.921189
70
0
0
VERTEX
8
Cut006
10
45.248418
20
21.057115
70
0
0
VERTEX
8
Cut006
10
46.021351
20
23.320299
70
0
0
VERTEX
8
Cut006
10
46.496464
20
25.683924
70
0
0
VERTEX
8
Cut006
10
46.658275
20
28.121177
70
0
0
VERTEX
8
Cut006
10
46.658275
20
28.121177
70
0
0
SEQEND
8
Cut006
0
POLYLINE
8
Cut006
62
7
70
0
10
0.000000
20
0.000000
66
1
0
VERTEX
8
Cut006
10
46.658275
20
28.121177
70
0
0
VERTEX
8
Cut006
10
46.496464
20
30.558431
70
0
0
VERTEX
8
Cut006
10
46.021351
20
32.922056
70
0
0
VERTEX
8
Cut006
10
45.248418
20
35.185240
70
0
0
VERTEX
8
Cut006
10
44.193146
20
37.321166
70
0
0
VERTEX
8
Cut006
10
42.871015
20
39.303022
70
0
0
VERTEX
8
Cut006
10
41.297508
20
41.103994
70
0
0
VERTEX
8
Cut006
10
39.488105
20
42.697266
70
0
0
VERTEX
8
Cut006
10
37.458287
20
44.056026
70
0
0
VERTEX
8
Cut006
10
35.266658
20
45.134520
70
0
0
VERTEX
8
Cut006
10
32.982142
20
45.904873
70
0
0
VERTEX
8
Cut006
10
30.635701
20
46.367084
70
0
0
VERTEX
8
Cut006
10
28.258298
20
46.521155
70
0
0
VERTEX
8
Cut006
10
25.880895
20
46.367084
70
0
0
VERTEX
8
Cut006
10
23.534454
20
45.904873
70
0
0
VERTEX
8
Cut006
10
21.249938
20
45.134520
70
0
0
VERTEX
8
Cut006
10
19.058309
20
44.056026
70
0
0
VERTEX
8
Cut006
10
17.028491
20
42.697266
70
0
0
VERTEX
8
Cut006
10
15.219088
20
41.103994
70
0
0
VERTEX
8
Cut006
10
13.645580
20
39.303022
70
0
0
VERTEX
8
Cut006
10
12.323450
20
37.321166
70
0
0
VERTEX
8
Cut006
10
11.268177
20
35.185240
70
0
0
VERTEX
8
Cut006
10
10.495244
20
32.922056
70
0
0
VERTEX
8
Cut006
10
10.020131
20
30.558431
70
0
0
VERTEX
8
Cut006
10
9.858320
20
28.121177
70
0
0
VERTEX
8
Cut006
10
10.020131
20
25.683924
70
0
0
VERTEX
8
Cut006
10
10.495244
20
23.320299
70
0
0
VERTEX
8
Cut006
10
11.268177
20
21.057115
70
0
0
VERTEX
8
Cut006
10
12.323450
20
18.921189
70
0
0
VERTEX
8
Cut006
10
13.645580
20
16.939333
70
0
0
VERTEX
8
Cut006
10
15.219088
20
15.138361
70
0
0
VERTEX
8
Cut006
10
17.028491
20
13.545089
70
0
0
VERTEX
8
Cut006
10
19.058309
20
12.186329
70
0
0
VERTEX
8
Cut006
10
21.249938
20
11.107835
70
0
0
VERTEX
8
Cut006
10
23.534454
20
10.337482
70
0
0
VERTEX
8
Cut006
10
25.880895
20
9.875271
70
0
0
VERTEX
8
Cut006
10
28.258298
20
9.721200
70
0
0
VERTEX
8
Cut006
10
30.635701
20
9.875271
70
0
0
VERTEX
8
Cut006
10
32.982142
20
10.337482
70
0
0
VERTEX
8
Cut006
10
35.266658
20
11.107835
70
0
0
VERTEX
8
Cut006
10
37.458287
20
12.186329
70
0
0
VERTEX
8
Cut006
10
39.488105
20
13.545089
70
0
0
VERTEX
8
Cut006
10
41.297508
20
15.138361
70
0
0
VERTEX
8
Cut006
10
42.871015
20
16.939333
70
0
0
VERTEX
8
Cut006
10
44.193146
20
18.921189
70
0
0
VERTEX
8
Cut006
10
45.248418
20
21.057115
70
0
0
VERTEX
8
Cut006
10
46.021351
20
23.320299
70
0
0
VERTEX
8
Cut006
10
46.496464
20
25.683924
70
0
0
VERTEX
8
Cut006
10
46.658275
20
28.121177
70
0
0
VERTEX
8
Cut006
10
46.658275
20
28.121177
70
0
0
SEQEND
8
Cut006
0
POLYLINE
8
Cut006
62
7
70
0
10
0.000000
20
0.000000
66
1
0
VERTEX
8
Cut006
10
28.508297
20
19.371180
70
0
0
VERTEX
8
Cut006
10
28.258298
20
19.620665
70
0
0
VERTEX
8
Cut006
10
28.008299
20
19.371180
70
0
0
VERTEX
8
Cut006
10
28.258298
20
19.121694
70
0
0
VERTEX
8
Cut006
10
28.508297
20
19.371180
70
0
0
VERTEX
8
Cut006
10
28.508297
20
19.371180
70
0
0
SEQEND
8
Cut006
0
POLYLINE
8
Cut006
62
7
70
0
10
0.000000
20
0.000000
66
1
0
VERTEX
8
Cut006
10
19.758310
20
28.121177
70
0
0
VERTEX
8
Cut006
10
19.508309
20
28.371178
70
0
0
VERTEX
8
Cut006
10
19.258309
20
28.121177
70
0
0
VERTEX
8
Cut006
10
19.508309
20
27.871177
70
0
0
VERTEX
8
Cut006
10
19.758310
20
28.121177
70
0
0
VERTEX
8
Cut006
10
19.758310
20
28.121177
70
0
0
SEQEND
8
Cut006
0
POLYLINE
8
Cut006
62
7
70
0
10
0.000000
20
0.000000
66
1
0
VERTEX
8
Cut006
10
37.258287
20
28.121177
70
0
0
VERTEX
8
Cut006
10
37.008287
20
28.371178
70
0
0
VERTEX
8
Cut006
10
36.758286
20
28.121177
70
0
0
VERTEX
8
Cut006
10
37.008287
20
27.871177
70
0
0
VERTEX
8
Cut006
10
37.258287
20
28.121177
70
0
0
VERTEX
8
Cut006
10
37.258287
20
28.121177
70
0
0
SEQEND
8
Cut006
0
POLYLINE
8
Cut006
62
7
70
0
10
0.000000
20
0.000000
66
1
0
VERTEX
8
Cut006
10
28.508297
20
36.871162
70
0
0
VERTEX
8
Cut006
10
28.258298
20
37.120648
70
0
0
VERTEX
8
Cut006
10
28.008299
20
36.871162
70
0
0
VERTEX
8
Cut006
10
28.258298
20
36.621677
70
0
0
VERTEX
8
Cut006
10
28.508297
20
36.871162
70
0
0
VERTEX
8
Cut006
10
28.508297
20
36.871162
70
0
0
SEQEND
8
Cut006
0
POLYLINE
8
Cut006
62
7
70
0
10
0.000000
20
0.000000
66
1
0
VERTEX
8
Cut006
10
46.658275
20
28.121177
70
0
0
VERTEX
8
Cut006
10
46.496464
20
30.558431
70
0
0
VERTEX
8
Cut006
10
46.021351
20
32.922056
70
0
0
VERTEX
8
Cut006
10
45.248418
20
35.185240
70
0
0
VERTEX
8
Cut006
10
44.193146
20
37.321166
70
0
0
VERTEX
8
Cut006
10
42.871015
20
39.303022
70
0
0
VERTEX
8
Cut006
10
41.297508
20
41.103994
70
0
0
VERTEX
8
Cut006
10
39.488105
20
42.697266
70
0
0
VERTEX
8
Cut006
10
37.458287
20
44.056026
70
0
0
VERTEX
8
Cut006
10
35.266658
20
45.134520
70
0
0
VERTEX
8
Cut006
10
32.982142
20
45.904873
70
0
0
VERTEX
8
Cut006
10
30.635701
20
46.367084
70
0
0
VERTEX
8
Cut006
10
28.258298
20
46.521155
70
0
0
VERTEX
8
Cut006
10
25.880895
20
46.367084
70
0
0
VERTEX
8
Cut006
10
23.534454
20
45.904873
70
0
0
VERTEX
8
Cut006
10
21.249938
20
45.134520
70
0
0
VERTEX
8
Cut006
10
19.058309
20
44.056026
70
0
0
VERTEX
8
Cut006
10
17.028491
20
42.697266
70
0
0
VERTEX
8
Cut006
10
15.219088
20
41.103994
70
0
0
VERTEX
8
Cut006
10
13.645580
20
39.303022
70
0
0
VERTEX
8
Cut006
10
12.323450
20
37.321166
70
0
0
VERTEX
8
Cut006
10
11.268177
20
35.185240
70
0
0
VERTEX
8
Cut006
10
10.495244
20
32.922056
70
0
0
VERTEX
8
Cut006
10
10.020131
20
30.558431
70
0
0
VERTEX
8
Cut006
10
9.858320
20
28.121177
70
0
0
VERTEX
8
Cut006
10
10.020131
20
25.683924
70
0
0
VERTEX
8
Cut006
10
10.495244
20
23.320299
70
0
0
VERTEX
8
Cut006
10
11.268177
20
21.057115
70
0
0
VERTEX
8
Cut006
10
12.323450
20
18.921189
70
0
0
VERTEX
8
Cut006
10
13.645580
20
16.939333
70
0
0
VERTEX
8
Cut006
10
15.219088
20
15.138361
70
0
0
VERTEX
8
Cut006
10
17.028491
20
13.545089
70
0
0
VERTEX
8
Cut006
10
19.058309
20
12.186329
70
0
0
VERTEX
8
Cut006
10
21.249938
20
11.107835
70
0
0
VERTEX
8
Cut006
10
23.534454
20
10.337482
70
0
0
VERTEX
8
Cut006
10
25.880895
20
9.875271
70
0
0
VERTEX
8
Cut006
10
28.258298
20
9.721200
70
0
0
VERTEX
8
Cut006
10
30.635701
20
9.875271
70
0
0
VERTEX
8
Cut006
10
32.982142
20
10.337482
70
0
0
VERTEX
8
Cut006
10
35.266658
20
11.107835
70
0
0
VERTEX
8
Cut006
10
37.458287
20
12.186329
70
0
0
VERTEX
8
Cut006
10
39.488105
20
13.545089
70
0
0
VERTEX
8
Cut006
10
41.297508
20
15.138361
70
0
0
VERTEX
8
Cut006
10
42.871015
20
16.939333
70
0
0
VERTEX
8
Cut006
10
44.193146
20
18.921189
70
0
0
VERTEX
8
Cut006
10
45.248418
20
21.057115
70
0
0
VERTEX
8
Cut006
10
46.021351
20
23.320299
70
0
0
VERTEX
8
Cut006
10
46.496464
20
25.683924
70
0
0
VERTEX
8
Cut006
10
46.658275
20
28.121177
70
0
0
VERTEX
8
Cut006
10
46.658275
20
28.121177
70
0
0
SEQEND
8
Cut006
0
POLYLINE
8
Cut006
62
7
70
0
10
0.000000
20
0.000000
66
1
0
VERTEX
8
Cut006
10
28.508297
20
19.371180
70
0
0
VERTEX
8
Cut006
10
28.258298
20
19.620665
70
0
0
VERTEX
8
Cut006
10
28.008299
20
19.371180
70
0
0
VERTEX
8
Cut006
10
28.258298
20
19.121694
70
0
0
VERTEX
8
Cut006
10
28.508297
20
19.371180
70
0
0
VERTEX
8
Cut006
10
28.508297
20
19.371180
70
0
0
SEQEND
8
Cut006
0
POLYLINE
8
Cut006
62
7
70
0
10
0.000000
20
0.000000
66
1
0
VERTEX
8
Cut006
10
19.758310
20
28.121177
70
0
0
VERTEX
8
Cut006
10
19.508309
20
28.371178
70
0
0
VERTEX
8
Cut006
10
19.258309
20
28.121177
70
0
0
VERTEX
8
Cut006
10
19.508309
20
27.871177
70
0
0
VERTEX
8
Cut006
10
19.758310
20
28.121177
70
0
0
VERTEX
8
Cut006
10
19.758310
20
28.121177
70
0
0
SEQEND
8
Cut006
0
POLYLINE
8
Cut006
62
7
70
0
10
0.000000
20
0.000000
66
1
0
VERTEX
8
Cut006
10
37.258287
20
28.121177
70
0
0
VERTEX
8
Cut006
10
37.008287
20
28.371178
70
0
0
VERTEX
8
Cut006
10
36.758286
20
28.121177
70
0
0
VERTEX
8
Cut006
10
37.008287
20
27.871177
70
0
0
VERTEX
8
Cut006
10
37.258287
20
28.121177
70
0
0
VERTEX
8
Cut006
10
37.258287
20
28.121177
70
0
0
SEQEND
8
Cut006
0
POLYLINE
8
Cut006
62
7
70
0
10
0.000000
20
0.000000
66
1
0
VERTEX
8
Cut006
10
28.508297
20
36.871162
70
0
0
VERTEX
8
Cut006
10
28.258298
20
37.120648
70
0
0
VERTEX
8
Cut006
10
28.008299
20
36.871162
70
0
0
VERTEX
8
Cut006
10
28.258298
20
36.621677
70
0
0
VERTEX
8
Cut006
10
28.508297
20
36.871162
70
0
0
VERTEX
8
Cut006
10
28.508297
20
36.871162
70
0
0
SEQEND
8
Cut006
0
POLYLINE
8
Cut006
62
7
70
0
10
0.000000
20
0.000000
66
1
0
VERTEX
8
Cut006
10
28.508297
20
19.371180
70
0
0
VERTEX
8
Cut006
10
28.258298
20
19.620665
70
0
0
VERTEX
8
Cut006
10
28.008299
20
19.371180
70
0
0
VERTEX
8
Cut006
10
28.258298
20
19.121694
70
0
0
VERTEX
8
Cut006
10
28.508297
20
19.371180
70
0
0
VERTEX
8
Cut006
10
28.508297
20
19.371180
70
0
0
SEQEND
8
Cut006
0
POLYLINE
8
Cut006
62
7
70
0
10
0.000000
20
0.000000
66
1
0
VERTEX
8
Cut006
10
28.508289
20
19.370412
70
0
0
VERTEX
8
Cut006
10
28.508289
20
19.370412
70
0
0
SEQEND
8
Cut006
0
POLYLINE
8
Cut006
62
7
70
0
10
0.000000
20
0.000000
66
1
0
VERTEX
8
Cut006
10
28.508297
20
19.371180
70
0
0
VERTEX
8
Cut006
10
28.258298
20
19.620665
70
0
0
VERTEX
8
Cut006
10
28.008299
20
19.371180
70
0
0
VERTEX
8
Cut006
10
28.258298
20
19.121694
70
0
0
VERTEX
8
Cut006
10
28.508297
20
19.371180
70
0
0
VERTEX
8
Cut006
10
28.508297
20
19.371180
70
0
0
SEQEND
8
Cut006
0
POLYLINE
8
Cut006
62
7
70
0
10
0.000000
20
0.000000
66
1
0
VERTEX
8
Cut006
10
28.508289
20
19.370412
70
0
0
VERTEX
8
Cut006
10
28.508289
20
19.370412
70
0
0
SEQEND
8
Cut006
0
POLYLINE
8
Cut006
62
7
70
0
10
0.000000
20
0.000000
66
1
0
VERTEX
8
Cut006
10
19.758310
20
28.121177
70
0
0
VERTEX
8
Cut006
10
19.508309
20
28.371178
70
0
0
VERTEX
8
Cut006
10
19.258309
20
28.121177
70
0
0
VERTEX
8
Cut006
10
19.508309
20
27.871177
70
0
0
VERTEX
8
Cut006
10
19.758310
20
28.121177
70
0
0
VERTEX
8
Cut006
10
19.758310
20
28.121177
70
0
0
SEQEND
8
Cut006
0
POLYLINE
8
Cut006
62
7
70
0
10
0.000000
20
0.000000
66
1
0
VERTEX
8
Cut006
10
19.758265
20
28.121230
70
0
0
VERTEX
8
Cut006
10
19.758265
20
28.121230
70
0
0
SEQEND
8
Cut006
0
POLYLINE
8
Cut006
62
7
70
0
10
0.000000
20
0.000000
66
1
0
VERTEX
8
Cut006
10
19.758310
20
28.121177
70
0
0
VERTEX
8
Cut006
10
19.508309
20
28.371178
70
0
0
VERTEX
8
Cut006
10
19.258309
20
28.121177
70
0
0
VERTEX
8
Cut006
10
19.508309
20
27.871177
70
0
0
VERTEX
8
Cut006
10
19.758310
20
28.121177
70
0
0
VERTEX
8
Cut006
10
19.758310
20
28.121177
70
0
0
SEQEND
8
Cut006
0
POLYLINE
8
Cut006
62
7
70
0
10
0.000000
20
0.000000
66
1
0
VERTEX
8
Cut006
10
19.758265
20
28.121230
70
0
0
VERTEX
8
Cut006
10
19.758265
20
28.121230
70
0
0
SEQEND
8
Cut006
0
POLYLINE
8
Cut006
62
7
70
0
10
0.000000
20
0.000000
66
1
0
VERTEX
8
Cut006
10
37.258287
20
28.121177
70
0
0
VERTEX
8
Cut006
10
37.008287
20
28.371178
70
0
0
VERTEX
8
Cut006
10
36.758286
20
28.121177
70
0
0
VERTEX
8
Cut006
10
37.008287
20
27.871177
70
0
0
VERTEX
8
Cut006
10
37.258287
20
28.121177
70
0
0
VERTEX
8
Cut006
10
37.258287
20
28.121177
70
0
0
SEQEND
8
Cut006
0
POLYLINE
8
Cut006
62
7
70
0
10
0.000000
20
0.000000
66
1
0
VERTEX
8
Cut006
10
37.258313
20
28.121230
70
0
0
VERTEX
8
Cut006
10
37.258313
20
28.121230
70
0
0
SEQEND
8
Cut006
0
POLYLINE
8
Cut006
62
7
70
0
10
0.000000
20
0.000000
66
1
0
VERTEX
8
Cut006
10
37.258287
20
28.121177
70
0
0
VERTEX
8
Cut006
10
37.008287
20
28.371178
70
0
0
VERTEX
8
Cut006
10
36.758286
20
28.121177
70
0
0
VERTEX
8
Cut006
10
37.008287
20
27.871177
70
0
0
VERTEX
8
Cut006
10
37.258287
20
28.121177
70
0
0
VERTEX
8
Cut006
10
37.258287
20
28.121177
70
0
0
SEQEND
8
Cut006
0
POLYLINE
8
Cut006
62
7
70
0
10
0.000000
20
0.000000
66
1
0
VERTEX
8
Cut006
10
37.258313
20
28.121230
70
0
0
VERTEX
8
Cut006
10
37.258313
20
28.121230
70
0
0
SEQEND
8
Cut006
0
POLYLINE
8
Cut006
62
7
70
0
10
0.000000
20
0.000000
66
1
0
VERTEX
8
Cut006
10
28.508297
20
36.871162
70
0
0
VERTEX
8
Cut006
10
28.258298
20
37.120648
70
0
0
VERTEX
8
Cut006
10
28.008299
20
36.871162
70
0
0
VERTEX
8
Cut006
10
28.258298
20
36.621677
70
0
0
VERTEX
8
Cut006
10
28.508297
20
36.871162
70
0
0
VERTEX
8
Cut006
10
28.508297
20
36.871162
70
0
0
SEQEND
8
Cut006
0
POLYLINE
8
Cut006
62
7
70
0
10
0.000000
20
0.000000
66
1
0
VERTEX
8
Cut006
10
28.508289
20
36.871255
70
0
0
VERTEX
8
Cut006
10
28.508289
20
36.871255
70
0
0
SEQEND
8
Cut006
0
POLYLINE
8
Cut006
62
7
70
0
10
0.000000
20
0.000000
66
1
0
VERTEX
8
Cut006
10
28.508297
20
36.871162
70
0
0
VERTEX
8
Cut006
10
28.258298
20
37.120648
70
0
0
VERTEX
8
Cut006
10
28.008299
20
36.871162
70
0
0
VERTEX
8
Cut006
10
28.258298
20
36.621677
70
0
0
VERTEX
8
Cut006
10
28.508297
20
36.871162
70
0
0
VERTEX
8
Cut006
10
28.508297
20
36.871162
70
0
0
SEQEND
8
Cut006
0
POLYLINE
8
Cut006
62
7
70
0
10
0.000000
20
0.000000
66
1
0
VERTEX
8
Cut006
10
28.508289
20
36.871255
70
0
0
VERTEX
8
Cut006
10
28.508289
20
36.871255
70
0
0
SEQEND
8
Cut006
 0 
ENDSEC
 0 
EOF