M48
; DRILL file {KiCad 9.0.6} date 2026-02-04T13:59:09-0300
; FORMAT={-:-/ absolute / metric / decimal}
; #@! TF.CreationDate,2026-02-04T13:59:09-03:00
; #@! TF.GenerationSoftware,Kicad,Pcbnew,9.0.6
; #@! TF.FileFunction,Plated,1,2,PTH
FMAT,2
METRIC
; #@! TA.AperFunction,Plated,PTH,ViaDrill
T1C0.300
; #@! TA.AperFunction,Plated,PTH,ComponentDrill
T2C1.000
; #@! TA.AperFunction,Plated,PTH,ComponentDrill
T3C1.500
%
G90
G05
T1
X52.5Y-156.5
X52.5Y-163.0
X58.925Y-127.45
X65.25Y-172.677
X68.5Y-114.5
X68.697Y-173.302
X70.47Y-114.53
X70.697Y-172.802
X72.5Y-172.285
X73.155Y-114.905
X75.447Y-172.552
X75.8Y-114.8
X78.25Y-114.75
X78.25Y-167.875
X80.75Y-166.5
X80.925Y-114.675
X83.425Y-114.675
X83.5Y-165.625
X85.85Y-114.85
X86.0Y-164.75
X88.35Y-114.85
X88.5Y-164.125
X90.77Y-114.93
X91.25Y-163.5
X93.075Y-162.576
X93.4Y-114.9
X95.87Y-114.93
T2
X46.75Y-125.0
X46.75Y-127.54
X46.75Y-130.08
X46.75Y-132.62
X46.75Y-135.16
X46.75Y-137.7
X46.75Y-140.24
X46.75Y-142.78
X46.75Y-145.32
X46.75Y-147.86
X46.75Y-150.4
X46.75Y-152.94
X46.75Y-155.48
X46.75Y-158.02
X46.75Y-160.56
X49.29Y-125.0
X49.29Y-127.54
X49.29Y-130.08
X49.29Y-132.62
X49.29Y-135.16
X49.29Y-137.7
X49.29Y-140.24
X49.29Y-142.78
X49.29Y-145.32
X49.29Y-147.86
X49.29Y-150.4
X49.29Y-152.94
X49.29Y-155.48
X49.29Y-158.02
X49.29Y-160.56
X110.21Y-125.0
X110.21Y-127.54
X110.21Y-130.08
X110.21Y-132.62
X110.21Y-135.16
X110.21Y-137.7
X110.21Y-140.24
X110.21Y-142.78
X110.21Y-145.32
X110.21Y-147.86
X110.21Y-150.4
X110.21Y-152.94
X110.21Y-155.48
X110.21Y-158.02
X110.21Y-160.56
X112.75Y-125.0
X112.75Y-127.54
X112.75Y-130.08
X112.75Y-132.62
X112.75Y-135.16
X112.75Y-137.7
X112.75Y-140.24
X112.75Y-142.78
X112.75Y-145.32
X112.75Y-147.86
X112.75Y-150.4
X112.75Y-152.94
X112.75Y-155.48
X112.75Y-158.02
X112.75Y-160.56
T3
X64.5Y-143.75
X64.5Y-148.75
M30
