%TF.GenerationSoftware,KiCad,Pcbnew,9.0.7*%
%TF.CreationDate,2026-01-21T05:55:31-03:00*%
%TF.ProjectId,Infrared_n_motors,496e6672-6172-4656-945f-6e5f6d6f746f,0.0.1*%
%TF.SameCoordinates,Original*%
%TF.FileFunction,Legend,Bot*%
%TF.FilePolarity,Positive*%
%FSLAX46Y46*%
G04 Gerber Fmt 4.6, Leading zero omitted, Abs format (unit mm)*
G04 Created by KiCad (PCBNEW 9.0.7) date 2026-01-21 05:55:31*
%MOMM*%
%LPD*%
G01*
G04 APERTURE LIST*
%ADD10C,0.100000*%
%ADD11C,0.150000*%
%ADD12C,0.120000*%
G04 APERTURE END LIST*
D10*
X77542580Y-147059523D02*
X78542580Y-147059523D01*
X78542580Y-147059523D02*
X77828295Y-146726190D01*
X77828295Y-146726190D02*
X78542580Y-146392857D01*
X78542580Y-146392857D02*
X77542580Y-146392857D01*
X77542580Y-145392857D02*
X77542580Y-145964285D01*
X77542580Y-145678571D02*
X78542580Y-145678571D01*
X78542580Y-145678571D02*
X78399723Y-145773809D01*
X78399723Y-145773809D02*
X78304485Y-145869047D01*
X78304485Y-145869047D02*
X78256866Y-145964285D01*
D11*
X76045180Y-149464285D02*
X77045180Y-149464285D01*
X77045180Y-149464285D02*
X76330895Y-149130952D01*
X76330895Y-149130952D02*
X77045180Y-148797619D01*
X77045180Y-148797619D02*
X76045180Y-148797619D01*
X76045180Y-148178571D02*
X76092800Y-148273809D01*
X76092800Y-148273809D02*
X76140419Y-148321428D01*
X76140419Y-148321428D02*
X76235657Y-148369047D01*
X76235657Y-148369047D02*
X76521371Y-148369047D01*
X76521371Y-148369047D02*
X76616609Y-148321428D01*
X76616609Y-148321428D02*
X76664228Y-148273809D01*
X76664228Y-148273809D02*
X76711847Y-148178571D01*
X76711847Y-148178571D02*
X76711847Y-148035714D01*
X76711847Y-148035714D02*
X76664228Y-147940476D01*
X76664228Y-147940476D02*
X76616609Y-147892857D01*
X76616609Y-147892857D02*
X76521371Y-147845238D01*
X76521371Y-147845238D02*
X76235657Y-147845238D01*
X76235657Y-147845238D02*
X76140419Y-147892857D01*
X76140419Y-147892857D02*
X76092800Y-147940476D01*
X76092800Y-147940476D02*
X76045180Y-148035714D01*
X76045180Y-148035714D02*
X76045180Y-148178571D01*
X76711847Y-147559523D02*
X76711847Y-147178571D01*
X77045180Y-147416666D02*
X76188038Y-147416666D01*
X76188038Y-147416666D02*
X76092800Y-147369047D01*
X76092800Y-147369047D02*
X76045180Y-147273809D01*
X76045180Y-147273809D02*
X76045180Y-147178571D01*
X76045180Y-146702380D02*
X76092800Y-146797618D01*
X76092800Y-146797618D02*
X76140419Y-146845237D01*
X76140419Y-146845237D02*
X76235657Y-146892856D01*
X76235657Y-146892856D02*
X76521371Y-146892856D01*
X76521371Y-146892856D02*
X76616609Y-146845237D01*
X76616609Y-146845237D02*
X76664228Y-146797618D01*
X76664228Y-146797618D02*
X76711847Y-146702380D01*
X76711847Y-146702380D02*
X76711847Y-146559523D01*
X76711847Y-146559523D02*
X76664228Y-146464285D01*
X76664228Y-146464285D02*
X76616609Y-146416666D01*
X76616609Y-146416666D02*
X76521371Y-146369047D01*
X76521371Y-146369047D02*
X76235657Y-146369047D01*
X76235657Y-146369047D02*
X76140419Y-146416666D01*
X76140419Y-146416666D02*
X76092800Y-146464285D01*
X76092800Y-146464285D02*
X76045180Y-146559523D01*
X76045180Y-146559523D02*
X76045180Y-146702380D01*
X76045180Y-145940475D02*
X76711847Y-145940475D01*
X76521371Y-145940475D02*
X76616609Y-145892856D01*
X76616609Y-145892856D02*
X76664228Y-145845237D01*
X76664228Y-145845237D02*
X76711847Y-145749999D01*
X76711847Y-145749999D02*
X76711847Y-145654761D01*
X75949942Y-145559523D02*
X75949942Y-144797618D01*
X76045180Y-144559522D02*
X77045180Y-144559522D01*
X77045180Y-144559522D02*
X77045180Y-144321427D01*
X77045180Y-144321427D02*
X76997561Y-144178570D01*
X76997561Y-144178570D02*
X76902323Y-144083332D01*
X76902323Y-144083332D02*
X76807085Y-144035713D01*
X76807085Y-144035713D02*
X76616609Y-143988094D01*
X76616609Y-143988094D02*
X76473752Y-143988094D01*
X76473752Y-143988094D02*
X76283276Y-144035713D01*
X76283276Y-144035713D02*
X76188038Y-144083332D01*
X76188038Y-144083332D02*
X76092800Y-144178570D01*
X76092800Y-144178570D02*
X76045180Y-144321427D01*
X76045180Y-144321427D02*
X76045180Y-144559522D01*
X76140419Y-142988094D02*
X76092800Y-143035713D01*
X76092800Y-143035713D02*
X76045180Y-143178570D01*
X76045180Y-143178570D02*
X76045180Y-143273808D01*
X76045180Y-143273808D02*
X76092800Y-143416665D01*
X76092800Y-143416665D02*
X76188038Y-143511903D01*
X76188038Y-143511903D02*
X76283276Y-143559522D01*
X76283276Y-143559522D02*
X76473752Y-143607141D01*
X76473752Y-143607141D02*
X76616609Y-143607141D01*
X76616609Y-143607141D02*
X76807085Y-143559522D01*
X76807085Y-143559522D02*
X76902323Y-143511903D01*
X76902323Y-143511903D02*
X76997561Y-143416665D01*
X76997561Y-143416665D02*
X77045180Y-143273808D01*
X77045180Y-143273808D02*
X77045180Y-143178570D01*
X77045180Y-143178570D02*
X76997561Y-143035713D01*
X76997561Y-143035713D02*
X76949942Y-142988094D01*
D10*
X66527733Y-144117315D02*
X66527733Y-143355411D01*
X66146780Y-143736363D02*
X66908685Y-143736363D01*
X66527733Y-149197315D02*
X66527733Y-148435411D01*
D11*
X43408333Y-118354819D02*
X43408333Y-119069104D01*
X43408333Y-119069104D02*
X43455952Y-119211961D01*
X43455952Y-119211961D02*
X43551190Y-119307200D01*
X43551190Y-119307200D02*
X43694047Y-119354819D01*
X43694047Y-119354819D02*
X43789285Y-119354819D01*
X42979761Y-118450057D02*
X42932142Y-118402438D01*
X42932142Y-118402438D02*
X42836904Y-118354819D01*
X42836904Y-118354819D02*
X42598809Y-118354819D01*
X42598809Y-118354819D02*
X42503571Y-118402438D01*
X42503571Y-118402438D02*
X42455952Y-118450057D01*
X42455952Y-118450057D02*
X42408333Y-118545295D01*
X42408333Y-118545295D02*
X42408333Y-118640533D01*
X42408333Y-118640533D02*
X42455952Y-118783390D01*
X42455952Y-118783390D02*
X43027380Y-119354819D01*
X43027380Y-119354819D02*
X42408333Y-119354819D01*
X116758333Y-166114819D02*
X116758333Y-166829104D01*
X116758333Y-166829104D02*
X116805952Y-166971961D01*
X116805952Y-166971961D02*
X116901190Y-167067200D01*
X116901190Y-167067200D02*
X117044047Y-167114819D01*
X117044047Y-167114819D02*
X117139285Y-167114819D01*
X115758333Y-167114819D02*
X116329761Y-167114819D01*
X116044047Y-167114819D02*
X116044047Y-166114819D01*
X116044047Y-166114819D02*
X116139285Y-166257676D01*
X116139285Y-166257676D02*
X116234523Y-166352914D01*
X116234523Y-166352914D02*
X116329761Y-166400533D01*
%TO.C,M1*%
D10*
X92300000Y-150750000D02*
X67300000Y-150750000D01*
X67300000Y-141750000D01*
X92300000Y-141750000D01*
X92300000Y-150750000D01*
D12*
%TO.C,J2*%
X35900000Y-119790000D02*
X35900000Y-165770000D01*
X35900000Y-165770000D02*
X45020000Y-165770000D01*
X45020000Y-119790000D02*
X35900000Y-119790000D01*
X45020000Y-140730000D02*
X35900000Y-140730000D01*
X45020000Y-144830000D02*
X35900000Y-144830000D01*
X45020000Y-165770000D02*
X45020000Y-119790000D01*
X50640000Y-125000000D02*
X51640000Y-124500000D01*
X51640000Y-124500000D02*
X51640000Y-125500000D01*
X51640000Y-125500000D02*
X50640000Y-125000000D01*
%TO.C,J1*%
X107860000Y-160060000D02*
X108860000Y-160560000D01*
X107860000Y-161060000D02*
X107860000Y-160060000D01*
X108860000Y-160560000D02*
X107860000Y-161060000D01*
X114480000Y-119790000D02*
X114480000Y-165770000D01*
X114480000Y-140730000D02*
X123600000Y-140730000D01*
X114480000Y-144830000D02*
X123600000Y-144830000D01*
X114480000Y-165770000D02*
X123600000Y-165770000D01*
X123600000Y-119790000D02*
X114480000Y-119790000D01*
X123600000Y-165770000D02*
X123600000Y-119790000D01*
%TD*%
M02*
