%TF.GenerationSoftware,KiCad,Pcbnew,9.0.7*%
%TF.CreationDate,2026-01-21T05:55:30-03:00*%
%TF.ProjectId,Infrared_n_motors,496e6672-6172-4656-945f-6e5f6d6f746f,0.0.1*%
%TF.SameCoordinates,Original*%
%TF.FileFunction,Paste,Top*%
%TF.FilePolarity,Positive*%
%FSLAX46Y46*%
G04 Gerber Fmt 4.6, Leading zero omitted, Abs format (unit mm)*
G04 Created by KiCad (PCBNEW 9.0.7) date 2026-01-21 05:55:30*
%MOMM*%
%LPD*%
G01*
G04 APERTURE LIST*
G04 Aperture macros list*
%AMRoundRect*
0 Rectangle with rounded corners*
0 $1 Rounding radius*
0 $2 $3 $4 $5 $6 $7 $8 $9 X,Y pos of 4 corners*
0 Add a 4 corners polygon primitive as box body*
4,1,4,$2,$3,$4,$5,$6,$7,$8,$9,$2,$3,0*
0 Add four circle primitives for the rounded corners*
1,1,$1+$1,$2,$3*
1,1,$1+$1,$4,$5*
1,1,$1+$1,$6,$7*
1,1,$1+$1,$8,$9*
0 Add four rect primitives between the rounded corners*
20,1,$1+$1,$2,$3,$4,$5,0*
20,1,$1+$1,$4,$5,$6,$7,0*
20,1,$1+$1,$6,$7,$8,$9,0*
20,1,$1+$1,$8,$9,$2,$3,0*%
%AMFreePoly0*
4,1,9,3.862500,-0.866500,0.737500,-0.866500,0.737500,-0.450000,-0.737500,-0.450000,-0.737500,0.450000,0.737500,0.450000,0.737500,0.866500,3.862500,0.866500,3.862500,-0.866500,3.862500,-0.866500,$1*%
G04 Aperture macros list end*
%ADD10RoundRect,0.225000X-0.225000X0.425000X-0.225000X-0.425000X0.225000X-0.425000X0.225000X0.425000X0*%
%ADD11FreePoly0,270.000000*%
%ADD12RoundRect,0.249999X0.450001X1.075001X-0.450001X1.075001X-0.450001X-1.075001X0.450001X-1.075001X0*%
%ADD13RoundRect,0.375000X0.625000X0.375000X-0.625000X0.375000X-0.625000X-0.375000X0.625000X-0.375000X0*%
%ADD14RoundRect,0.500000X0.500000X1.400000X-0.500000X1.400000X-0.500000X-1.400000X0.500000X-1.400000X0*%
%ADD15RoundRect,0.250000X-0.650000X0.412500X-0.650000X-0.412500X0.650000X-0.412500X0.650000X0.412500X0*%
%ADD16RoundRect,0.165000X0.385000X0.885000X-0.385000X0.885000X-0.385000X-0.885000X0.385000X-0.885000X0*%
%ADD17RoundRect,0.315000X0.735000X0.735000X-0.735000X0.735000X-0.735000X-0.735000X0.735000X-0.735000X0*%
%ADD18RoundRect,0.249999X1.075001X-0.450001X1.075001X0.450001X-1.075001X0.450001X-1.075001X-0.450001X0*%
%ADD19RoundRect,0.250000X-0.310000X0.970000X-0.310000X-0.970000X0.310000X-0.970000X0.310000X0.970000X0*%
%ADD20RoundRect,0.250000X0.310000X-0.970000X0.310000X0.970000X-0.310000X0.970000X-0.310000X-0.970000X0*%
%ADD21RoundRect,0.250000X-1.075000X-0.550000X1.075000X-0.550000X1.075000X0.550000X-1.075000X0.550000X0*%
%ADD22RoundRect,0.249999X-1.075001X0.450001X-1.075001X-0.450001X1.075001X-0.450001X1.075001X0.450001X0*%
%ADD23RoundRect,0.250000X1.500000X0.650000X-1.500000X0.650000X-1.500000X-0.650000X1.500000X-0.650000X0*%
%ADD24RoundRect,0.225000X0.225000X-0.425000X0.225000X0.425000X-0.225000X0.425000X-0.225000X-0.425000X0*%
%ADD25FreePoly0,90.000000*%
%ADD26RoundRect,0.249999X-0.450001X-1.075001X0.450001X-1.075001X0.450001X1.075001X-0.450001X1.075001X0*%
%ADD27R,1.117600X1.295400*%
G04 APERTURE END LIST*
D10*
%TO.C,Q1*%
X106000000Y-164550000D03*
D11*
X104500000Y-164637500D03*
D10*
X103000000Y-164550000D03*
%TD*%
D12*
%TO.C,R3*%
X83400000Y-134000000D03*
X78600000Y-134000000D03*
%TD*%
D13*
%TO.C,U1*%
X87150000Y-130050000D03*
X87150000Y-127750000D03*
D14*
X80850000Y-127750000D03*
D13*
X87150000Y-125450000D03*
%TD*%
D15*
%TO.C,C2*%
X91000000Y-125437500D03*
X91000000Y-128562500D03*
%TD*%
D16*
%TO.C,D2*%
X105840000Y-114500000D03*
D17*
X103690000Y-114500000D03*
%TD*%
D16*
%TO.C,D1*%
X56440000Y-114500000D03*
D17*
X54290000Y-114500000D03*
%TD*%
D16*
%TO.C,D3*%
X56290000Y-143250000D03*
D17*
X54140000Y-143250000D03*
%TD*%
D18*
%TO.C,R5*%
X101000000Y-111800000D03*
X101000000Y-107000000D03*
%TD*%
D19*
%TO.C,SW1*%
X93344613Y-170000000D03*
X90804613Y-170000000D03*
X88264613Y-170000000D03*
X85724613Y-170000000D03*
X83184613Y-170000000D03*
X80644613Y-170000000D03*
X78104613Y-170000000D03*
X75564613Y-170000000D03*
X73024613Y-170000000D03*
X70484613Y-170000000D03*
X67944613Y-170000000D03*
X65404613Y-170000000D03*
X65404613Y-178610000D03*
X67944613Y-178610000D03*
X70484613Y-178610000D03*
X73024613Y-178610000D03*
X75564613Y-178610000D03*
X78104613Y-178610000D03*
X80644613Y-178610000D03*
X83184613Y-178610000D03*
X85724613Y-178610000D03*
X88264613Y-178610000D03*
X90804613Y-178610000D03*
X93344613Y-178610000D03*
%TD*%
D20*
%TO.C,SW2*%
X67614613Y-116860000D03*
X70154613Y-116860000D03*
X72694613Y-116860000D03*
X75234613Y-116860000D03*
X77774613Y-116860000D03*
X80314613Y-116860000D03*
X82854613Y-116860000D03*
X85394613Y-116860000D03*
X87934613Y-116860000D03*
X90474613Y-116860000D03*
X93014613Y-116860000D03*
X95554613Y-116860000D03*
X95554613Y-108250000D03*
X93014613Y-108250000D03*
X90474613Y-108250000D03*
X87934613Y-108250000D03*
X85394613Y-108250000D03*
X82854613Y-108250000D03*
X80314613Y-108250000D03*
X77774613Y-108250000D03*
X75234613Y-108250000D03*
X72694613Y-108250000D03*
X70154613Y-108250000D03*
X67614613Y-108250000D03*
%TD*%
D12*
%TO.C,R6*%
X109650000Y-109000000D03*
X104850000Y-109000000D03*
%TD*%
D16*
%TO.C,D6*%
X105840000Y-172000000D03*
D17*
X103690000Y-172000000D03*
%TD*%
D16*
%TO.C,D4*%
X105865000Y-143250000D03*
D17*
X103715000Y-143250000D03*
%TD*%
D21*
%TO.C,C1*%
X82825000Y-139250000D03*
X86175000Y-139250000D03*
%TD*%
D22*
%TO.C,R2*%
X97800000Y-172000000D03*
X97800000Y-176800000D03*
%TD*%
D23*
%TO.C,D9*%
X69000000Y-136500000D03*
X64000000Y-136500000D03*
%TD*%
D24*
%TO.C,Q2*%
X69500000Y-127950000D03*
D25*
X71000000Y-127862500D03*
D24*
X72500000Y-127950000D03*
%TD*%
D16*
%TO.C,D5*%
X56340000Y-172000000D03*
D17*
X54190000Y-172000000D03*
%TD*%
D26*
%TO.C,R4*%
X86500000Y-134000000D03*
X91300000Y-134000000D03*
%TD*%
D22*
%TO.C,R1*%
X98000000Y-164350000D03*
X98000000Y-169150000D03*
%TD*%
D27*
%TO.C,U3*%
X110897813Y-172000000D03*
X114301413Y-172000000D03*
%TD*%
%TO.C,U2*%
X110872813Y-168750000D03*
X114276413Y-168750000D03*
%TD*%
M02*
