%TF.GenerationSoftware,KiCad,Pcbnew,9.0.7*%
%TF.CreationDate,2026-01-21T05:55:29-03:00*%
%TF.ProjectId,Infrared_n_motors,496e6672-6172-4656-945f-6e5f6d6f746f,0.0.1*%
%TF.SameCoordinates,Original*%
%TF.FileFunction,Copper,L2,Bot*%
%TF.FilePolarity,Positive*%
%FSLAX46Y46*%
G04 Gerber Fmt 4.6, Leading zero omitted, Abs format (unit mm)*
G04 Created by KiCad (PCBNEW 9.0.7) date 2026-01-21 05:55:29*
%MOMM*%
%LPD*%
G01*
G04 APERTURE LIST*
G04 Aperture macros list*
%AMRoundRect*
0 Rectangle with rounded corners*
0 $1 Rounding radius*
0 $2 $3 $4 $5 $6 $7 $8 $9 X,Y pos of 4 corners*
0 Add a 4 corners polygon primitive as box body*
4,1,4,$2,$3,$4,$5,$6,$7,$8,$9,$2,$3,0*
0 Add four circle primitives for the rounded corners*
1,1,$1+$1,$2,$3*
1,1,$1+$1,$4,$5*
1,1,$1+$1,$6,$7*
1,1,$1+$1,$8,$9*
0 Add four rect primitives between the rounded corners*
20,1,$1+$1,$2,$3,$4,$5,0*
20,1,$1+$1,$4,$5,$6,$7,0*
20,1,$1+$1,$6,$7,$8,$9,0*
20,1,$1+$1,$8,$9,$2,$3,0*%
G04 Aperture macros list end*
%TA.AperFunction,WasherPad*%
%ADD10O,2.000000X4.100000*%
%TD*%
%TA.AperFunction,ComponentPad*%
%ADD11C,2.500000*%
%TD*%
%TA.AperFunction,ComponentPad*%
%ADD12RoundRect,0.250000X0.600000X0.600000X-0.600000X0.600000X-0.600000X-0.600000X0.600000X-0.600000X0*%
%TD*%
%TA.AperFunction,ComponentPad*%
%ADD13C,1.700000*%
%TD*%
%TA.AperFunction,ComponentPad*%
%ADD14RoundRect,0.250000X-0.600000X-0.600000X0.600000X-0.600000X0.600000X0.600000X-0.600000X0.600000X0*%
%TD*%
%TA.AperFunction,ViaPad*%
%ADD15C,0.600000*%
%TD*%
%TA.AperFunction,Conductor*%
%ADD16C,1.000000*%
%TD*%
%TA.AperFunction,Conductor*%
%ADD17C,0.200000*%
%TD*%
G04 APERTURE END LIST*
D10*
%TO.P,M1,*%
%TO.N,*%
X68500000Y-146341131D03*
X85600000Y-146250000D03*
D11*
%TO.P,M1,1,+*%
%TO.N,+3.3V*%
X64500000Y-143750000D03*
%TO.P,M1,2,-*%
%TO.N,Net-(D9-A)*%
X64500000Y-148750000D03*
%TD*%
D12*
%TO.P,J2,1,Pin_1*%
%TO.N,IR_led12*%
X49290000Y-125000000D03*
D13*
%TO.P,J2,2,Pin_2*%
%TO.N,Motor12*%
X46750000Y-125000000D03*
%TO.P,J2,3,Pin_3*%
%TO.N,IR_led11*%
X49290000Y-127540000D03*
%TO.P,J2,4,Pin_4*%
%TO.N,Motor11*%
X46750000Y-127540000D03*
%TO.P,J2,5,Pin_5*%
%TO.N,IR_led10*%
X49290000Y-130080000D03*
%TO.P,J2,6,Pin_6*%
%TO.N,Motor10*%
X46750000Y-130080000D03*
%TO.P,J2,7,Pin_7*%
%TO.N,IR_led09*%
X49290000Y-132620000D03*
%TO.P,J2,8,Pin_8*%
%TO.N,Motor09*%
X46750000Y-132620000D03*
%TO.P,J2,9,Pin_9*%
%TO.N,IR_led08*%
X49290000Y-135160000D03*
%TO.P,J2,10,Pin_10*%
%TO.N,Motor08*%
X46750000Y-135160000D03*
%TO.P,J2,11,Pin_11*%
%TO.N,IR_led07*%
X49290000Y-137700000D03*
%TO.P,J2,12,Pin_12*%
%TO.N,Motor07*%
X46750000Y-137700000D03*
%TO.P,J2,13,Pin_13*%
%TO.N,IR_led06*%
X49290000Y-140240000D03*
%TO.P,J2,14,Pin_14*%
%TO.N,Motor06*%
X46750000Y-140240000D03*
%TO.P,J2,15,Pin_15*%
%TO.N,IR_led05*%
X49290000Y-142780000D03*
%TO.P,J2,16,Pin_16*%
%TO.N,Motor05*%
X46750000Y-142780000D03*
%TO.P,J2,17,Pin_17*%
%TO.N,IR_led04*%
X49290000Y-145320000D03*
%TO.P,J2,18,Pin_18*%
%TO.N,Motor04*%
X46750000Y-145320000D03*
%TO.P,J2,19,Pin_19*%
%TO.N,IR_led03*%
X49290000Y-147860000D03*
%TO.P,J2,20,Pin_20*%
%TO.N,Motor03*%
X46750000Y-147860000D03*
%TO.P,J2,21,Pin_21*%
%TO.N,IR_led02*%
X49290000Y-150400000D03*
%TO.P,J2,22,Pin_22*%
%TO.N,Motor02*%
X46750000Y-150400000D03*
%TO.P,J2,23,Pin_23*%
%TO.N,IR_led01*%
X49290000Y-152940000D03*
%TO.P,J2,24,Pin_24*%
%TO.N,Motor01*%
X46750000Y-152940000D03*
%TO.P,J2,25,Pin_25*%
%TO.N,GND*%
X49290000Y-155480000D03*
%TO.P,J2,26,Pin_26*%
X46750000Y-155480000D03*
%TO.P,J2,27,Pin_27*%
%TO.N,VPP*%
X49290000Y-158020000D03*
%TO.P,J2,28,Pin_28*%
X46750000Y-158020000D03*
%TO.P,J2,29,Pin_29*%
%TO.N,12V*%
X49290000Y-160560000D03*
%TO.P,J2,30,Pin_30*%
X46750000Y-160560000D03*
%TD*%
D14*
%TO.P,J1,1,Pin_1*%
%TO.N,12V*%
X110210000Y-160560000D03*
D13*
%TO.P,J1,2,Pin_2*%
X112750000Y-160560000D03*
%TO.P,J1,3,Pin_3*%
%TO.N,VPP*%
X110210000Y-158020000D03*
%TO.P,J1,4,Pin_4*%
X112750000Y-158020000D03*
%TO.P,J1,5,Pin_5*%
%TO.N,GND*%
X110210000Y-155480000D03*
%TO.P,J1,6,Pin_6*%
X112750000Y-155480000D03*
%TO.P,J1,7,Pin_7*%
%TO.N,IR_led01*%
X110210000Y-152940000D03*
%TO.P,J1,8,Pin_8*%
%TO.N,Motor01*%
X112750000Y-152940000D03*
%TO.P,J1,9,Pin_9*%
%TO.N,IR_led02*%
X110210000Y-150400000D03*
%TO.P,J1,10,Pin_10*%
%TO.N,Motor02*%
X112750000Y-150400000D03*
%TO.P,J1,11,Pin_11*%
%TO.N,IR_led03*%
X110210000Y-147860000D03*
%TO.P,J1,12,Pin_12*%
%TO.N,Motor03*%
X112750000Y-147860000D03*
%TO.P,J1,13,Pin_13*%
%TO.N,IR_led04*%
X110210000Y-145320000D03*
%TO.P,J1,14,Pin_14*%
%TO.N,Motor04*%
X112750000Y-145320000D03*
%TO.P,J1,15,Pin_15*%
%TO.N,IR_led05*%
X110210000Y-142780000D03*
%TO.P,J1,16,Pin_16*%
%TO.N,Motor05*%
X112750000Y-142780000D03*
%TO.P,J1,17,Pin_17*%
%TO.N,IR_led06*%
X110210000Y-140240000D03*
%TO.P,J1,18,Pin_18*%
%TO.N,Motor06*%
X112750000Y-140240000D03*
%TO.P,J1,19,Pin_19*%
%TO.N,IR_led07*%
X110210000Y-137700000D03*
%TO.P,J1,20,Pin_20*%
%TO.N,Motor07*%
X112750000Y-137700000D03*
%TO.P,J1,21,Pin_21*%
%TO.N,IR_led08*%
X110210000Y-135160000D03*
%TO.P,J1,22,Pin_22*%
%TO.N,Motor08*%
X112750000Y-135160000D03*
%TO.P,J1,23,Pin_23*%
%TO.N,IR_led09*%
X110210000Y-132620000D03*
%TO.P,J1,24,Pin_24*%
%TO.N,Motor09*%
X112750000Y-132620000D03*
%TO.P,J1,25,Pin_25*%
%TO.N,IR_led10*%
X110210000Y-130080000D03*
%TO.P,J1,26,Pin_26*%
%TO.N,Motor10*%
X112750000Y-130080000D03*
%TO.P,J1,27,Pin_27*%
%TO.N,IR_led11*%
X110210000Y-127540000D03*
%TO.P,J1,28,Pin_28*%
%TO.N,Motor11*%
X112750000Y-127540000D03*
%TO.P,J1,29,Pin_29*%
%TO.N,IR_led12*%
X110210000Y-125000000D03*
%TO.P,J1,30,Pin_30*%
%TO.N,Motor12*%
X112750000Y-125000000D03*
%TD*%
D15*
%TO.N,Net-(D4-K)*%
X52500000Y-156500000D03*
X52500000Y-163000000D03*
%TO.N,GND*%
X58924613Y-127450000D03*
%TO.N,IR_led04*%
X72500000Y-172285000D03*
%TO.N,IR_led03*%
X70697500Y-172802500D03*
%TO.N,IR_led02*%
X68697500Y-173302500D03*
%TO.N,IR_led01*%
X65250000Y-172677500D03*
%TO.N,IR_led10*%
X88500000Y-164125000D03*
%TO.N,IR_led11*%
X91250000Y-163500000D03*
%TO.N,IR_led07*%
X80750000Y-166500000D03*
%TO.N,IR_led06*%
X78250000Y-167875000D03*
%TO.N,IR_led08*%
X83500000Y-165625000D03*
%TO.N,IR_led09*%
X86000000Y-164750000D03*
%TO.N,IR_led12*%
X93075500Y-162575500D03*
%TO.N,IR_led05*%
X75447500Y-172552500D03*
%TO.N,Motor04*%
X75800000Y-114800000D03*
%TO.N,Motor05*%
X78250000Y-114750000D03*
%TO.N,Motor06*%
X80925000Y-114675000D03*
%TO.N,Motor09*%
X88350000Y-114850000D03*
%TO.N,Motor11*%
X93400000Y-114900000D03*
%TO.N,Motor07*%
X83425000Y-114675000D03*
%TO.N,Motor12*%
X95870000Y-114930000D03*
%TO.N,Motor10*%
X90770000Y-114930000D03*
%TO.N,Motor08*%
X85850000Y-114850000D03*
%TO.N,Motor01*%
X68500000Y-114500000D03*
%TO.N,Motor02*%
X70470000Y-114530000D03*
%TO.N,Motor03*%
X73155000Y-114905000D03*
%TD*%
D16*
%TO.N,Net-(D4-K)*%
X52500000Y-163000000D02*
X52500000Y-156500000D01*
D17*
%TO.N,IR_led04*%
X67000000Y-168000000D02*
X71285000Y-172285000D01*
X104042500Y-151500000D02*
X99500000Y-151500000D01*
X71285000Y-172285000D02*
X72500000Y-172285000D01*
X110202500Y-145340000D02*
X104042500Y-151500000D01*
X49290000Y-145370000D02*
X50460000Y-146540000D01*
X80500000Y-176500000D02*
X97000000Y-176500000D01*
X72500000Y-172285000D02*
X72680000Y-172285000D01*
X97500000Y-176000000D02*
X97500000Y-175000000D01*
X99500000Y-151500000D02*
X97500000Y-153500000D01*
X72680000Y-172285000D02*
X76895000Y-176500000D01*
X56500000Y-157500000D02*
X67000000Y-168000000D01*
X97500000Y-160500000D02*
X97500000Y-153500000D01*
X55365800Y-146500000D02*
X56500000Y-147634200D01*
X50460000Y-146540000D02*
X50500000Y-146500000D01*
X56500000Y-147634200D02*
X56500000Y-157500000D01*
X97500000Y-175000000D02*
X97500000Y-160500000D01*
X76895000Y-176500000D02*
X80500000Y-176500000D01*
X50500000Y-146500000D02*
X55365800Y-146500000D01*
X97000000Y-176500000D02*
X97500000Y-176000000D01*
%TO.N,IR_led03*%
X70697500Y-172802500D02*
X74895000Y-177000000D01*
X97500000Y-177000000D02*
X98000000Y-176500000D01*
X100000000Y-152000000D02*
X106082500Y-152000000D01*
X69875000Y-171980000D02*
X70697500Y-172802500D01*
X66250000Y-168250000D02*
X69875000Y-171875000D01*
X49290000Y-147910000D02*
X55410000Y-147910000D01*
X74895000Y-177000000D02*
X97500000Y-177000000D01*
X98000000Y-176500000D02*
X98000000Y-154000000D01*
X98000000Y-154000000D02*
X100000000Y-152000000D01*
X56000000Y-148500000D02*
X56000000Y-158000000D01*
X55410000Y-147910000D02*
X56000000Y-148500000D01*
X106082500Y-152000000D02*
X110202500Y-147880000D01*
X56000000Y-158000000D02*
X66250000Y-168250000D01*
X69875000Y-171875000D02*
X69875000Y-171980000D01*
%TO.N,IR_led02*%
X65250000Y-168250000D02*
X67530000Y-170530000D01*
X110202500Y-150420000D02*
X108122500Y-152500000D01*
X67530000Y-172135000D02*
X68697500Y-173302500D01*
X108122500Y-152500000D02*
X100500000Y-152500000D01*
X55000000Y-158000000D02*
X65250000Y-168250000D01*
X49290000Y-150450000D02*
X54950000Y-150450000D01*
X54950000Y-150450000D02*
X55000000Y-150500000D01*
X98500000Y-160500000D02*
X98500000Y-154500000D01*
X98500000Y-177000000D02*
X98500000Y-176000000D01*
X98000000Y-177500000D02*
X98500000Y-177000000D01*
X100500000Y-152500000D02*
X98500000Y-154500000D01*
X76500000Y-177500000D02*
X98000000Y-177500000D01*
X67530000Y-170530000D02*
X67530000Y-172135000D01*
X55000000Y-150500000D02*
X55000000Y-158000000D01*
X68697500Y-173302500D02*
X72895000Y-177500000D01*
X72895000Y-177500000D02*
X76500000Y-177500000D01*
X98500000Y-176000000D02*
X98500000Y-160500000D01*
%TO.N,IR_led01*%
X108000000Y-153000000D02*
X108040000Y-152960000D01*
X108040000Y-152960000D02*
X110202500Y-152960000D01*
X65572500Y-172677500D02*
X70895000Y-178000000D01*
X65250000Y-172677500D02*
X65572500Y-172677500D01*
X99000000Y-155000000D02*
X101000000Y-153000000D01*
X54089000Y-152990000D02*
X54599000Y-153500000D01*
X98500000Y-178000000D02*
X99000000Y-177500000D01*
X70895000Y-178000000D02*
X98500000Y-178000000D01*
X49290000Y-152990000D02*
X54089000Y-152990000D01*
X99000000Y-177500000D02*
X99000000Y-155000000D01*
X54599000Y-163349000D02*
X63927500Y-172677500D01*
X54599000Y-153500000D02*
X54599000Y-163349000D01*
X63927500Y-172677500D02*
X65250000Y-172677500D01*
X101000000Y-153000000D02*
X108000000Y-153000000D01*
%TO.N,IR_led10*%
X108000000Y-135500000D02*
X105500000Y-138000000D01*
X94500000Y-143000000D02*
X94500000Y-163500000D01*
X49290000Y-130130000D02*
X52000000Y-132840000D01*
X91750000Y-164125000D02*
X93875000Y-164125000D01*
X110202500Y-130100000D02*
X108000000Y-132302500D01*
X59500000Y-154500000D02*
X69125000Y-164125000D01*
X88500000Y-164125000D02*
X91750000Y-164125000D01*
X53067100Y-139000000D02*
X57701300Y-139000000D01*
X93875000Y-164125000D02*
X94500000Y-163500000D01*
X99500000Y-138000000D02*
X94500000Y-143000000D01*
X52000000Y-137932900D02*
X53067100Y-139000000D01*
X59500000Y-140798700D02*
X59500000Y-154500000D01*
X57701300Y-139000000D02*
X59500000Y-140798700D01*
X108000000Y-132302500D02*
X108000000Y-135500000D01*
X105500000Y-138000000D02*
X99500000Y-138000000D01*
X52000000Y-132840000D02*
X52000000Y-137932900D01*
X69125000Y-164125000D02*
X88500000Y-164125000D01*
%TO.N,IR_led11*%
X108500000Y-129262500D02*
X110202500Y-127560000D01*
X99000000Y-137500000D02*
X105000000Y-137500000D01*
X49290000Y-127590000D02*
X52500000Y-130800000D01*
X57768400Y-138500000D02*
X60000000Y-140731600D01*
X91250000Y-163500000D02*
X92500000Y-163500000D01*
X105000000Y-137500000D02*
X107500000Y-135000000D01*
X93250000Y-163500000D02*
X94000000Y-162750000D01*
X53134200Y-138500000D02*
X57768400Y-138500000D01*
X52500000Y-130800000D02*
X52500000Y-137865800D01*
X69500000Y-163500000D02*
X91250000Y-163500000D01*
X52500000Y-137865800D02*
X53134200Y-138500000D01*
X94000000Y-162750000D02*
X94000000Y-142500000D01*
X107500000Y-135000000D02*
X107500000Y-132000000D01*
X60000000Y-154000000D02*
X69500000Y-163500000D01*
X94000000Y-142500000D02*
X99000000Y-137500000D01*
X92500000Y-163500000D02*
X93250000Y-163500000D01*
X60000000Y-140731600D02*
X60000000Y-154000000D01*
X107500000Y-132000000D02*
X108500000Y-131000000D01*
X108500000Y-131000000D02*
X108500000Y-129262500D01*
%TO.N,IR_led07*%
X101000000Y-139500000D02*
X108422500Y-139500000D01*
X87250000Y-166500000D02*
X94500000Y-166500000D01*
X94500000Y-166500000D02*
X96000000Y-165000000D01*
X68500000Y-166500000D02*
X80750000Y-166500000D01*
X80750000Y-166500000D02*
X87250000Y-166500000D01*
X58000000Y-141000000D02*
X58000000Y-156000000D01*
X58000000Y-156000000D02*
X68000000Y-166000000D01*
X49290000Y-137750000D02*
X52040000Y-140500000D01*
X68000000Y-166000000D02*
X68500000Y-166500000D01*
X96000000Y-165000000D02*
X96000000Y-144500000D01*
X96000000Y-144500000D02*
X101000000Y-139500000D01*
X52040000Y-140500000D02*
X57500000Y-140500000D01*
X57500000Y-140500000D02*
X58000000Y-141000000D01*
X108422500Y-139500000D02*
X110202500Y-137720000D01*
%TO.N,IR_led06*%
X57500000Y-156500000D02*
X57500000Y-147500000D01*
X51000000Y-143500000D02*
X51000000Y-142000000D01*
X96500000Y-165500000D02*
X96500000Y-145000000D01*
X96500000Y-145000000D02*
X101250000Y-140250000D01*
X68875000Y-167875000D02*
X57500000Y-156500000D01*
X55500000Y-145500000D02*
X52000000Y-145500000D01*
X96500000Y-165500000D02*
X94125000Y-167875000D01*
X57500000Y-147500000D02*
X55500000Y-145500000D01*
X101760000Y-140260000D02*
X110202500Y-140260000D01*
X94125000Y-167875000D02*
X78250000Y-167875000D01*
X101250000Y-140250000D02*
X101750000Y-140250000D01*
X101750000Y-140250000D02*
X101760000Y-140260000D01*
X51500000Y-145000000D02*
X51500000Y-144000000D01*
X51500000Y-144000000D02*
X51000000Y-143500000D01*
X52000000Y-145500000D02*
X51500000Y-145000000D01*
X78250000Y-167875000D02*
X68875000Y-167875000D01*
X51000000Y-142000000D02*
X49290000Y-140290000D01*
%TO.N,IR_led08*%
X83500000Y-165625000D02*
X68625000Y-165625000D01*
X94375000Y-165625000D02*
X88750000Y-165625000D01*
X95500000Y-164500000D02*
X94375000Y-165625000D01*
X95500000Y-164500000D02*
X95500000Y-144000000D01*
X107000000Y-138382500D02*
X110202500Y-135180000D01*
X100500000Y-139000000D02*
X106500000Y-139000000D01*
X58500000Y-155500000D02*
X68625000Y-165625000D01*
X51000000Y-136920000D02*
X51000000Y-138500000D01*
X95500000Y-144000000D02*
X100500000Y-139000000D01*
X107000000Y-138500000D02*
X107000000Y-138382500D01*
X57567100Y-140000000D02*
X58500000Y-140932900D01*
X106500000Y-139000000D02*
X107000000Y-138500000D01*
X88750000Y-165625000D02*
X83500000Y-165625000D01*
X51000000Y-138500000D02*
X52500000Y-140000000D01*
X52500000Y-140000000D02*
X57567100Y-140000000D01*
X58500000Y-140932900D02*
X58500000Y-155500000D01*
X49290000Y-135210000D02*
X51000000Y-136920000D01*
%TO.N,IR_led09*%
X108500000Y-136000000D02*
X106000000Y-138500000D01*
X89750000Y-164750000D02*
X86000000Y-164750000D01*
X59000000Y-155000000D02*
X68750000Y-164750000D01*
X95000000Y-143500000D02*
X95000000Y-164250000D01*
X59000000Y-140865800D02*
X59000000Y-155000000D01*
X53000000Y-139500000D02*
X57634200Y-139500000D01*
X95000000Y-164250000D02*
X94500000Y-164750000D01*
X51500000Y-134880000D02*
X51500000Y-138000000D01*
X108500000Y-134342500D02*
X108500000Y-136000000D01*
X86000000Y-164750000D02*
X68750000Y-164750000D01*
X106000000Y-138500000D02*
X100000000Y-138500000D01*
X110202500Y-132640000D02*
X108500000Y-134342500D01*
X100000000Y-138500000D02*
X95000000Y-143500000D01*
X51500000Y-138000000D02*
X53000000Y-139500000D01*
X57634200Y-139500000D02*
X59000000Y-140865800D01*
X49290000Y-132670000D02*
X51500000Y-134880000D01*
X94500000Y-164750000D02*
X89750000Y-164750000D01*
%TO.N,IR_led12*%
X69750000Y-162750000D02*
X60500000Y-153500000D01*
X98500000Y-137000000D02*
X104500000Y-137000000D01*
X107000000Y-134500000D02*
X107000000Y-131500000D01*
X69750000Y-162750000D02*
X92901000Y-162750000D01*
X60500000Y-153500000D02*
X60500000Y-140500000D01*
X107000000Y-131500000D02*
X108000000Y-130500000D01*
X93075500Y-162575500D02*
X93500000Y-162151000D01*
X98000000Y-137500000D02*
X98500000Y-137000000D01*
X53000000Y-137500000D02*
X53000000Y-130000000D01*
X108000000Y-130500000D02*
X108000000Y-127222500D01*
X58000000Y-138000000D02*
X53500000Y-138000000D01*
X104500000Y-137000000D02*
X107000000Y-134500000D01*
X49290000Y-125050000D02*
X51000000Y-126760000D01*
X51000000Y-126760000D02*
X51000000Y-128000000D01*
X93500000Y-162151000D02*
X93500000Y-157500000D01*
X92901000Y-162750000D02*
X93075500Y-162575500D01*
X94000000Y-141500000D02*
X98000000Y-137500000D01*
X53500000Y-138000000D02*
X53000000Y-137500000D01*
X53000000Y-130000000D02*
X51000000Y-128000000D01*
X60500000Y-140500000D02*
X58000000Y-138000000D01*
X93500000Y-146500000D02*
X93500000Y-142000000D01*
X108000000Y-127222500D02*
X110202500Y-125020000D01*
X93500000Y-142000000D02*
X94000000Y-141500000D01*
X93500000Y-157500000D02*
X93500000Y-146500000D01*
%TO.N,IR_led05*%
X97000000Y-160500000D02*
X97000000Y-153000000D01*
X51000000Y-144540000D02*
X49290000Y-142830000D01*
X55333900Y-145901000D02*
X57000000Y-147567100D01*
X71000000Y-171000000D02*
X73895000Y-171000000D01*
X73895000Y-171000000D02*
X75030000Y-172135000D01*
X107502500Y-145500000D02*
X110202500Y-142800000D01*
X78895000Y-176000000D02*
X82000000Y-176000000D01*
X57000000Y-147567100D02*
X57000000Y-157000000D01*
X51250000Y-145750000D02*
X51401000Y-145901000D01*
X97000000Y-175500000D02*
X97000000Y-174500000D01*
X51000000Y-145500000D02*
X51000000Y-144540000D01*
X107500000Y-145500000D02*
X107502500Y-145500000D01*
X97000000Y-153000000D02*
X99000000Y-151000000D01*
X99000000Y-151000000D02*
X103000000Y-151000000D01*
X51401000Y-145901000D02*
X55333900Y-145901000D01*
X75447500Y-172552500D02*
X78895000Y-176000000D01*
X97000000Y-174500000D02*
X97000000Y-160500000D01*
X75030000Y-172135000D02*
X75447500Y-172552500D01*
X96500000Y-176000000D02*
X97000000Y-175500000D01*
X103000000Y-151000000D02*
X107500000Y-146500000D01*
X82000000Y-176000000D02*
X96500000Y-176000000D01*
X51000000Y-145500000D02*
X51250000Y-145750000D01*
X57000000Y-157000000D02*
X71000000Y-171000000D01*
X107500000Y-146500000D02*
X107500000Y-145500000D01*
%TO.N,Motor04*%
X75800000Y-114800000D02*
X75670000Y-114930000D01*
X46750000Y-145370000D02*
X41500000Y-140120000D01*
X73100000Y-117500000D02*
X75670000Y-114930000D01*
X41500000Y-140120000D02*
X41500000Y-120500000D01*
X112500000Y-110500000D02*
X80100000Y-110500000D01*
X112742500Y-145340000D02*
X118000000Y-140082500D01*
X118000000Y-116000000D02*
X112500000Y-110500000D01*
X44500000Y-117500000D02*
X73100000Y-117500000D01*
X41500000Y-120500000D02*
X44500000Y-117500000D01*
X80100000Y-110500000D02*
X75800000Y-114800000D01*
X118000000Y-140082500D02*
X118000000Y-116000000D01*
%TO.N,Motor05*%
X82000000Y-111000000D02*
X112250000Y-111000000D01*
X46750000Y-142830000D02*
X42000000Y-138080000D01*
X112250000Y-111000000D02*
X117500000Y-116250000D01*
X42000000Y-138080000D02*
X42000000Y-121000000D01*
X117500000Y-138042500D02*
X112742500Y-142800000D01*
X75000000Y-118000000D02*
X78070000Y-114930000D01*
X45000000Y-118000000D02*
X75000000Y-118000000D01*
X42000000Y-121000000D02*
X45000000Y-118000000D01*
X117500000Y-116250000D02*
X117500000Y-138042500D01*
X78070000Y-114930000D02*
X78250000Y-114750000D01*
X78250000Y-114750000D02*
X82000000Y-111000000D01*
%TO.N,Motor06*%
X45500000Y-118500000D02*
X77100000Y-118500000D01*
X117000000Y-136002500D02*
X112742500Y-140260000D01*
X77100000Y-118500000D02*
X80925000Y-114675000D01*
X42500000Y-136040000D02*
X42500000Y-121500000D01*
X84100000Y-111500000D02*
X112182900Y-111500000D01*
X46750000Y-140290000D02*
X42500000Y-136040000D01*
X117000000Y-116317100D02*
X117000000Y-136002500D01*
X112182900Y-111500000D02*
X117000000Y-116317100D01*
X80925000Y-114675000D02*
X84100000Y-111500000D01*
X42500000Y-121500000D02*
X45500000Y-118500000D01*
%TO.N,Motor09*%
X90200000Y-113000000D02*
X111000000Y-113000000D01*
X115500000Y-129882500D02*
X112742500Y-132640000D01*
X44000000Y-129920000D02*
X46750000Y-132670000D01*
X44000000Y-123000000D02*
X44000000Y-129920000D01*
X83200000Y-120000000D02*
X47000000Y-120000000D01*
X111000000Y-113000000D02*
X115500000Y-117500000D01*
X88350000Y-114850000D02*
X90200000Y-113000000D01*
X115500000Y-117500000D02*
X115500000Y-129882500D01*
X88270000Y-114930000D02*
X83200000Y-120000000D01*
X47000000Y-120000000D02*
X44000000Y-123000000D01*
X88270000Y-114930000D02*
X88350000Y-114850000D01*
%TO.N,Motor11*%
X93370000Y-114930000D02*
X87300000Y-121000000D01*
X114500000Y-125802500D02*
X114500000Y-118500000D01*
X93400000Y-114900000D02*
X93370000Y-114930000D01*
X110000000Y-114000000D02*
X94300000Y-114000000D01*
X87300000Y-121000000D02*
X48000000Y-121000000D01*
X94300000Y-114000000D02*
X93400000Y-114900000D01*
X48000000Y-121000000D02*
X45000000Y-124000000D01*
X45000000Y-125840000D02*
X46750000Y-127590000D01*
X114500000Y-118500000D02*
X110000000Y-114000000D01*
X45000000Y-124000000D02*
X45000000Y-125840000D01*
X112742500Y-127560000D02*
X114500000Y-125802500D01*
%TO.N,Motor07*%
X43000000Y-134000000D02*
X43000000Y-122000000D01*
X46750000Y-137750000D02*
X43000000Y-134000000D01*
X43000000Y-122000000D02*
X46000000Y-119000000D01*
X116500000Y-116500000D02*
X116500000Y-133962500D01*
X116500000Y-133962500D02*
X112742500Y-137720000D01*
X83170000Y-114930000D02*
X83425000Y-114675000D01*
X79100000Y-119000000D02*
X83170000Y-114930000D01*
X112000000Y-112000000D02*
X116500000Y-116500000D01*
X86100000Y-112000000D02*
X112000000Y-112000000D01*
X83425000Y-114675000D02*
X86100000Y-112000000D01*
X46000000Y-119000000D02*
X79100000Y-119000000D01*
%TO.N,Motor12*%
X112742500Y-117742500D02*
X109930000Y-114930000D01*
X109930000Y-114930000D02*
X95870000Y-114930000D01*
X112742500Y-125020000D02*
X112742500Y-117742500D01*
X89300000Y-121500000D02*
X48500000Y-121500000D01*
X48500000Y-121500000D02*
X46750000Y-123250000D01*
X95870000Y-114930000D02*
X89300000Y-121500000D01*
X46750000Y-123250000D02*
X46750000Y-125050000D01*
%TO.N,Motor10*%
X112742500Y-130100000D02*
X115000000Y-127842500D01*
X90770000Y-114930000D02*
X85200000Y-120500000D01*
X47500000Y-120500000D02*
X44500000Y-123500000D01*
X115000000Y-127842500D02*
X115000000Y-118000000D01*
X115000000Y-118000000D02*
X110500000Y-113500000D01*
X85200000Y-120500000D02*
X47500000Y-120500000D01*
X92200000Y-113500000D02*
X90770000Y-114930000D01*
X44500000Y-127880000D02*
X46750000Y-130130000D01*
X110500000Y-113500000D02*
X92200000Y-113500000D01*
X44500000Y-123500000D02*
X44500000Y-127880000D01*
%TO.N,Motor08*%
X88200000Y-112500000D02*
X111932900Y-112500000D01*
X85850000Y-114850000D02*
X88200000Y-112500000D01*
X85770000Y-114930000D02*
X85850000Y-114850000D01*
X116000000Y-116567100D02*
X116000000Y-131922500D01*
X85770000Y-114930000D02*
X81200000Y-119500000D01*
X116000000Y-131922500D02*
X112742500Y-135180000D01*
X46500000Y-119500000D02*
X43500000Y-122500000D01*
X43500000Y-131960000D02*
X46750000Y-135210000D01*
X111932900Y-112500000D02*
X116000000Y-116567100D01*
X43500000Y-122500000D02*
X43500000Y-131960000D01*
X81200000Y-119500000D02*
X46500000Y-119500000D01*
%TO.N,Motor01*%
X68070000Y-114930000D02*
X68070000Y-115430000D01*
X40000000Y-119000000D02*
X40000000Y-146240000D01*
X68500000Y-114500000D02*
X68070000Y-114930000D01*
X40000000Y-146240000D02*
X46750000Y-152990000D01*
X68070000Y-115430000D02*
X67500000Y-116000000D01*
X74000000Y-109000000D02*
X68500000Y-114500000D01*
X113250000Y-109000000D02*
X74000000Y-109000000D01*
X119500000Y-115250000D02*
X113250000Y-109000000D01*
X67500000Y-116000000D02*
X43000000Y-116000000D01*
X112742500Y-152960000D02*
X119500000Y-146202500D01*
X119500000Y-146202500D02*
X119500000Y-115250000D01*
X43000000Y-116000000D02*
X40000000Y-119000000D01*
%TO.N,Motor02*%
X119000000Y-144162500D02*
X112742500Y-150420000D01*
X70470000Y-114930000D02*
X70470000Y-114530000D01*
X70470000Y-114530000D02*
X75500000Y-109500000D01*
X119000000Y-115432900D02*
X119000000Y-144162500D01*
X70470000Y-114930000D02*
X70470000Y-116030000D01*
X43500000Y-116500000D02*
X40500000Y-119500000D01*
X70470000Y-116030000D02*
X70000000Y-116500000D01*
X75500000Y-109500000D02*
X113067100Y-109500000D01*
X40500000Y-119500000D02*
X40500000Y-144200000D01*
X113067100Y-109500000D02*
X119000000Y-115432900D01*
X70000000Y-116500000D02*
X43500000Y-116500000D01*
X40500000Y-144200000D02*
X46750000Y-150450000D01*
%TO.N,Motor03*%
X41000000Y-142160000D02*
X41000000Y-120000000D01*
X73155000Y-114905000D02*
X78060000Y-110000000D01*
X113000000Y-110000000D02*
X118500000Y-115500000D01*
X44000000Y-117000000D02*
X71060000Y-117000000D01*
X71060000Y-117000000D02*
X73050000Y-115010000D01*
X41000000Y-120000000D02*
X44000000Y-117000000D01*
X78060000Y-110000000D02*
X113000000Y-110000000D01*
X118500000Y-115500000D02*
X118500000Y-142122500D01*
X46750000Y-147910000D02*
X41000000Y-142160000D01*
X73050000Y-115010000D02*
X73155000Y-114905000D01*
X118500000Y-142122500D02*
X112742500Y-147880000D01*
%TD*%
%TA.AperFunction,Conductor*%
%TO.N,GND*%
G36*
X109696942Y-115550185D02*
G01*
X109717584Y-115566819D01*
X112105681Y-117954916D01*
X112139166Y-118016239D01*
X112142000Y-118042597D01*
X112142000Y-123718102D01*
X112122315Y-123785141D01*
X112074297Y-123828586D01*
X112042180Y-123844950D01*
X111870213Y-123969890D01*
X111719890Y-124120213D01*
X111594949Y-124292182D01*
X111590484Y-124300946D01*
X111542509Y-124351742D01*
X111474688Y-124368536D01*
X111408553Y-124345998D01*
X111369516Y-124300946D01*
X111365050Y-124292182D01*
X111240109Y-124120213D01*
X111089786Y-123969890D01*
X110917820Y-123844951D01*
X110728414Y-123748444D01*
X110728413Y-123748443D01*
X110728412Y-123748443D01*
X110526243Y-123682754D01*
X110526241Y-123682753D01*
X110526240Y-123682753D01*
X110364957Y-123657208D01*
X110316287Y-123649500D01*
X110103713Y-123649500D01*
X110055042Y-123657208D01*
X109893760Y-123682753D01*
X109691585Y-123748444D01*
X109502179Y-123844951D01*
X109330213Y-123969890D01*
X109179890Y-124120213D01*
X109054951Y-124292179D01*
X108958444Y-124481585D01*
X108892753Y-124683760D01*
X108859500Y-124893713D01*
X108859500Y-125106286D01*
X108892753Y-125316242D01*
X108909557Y-125367960D01*
X108911551Y-125437801D01*
X108879306Y-125493957D01*
X107634636Y-126738627D01*
X107634629Y-126738634D01*
X107631286Y-126741978D01*
X107631284Y-126741980D01*
X107519480Y-126853784D01*
X107491517Y-126902218D01*
X107485756Y-126912195D01*
X107485756Y-126912196D01*
X107454485Y-126966359D01*
X107440423Y-126990715D01*
X107399499Y-127143443D01*
X107399499Y-127143445D01*
X107399499Y-127311546D01*
X107399500Y-127311559D01*
X107399500Y-130199902D01*
X107379815Y-130266941D01*
X107363181Y-130287583D01*
X106519481Y-131131282D01*
X106519479Y-131131284D01*
X106504289Y-131157594D01*
X106497869Y-131168716D01*
X106440423Y-131268215D01*
X106399499Y-131420943D01*
X106399499Y-131420945D01*
X106399499Y-131589046D01*
X106399500Y-131589059D01*
X106399500Y-134199903D01*
X106379815Y-134266942D01*
X106363181Y-134287584D01*
X104287584Y-136363181D01*
X104226261Y-136396666D01*
X104199903Y-136399500D01*
X98586670Y-136399500D01*
X98586654Y-136399499D01*
X98579058Y-136399499D01*
X98420943Y-136399499D01*
X98344579Y-136419961D01*
X98268214Y-136440423D01*
X98268209Y-136440426D01*
X98131290Y-136519475D01*
X98131282Y-136519481D01*
X97698530Y-136952235D01*
X97631284Y-137019481D01*
X93631286Y-141019478D01*
X93631284Y-141019480D01*
X93380655Y-141270109D01*
X93124217Y-141526546D01*
X93124214Y-141526548D01*
X93124215Y-141526549D01*
X93019480Y-141631284D01*
X92991654Y-141679481D01*
X92940423Y-141768215D01*
X92899499Y-141920943D01*
X92899499Y-141920944D01*
X92899499Y-141920945D01*
X92899499Y-142089046D01*
X92899500Y-142089059D01*
X92899500Y-161699092D01*
X92879815Y-161766131D01*
X92827011Y-161811886D01*
X92822953Y-161813653D01*
X92696324Y-161866104D01*
X92696314Y-161866109D01*
X92565211Y-161953710D01*
X92565207Y-161953713D01*
X92453713Y-162065207D01*
X92453710Y-162065211D01*
X92434213Y-162094391D01*
X92380600Y-162139196D01*
X92331111Y-162149500D01*
X70050097Y-162149500D01*
X69983058Y-162129815D01*
X69962416Y-162113181D01*
X61136819Y-153287584D01*
X61103334Y-153226261D01*
X61100500Y-153199903D01*
X61100500Y-148635258D01*
X62749500Y-148635258D01*
X62749500Y-148864741D01*
X62769878Y-149019516D01*
X62779452Y-149092238D01*
X62820370Y-149244949D01*
X62838842Y-149313887D01*
X62926650Y-149525876D01*
X62926656Y-149525888D01*
X63027725Y-149700946D01*
X63041392Y-149724617D01*
X63181081Y-149906661D01*
X63181089Y-149906670D01*
X63343330Y-150068911D01*
X63343338Y-150068918D01*
X63525382Y-150208607D01*
X63525385Y-150208608D01*
X63525388Y-150208611D01*
X63724112Y-150323344D01*
X63724117Y-150323346D01*
X63724123Y-150323349D01*
X63815480Y-150361190D01*
X63936113Y-150411158D01*
X64157762Y-150470548D01*
X64385266Y-150500500D01*
X64385273Y-150500500D01*
X64614727Y-150500500D01*
X64614734Y-150500500D01*
X64842238Y-150470548D01*
X65063887Y-150411158D01*
X65275888Y-150323344D01*
X65474612Y-150208611D01*
X65656661Y-150068919D01*
X65656665Y-150068914D01*
X65656670Y-150068911D01*
X65818911Y-149906670D01*
X65818914Y-149906665D01*
X65818919Y-149906661D01*
X65958611Y-149724612D01*
X66073344Y-149525888D01*
X66161158Y-149313887D01*
X66220548Y-149092238D01*
X66250500Y-148864734D01*
X66250500Y-148635266D01*
X66220548Y-148407762D01*
X66161158Y-148186113D01*
X66110451Y-148063696D01*
X66073349Y-147974123D01*
X66073346Y-147974117D01*
X66073344Y-147974112D01*
X65958611Y-147775388D01*
X65958608Y-147775385D01*
X65958607Y-147775382D01*
X65818918Y-147593338D01*
X65818911Y-147593330D01*
X65656670Y-147431089D01*
X65656661Y-147431081D01*
X65474617Y-147291392D01*
X65275890Y-147176657D01*
X65275876Y-147176650D01*
X65063887Y-147088842D01*
X64842238Y-147029452D01*
X64804215Y-147024446D01*
X64614741Y-146999500D01*
X64614734Y-146999500D01*
X64385266Y-146999500D01*
X64385258Y-146999500D01*
X64168715Y-147028009D01*
X64157762Y-147029452D01*
X64064076Y-147054554D01*
X63936112Y-147088842D01*
X63724123Y-147176650D01*
X63724109Y-147176657D01*
X63525382Y-147291392D01*
X63343338Y-147431081D01*
X63181081Y-147593338D01*
X63041392Y-147775382D01*
X62926657Y-147974109D01*
X62926650Y-147974123D01*
X62838842Y-148186112D01*
X62779453Y-148407759D01*
X62779451Y-148407770D01*
X62749500Y-148635258D01*
X61100500Y-148635258D01*
X61100500Y-143635258D01*
X62749500Y-143635258D01*
X62749500Y-143864741D01*
X62768334Y-144007788D01*
X62779452Y-144092238D01*
X62797739Y-144160486D01*
X62838842Y-144313887D01*
X62926650Y-144525876D01*
X62926657Y-144525890D01*
X63041392Y-144724617D01*
X63181081Y-144906661D01*
X63181089Y-144906670D01*
X63343330Y-145068911D01*
X63343336Y-145068916D01*
X63343339Y-145068919D01*
X63379197Y-145096434D01*
X63525382Y-145208607D01*
X63525385Y-145208608D01*
X63525388Y-145208611D01*
X63724112Y-145323344D01*
X63724117Y-145323346D01*
X63724123Y-145323349D01*
X63801463Y-145355384D01*
X63936113Y-145411158D01*
X64157762Y-145470548D01*
X64385266Y-145500500D01*
X64385273Y-145500500D01*
X64614727Y-145500500D01*
X64614734Y-145500500D01*
X64842238Y-145470548D01*
X65063887Y-145411158D01*
X65269817Y-145325858D01*
X65275876Y-145323349D01*
X65275876Y-145323348D01*
X65275888Y-145323344D01*
X65474612Y-145208611D01*
X65520978Y-145173033D01*
X66999500Y-145173033D01*
X66999500Y-147509228D01*
X67036446Y-147742499D01*
X67109433Y-147967127D01*
X67158638Y-148063696D01*
X67216657Y-148177564D01*
X67355483Y-148368641D01*
X67522490Y-148535648D01*
X67713567Y-148674474D01*
X67812991Y-148725133D01*
X67924003Y-148781697D01*
X67924005Y-148781697D01*
X67924008Y-148781699D01*
X68044412Y-148820820D01*
X68148631Y-148854684D01*
X68381903Y-148891631D01*
X68381908Y-148891631D01*
X68618097Y-148891631D01*
X68851368Y-148854684D01*
X69075992Y-148781699D01*
X69286433Y-148674474D01*
X69477510Y-148535648D01*
X69644517Y-148368641D01*
X69783343Y-148177564D01*
X69890568Y-147967123D01*
X69963553Y-147742499D01*
X69977987Y-147651368D01*
X70000500Y-147509228D01*
X70000500Y-145173033D01*
X69988368Y-145096434D01*
X69986066Y-145081902D01*
X84099500Y-145081902D01*
X84099500Y-147418097D01*
X84136446Y-147651368D01*
X84209433Y-147875996D01*
X84305072Y-148063696D01*
X84316657Y-148086433D01*
X84455483Y-148277510D01*
X84622490Y-148444517D01*
X84813567Y-148583343D01*
X84912991Y-148634002D01*
X85024003Y-148690566D01*
X85024005Y-148690566D01*
X85024008Y-148690568D01*
X85144412Y-148729689D01*
X85248631Y-148763553D01*
X85481903Y-148800500D01*
X85481908Y-148800500D01*
X85718097Y-148800500D01*
X85951368Y-148763553D01*
X85996973Y-148748735D01*
X86175992Y-148690568D01*
X86386433Y-148583343D01*
X86577510Y-148444517D01*
X86744517Y-148277510D01*
X86883343Y-148086433D01*
X86990568Y-147875992D01*
X87063553Y-147651368D01*
X87080597Y-147543755D01*
X87100500Y-147418097D01*
X87100500Y-145081902D01*
X87063553Y-144848631D01*
X87020177Y-144715134D01*
X86990568Y-144624008D01*
X86990566Y-144624005D01*
X86990566Y-144624003D01*
X86929776Y-144504697D01*
X86883343Y-144413567D01*
X86744517Y-144222490D01*
X86577510Y-144055483D01*
X86386433Y-143916657D01*
X86354847Y-143900563D01*
X86175996Y-143809433D01*
X85951368Y-143736446D01*
X85718097Y-143699500D01*
X85718092Y-143699500D01*
X85481908Y-143699500D01*
X85481903Y-143699500D01*
X85248631Y-143736446D01*
X85024003Y-143809433D01*
X84813566Y-143916657D01*
X84716073Y-143987491D01*
X84622490Y-144055483D01*
X84622488Y-144055485D01*
X84622487Y-144055485D01*
X84455485Y-144222487D01*
X84455485Y-144222488D01*
X84455483Y-144222490D01*
X84406514Y-144289890D01*
X84316657Y-144413566D01*
X84209433Y-144624003D01*
X84136446Y-144848631D01*
X84099500Y-145081902D01*
X69986066Y-145081902D01*
X69963553Y-144939762D01*
X69918657Y-144801588D01*
X69890568Y-144715139D01*
X69890566Y-144715136D01*
X69890566Y-144715134D01*
X69834002Y-144604122D01*
X69783343Y-144504698D01*
X69644517Y-144313621D01*
X69477510Y-144146614D01*
X69286433Y-144007788D01*
X69075996Y-143900564D01*
X68851368Y-143827577D01*
X68618097Y-143790631D01*
X68618092Y-143790631D01*
X68381908Y-143790631D01*
X68381903Y-143790631D01*
X68148631Y-143827577D01*
X67924003Y-143900564D01*
X67713566Y-144007788D01*
X67615468Y-144079061D01*
X67522490Y-144146614D01*
X67522488Y-144146616D01*
X67522487Y-144146616D01*
X67355485Y-144313618D01*
X67355485Y-144313619D01*
X67355483Y-144313621D01*
X67355290Y-144313887D01*
X67216657Y-144504697D01*
X67109433Y-144715134D01*
X67036446Y-144939762D01*
X66999500Y-145173033D01*
X65520978Y-145173033D01*
X65656661Y-145068919D01*
X65656664Y-145068916D01*
X65656670Y-145068911D01*
X65818911Y-144906670D01*
X65818914Y-144906665D01*
X65818919Y-144906661D01*
X65958611Y-144724612D01*
X66073344Y-144525888D01*
X66161158Y-144313887D01*
X66220548Y-144092238D01*
X66250500Y-143864734D01*
X66250500Y-143635266D01*
X66249975Y-143631282D01*
X66249057Y-143624312D01*
X66220548Y-143407762D01*
X66161158Y-143186113D01*
X66111190Y-143065480D01*
X66073349Y-142974123D01*
X66073346Y-142974117D01*
X66073344Y-142974112D01*
X65958611Y-142775388D01*
X65958608Y-142775385D01*
X65958607Y-142775382D01*
X65818918Y-142593338D01*
X65818911Y-142593330D01*
X65656670Y-142431089D01*
X65656661Y-142431081D01*
X65474617Y-142291392D01*
X65275890Y-142176657D01*
X65275876Y-142176650D01*
X65063887Y-142088842D01*
X65034418Y-142080946D01*
X64842238Y-142029452D01*
X64804215Y-142024446D01*
X64614741Y-141999500D01*
X64614734Y-141999500D01*
X64385266Y-141999500D01*
X64385258Y-141999500D01*
X64168715Y-142028009D01*
X64157762Y-142029452D01*
X64064076Y-142054554D01*
X63936112Y-142088842D01*
X63724123Y-142176650D01*
X63724109Y-142176657D01*
X63525382Y-142291392D01*
X63343338Y-142431081D01*
X63181081Y-142593338D01*
X63041392Y-142775382D01*
X62926657Y-142974109D01*
X62926650Y-142974123D01*
X62838842Y-143186112D01*
X62779453Y-143407759D01*
X62779451Y-143407770D01*
X62749500Y-143635258D01*
X61100500Y-143635258D01*
X61100500Y-140589059D01*
X61100501Y-140589046D01*
X61100501Y-140420945D01*
X61100501Y-140420943D01*
X61059577Y-140268215D01*
X61019648Y-140199057D01*
X60980520Y-140131284D01*
X60868716Y-140019480D01*
X60868715Y-140019479D01*
X60864385Y-140015149D01*
X60864374Y-140015139D01*
X58487590Y-137638355D01*
X58487588Y-137638352D01*
X58368717Y-137519481D01*
X58368716Y-137519480D01*
X58281904Y-137469360D01*
X58281904Y-137469359D01*
X58281900Y-137469358D01*
X58231785Y-137440423D01*
X58079057Y-137399499D01*
X57920943Y-137399499D01*
X57913347Y-137399499D01*
X57913331Y-137399500D01*
X53800098Y-137399500D01*
X53770657Y-137390855D01*
X53740671Y-137384332D01*
X53735655Y-137380577D01*
X53733059Y-137379815D01*
X53712417Y-137363181D01*
X53636819Y-137287583D01*
X53603334Y-137226260D01*
X53600500Y-137199902D01*
X53600500Y-129920945D01*
X53600500Y-129920943D01*
X53569016Y-129803443D01*
X53559577Y-129768215D01*
X53556998Y-129763749D01*
X53530639Y-129718095D01*
X53530637Y-129718092D01*
X53480520Y-129631284D01*
X53368716Y-129519480D01*
X53368715Y-129519479D01*
X53364385Y-129515149D01*
X53364374Y-129515139D01*
X51636819Y-127787584D01*
X51603334Y-127726261D01*
X51600500Y-127699903D01*
X51600500Y-126680944D01*
X51600499Y-126680938D01*
X51594946Y-126660213D01*
X51593112Y-126653368D01*
X51559577Y-126528215D01*
X51530639Y-126478095D01*
X51480520Y-126391284D01*
X51368716Y-126279480D01*
X51368715Y-126279479D01*
X51364385Y-126275149D01*
X51364374Y-126275139D01*
X50676818Y-125587583D01*
X50643333Y-125526260D01*
X50640499Y-125499902D01*
X50640499Y-124349998D01*
X50640498Y-124349981D01*
X50629999Y-124247203D01*
X50629998Y-124247200D01*
X50574814Y-124080666D01*
X50482712Y-123931344D01*
X50358656Y-123807288D01*
X50209334Y-123715186D01*
X50042797Y-123660001D01*
X50042795Y-123660000D01*
X49940010Y-123649500D01*
X48639998Y-123649500D01*
X48639981Y-123649501D01*
X48537203Y-123660000D01*
X48537200Y-123660001D01*
X48370668Y-123715185D01*
X48370663Y-123715187D01*
X48221342Y-123807289D01*
X48097289Y-123931342D01*
X48005187Y-124080663D01*
X48005183Y-124080673D01*
X48001685Y-124091229D01*
X47961910Y-124148672D01*
X47897393Y-124175493D01*
X47828618Y-124163174D01*
X47783663Y-124125106D01*
X47780105Y-124120209D01*
X47629786Y-123969890D01*
X47457815Y-123844948D01*
X47457814Y-123844947D01*
X47418205Y-123824765D01*
X47407142Y-123814316D01*
X47393297Y-123807994D01*
X47382255Y-123790812D01*
X47367409Y-123776791D01*
X47363167Y-123761111D01*
X47355523Y-123749216D01*
X47350500Y-123714281D01*
X47350500Y-123550097D01*
X47370185Y-123483058D01*
X47386819Y-123462416D01*
X48712417Y-122136819D01*
X48773740Y-122103334D01*
X48800098Y-122100500D01*
X89213331Y-122100500D01*
X89213347Y-122100501D01*
X89220943Y-122100501D01*
X89379054Y-122100501D01*
X89379057Y-122100501D01*
X89531785Y-122059577D01*
X89581904Y-122030639D01*
X89668716Y-121980520D01*
X89780520Y-121868716D01*
X89780520Y-121868714D01*
X89790728Y-121858507D01*
X89790729Y-121858504D01*
X95884662Y-115764572D01*
X95945983Y-115731089D01*
X95948150Y-115730638D01*
X96006085Y-115719113D01*
X96103497Y-115699737D01*
X96249179Y-115639394D01*
X96294083Y-115609390D01*
X96380875Y-115551398D01*
X96447553Y-115530520D01*
X96449766Y-115530500D01*
X109629903Y-115530500D01*
X109696942Y-115550185D01*
G37*
%TD.AperFunction*%
%TA.AperFunction,Conductor*%
G36*
X48824075Y-155672993D02*
G01*
X48889901Y-155787007D01*
X48982993Y-155880099D01*
X49097007Y-155945925D01*
X49160590Y-155962962D01*
X48528282Y-156595269D01*
X48528282Y-156595270D01*
X48582452Y-156634626D01*
X48582451Y-156634626D01*
X48591495Y-156639234D01*
X48642292Y-156687208D01*
X48659087Y-156755029D01*
X48636550Y-156821164D01*
X48591499Y-156860202D01*
X48582182Y-156864949D01*
X48410213Y-156989890D01*
X48259890Y-157140213D01*
X48134949Y-157312182D01*
X48130484Y-157320946D01*
X48082509Y-157371742D01*
X48014688Y-157388536D01*
X47948553Y-157365998D01*
X47909516Y-157320946D01*
X47905050Y-157312182D01*
X47780109Y-157140213D01*
X47629786Y-156989890D01*
X47457817Y-156864949D01*
X47448504Y-156860204D01*
X47397707Y-156812230D01*
X47380912Y-156744409D01*
X47403449Y-156678274D01*
X47448507Y-156639232D01*
X47457555Y-156634622D01*
X47511716Y-156595270D01*
X47511717Y-156595270D01*
X46879408Y-155962962D01*
X46942993Y-155945925D01*
X47057007Y-155880099D01*
X47150099Y-155787007D01*
X47215925Y-155672993D01*
X47232962Y-155609408D01*
X47865270Y-156241717D01*
X47865270Y-156241716D01*
X47904622Y-156187554D01*
X47909514Y-156177954D01*
X47957488Y-156127157D01*
X48025308Y-156110361D01*
X48091444Y-156132897D01*
X48130486Y-156177954D01*
X48135375Y-156187550D01*
X48174728Y-156241716D01*
X48807037Y-155609408D01*
X48824075Y-155672993D01*
G37*
%TD.AperFunction*%
%TA.AperFunction,Conductor*%
G36*
X112284075Y-155672993D02*
G01*
X112349901Y-155787007D01*
X112442993Y-155880099D01*
X112557007Y-155945925D01*
X112620590Y-155962962D01*
X111988282Y-156595269D01*
X111988282Y-156595270D01*
X112042452Y-156634626D01*
X112042451Y-156634626D01*
X112051495Y-156639234D01*
X112102292Y-156687208D01*
X112119087Y-156755029D01*
X112096550Y-156821164D01*
X112051499Y-156860202D01*
X112042182Y-156864949D01*
X111870213Y-156989890D01*
X111719890Y-157140213D01*
X111594949Y-157312182D01*
X111590484Y-157320946D01*
X111542509Y-157371742D01*
X111474688Y-157388536D01*
X111408553Y-157365998D01*
X111369516Y-157320946D01*
X111365050Y-157312182D01*
X111240109Y-157140213D01*
X111089786Y-156989890D01*
X110917817Y-156864949D01*
X110908504Y-156860204D01*
X110857707Y-156812230D01*
X110840912Y-156744409D01*
X110863449Y-156678274D01*
X110908507Y-156639232D01*
X110917555Y-156634622D01*
X110971716Y-156595270D01*
X110971717Y-156595270D01*
X110339408Y-155962962D01*
X110402993Y-155945925D01*
X110517007Y-155880099D01*
X110610099Y-155787007D01*
X110675925Y-155672993D01*
X110692962Y-155609408D01*
X111325270Y-156241717D01*
X111325270Y-156241716D01*
X111364622Y-156187554D01*
X111369514Y-156177954D01*
X111417488Y-156127157D01*
X111485308Y-156110361D01*
X111551444Y-156132897D01*
X111590486Y-156177954D01*
X111595375Y-156187550D01*
X111634728Y-156241716D01*
X112267037Y-155609408D01*
X112284075Y-155672993D01*
G37*
%TD.AperFunction*%
%TA.AperFunction,Conductor*%
G36*
X48091444Y-153593999D02*
G01*
X48130486Y-153639056D01*
X48134951Y-153647820D01*
X48259890Y-153819786D01*
X48410213Y-153970109D01*
X48582179Y-154095048D01*
X48582181Y-154095049D01*
X48582184Y-154095051D01*
X48591493Y-154099794D01*
X48642290Y-154147766D01*
X48659087Y-154215587D01*
X48636552Y-154281722D01*
X48591505Y-154320760D01*
X48582446Y-154325376D01*
X48582440Y-154325380D01*
X48528282Y-154364727D01*
X48528282Y-154364728D01*
X49160591Y-154997037D01*
X49097007Y-155014075D01*
X48982993Y-155079901D01*
X48889901Y-155172993D01*
X48824075Y-155287007D01*
X48807037Y-155350591D01*
X48174728Y-154718282D01*
X48174727Y-154718282D01*
X48135380Y-154772440D01*
X48130483Y-154782051D01*
X48082506Y-154832845D01*
X48014684Y-154849638D01*
X47948550Y-154827098D01*
X47909516Y-154782048D01*
X47904626Y-154772452D01*
X47865270Y-154718282D01*
X47865269Y-154718282D01*
X47232962Y-155350590D01*
X47215925Y-155287007D01*
X47150099Y-155172993D01*
X47057007Y-155079901D01*
X46942993Y-155014075D01*
X46879409Y-154997037D01*
X47511716Y-154364728D01*
X47457547Y-154325373D01*
X47457547Y-154325372D01*
X47448500Y-154320763D01*
X47397706Y-154272788D01*
X47380912Y-154204966D01*
X47403451Y-154138832D01*
X47448508Y-154099793D01*
X47457816Y-154095051D01*
X47537007Y-154037515D01*
X47629786Y-153970109D01*
X47629788Y-153970106D01*
X47629792Y-153970104D01*
X47780104Y-153819792D01*
X47780106Y-153819788D01*
X47780109Y-153819786D01*
X47905048Y-153647820D01*
X47905050Y-153647817D01*
X47905051Y-153647816D01*
X47909514Y-153639054D01*
X47957488Y-153588259D01*
X48025308Y-153571463D01*
X48091444Y-153593999D01*
G37*
%TD.AperFunction*%
%TA.AperFunction,Conductor*%
G36*
X111551444Y-153593999D02*
G01*
X111590486Y-153639056D01*
X111594951Y-153647820D01*
X111719890Y-153819786D01*
X111870213Y-153970109D01*
X112042179Y-154095048D01*
X112042181Y-154095049D01*
X112042184Y-154095051D01*
X112051493Y-154099794D01*
X112102290Y-154147766D01*
X112119087Y-154215587D01*
X112096552Y-154281722D01*
X112051505Y-154320760D01*
X112042446Y-154325376D01*
X112042440Y-154325380D01*
X111988282Y-154364727D01*
X111988282Y-154364728D01*
X112620591Y-154997037D01*
X112557007Y-155014075D01*
X112442993Y-155079901D01*
X112349901Y-155172993D01*
X112284075Y-155287007D01*
X112267037Y-155350591D01*
X111634728Y-154718282D01*
X111634727Y-154718282D01*
X111595380Y-154772440D01*
X111590483Y-154782051D01*
X111542506Y-154832845D01*
X111474684Y-154849638D01*
X111408550Y-154827098D01*
X111369516Y-154782048D01*
X111364626Y-154772452D01*
X111325270Y-154718282D01*
X111325269Y-154718282D01*
X110692962Y-155350590D01*
X110675925Y-155287007D01*
X110610099Y-155172993D01*
X110517007Y-155079901D01*
X110402993Y-155014075D01*
X110339409Y-154997037D01*
X110971716Y-154364728D01*
X110917547Y-154325373D01*
X110917547Y-154325372D01*
X110908500Y-154320763D01*
X110857706Y-154272788D01*
X110840912Y-154204966D01*
X110863451Y-154138832D01*
X110908508Y-154099793D01*
X110917816Y-154095051D01*
X110997007Y-154037515D01*
X111089786Y-153970109D01*
X111089788Y-153970106D01*
X111089792Y-153970104D01*
X111240104Y-153819792D01*
X111240106Y-153819788D01*
X111240109Y-153819786D01*
X111365048Y-153647820D01*
X111365050Y-153647817D01*
X111365051Y-153647816D01*
X111369514Y-153639054D01*
X111417488Y-153588259D01*
X111485308Y-153571463D01*
X111551444Y-153593999D01*
G37*
%TD.AperFunction*%
%TA.AperFunction,Conductor*%
G36*
X123192539Y-104770185D02*
G01*
X123238294Y-104822989D01*
X123249500Y-104874500D01*
X123249500Y-181625500D01*
X123229815Y-181692539D01*
X123177011Y-181738294D01*
X123125500Y-181749500D01*
X36374500Y-181749500D01*
X36307461Y-181729815D01*
X36261706Y-181677011D01*
X36250500Y-181625500D01*
X36250500Y-179750000D01*
X38250000Y-179750000D01*
X43250000Y-179750000D01*
X116250000Y-179750000D01*
X121250000Y-179750000D01*
X121250000Y-174750000D01*
X116250000Y-174750000D01*
X116250000Y-179750000D01*
X43250000Y-179750000D01*
X43250000Y-174750000D01*
X38250000Y-174750000D01*
X38250000Y-179750000D01*
X36250500Y-179750000D01*
X36250500Y-163098543D01*
X51499499Y-163098543D01*
X51537947Y-163291829D01*
X51537950Y-163291839D01*
X51613364Y-163473907D01*
X51613371Y-163473920D01*
X51722860Y-163637781D01*
X51722863Y-163637785D01*
X51862214Y-163777136D01*
X51862218Y-163777139D01*
X52026079Y-163886628D01*
X52026092Y-163886635D01*
X52208160Y-163962049D01*
X52208165Y-163962051D01*
X52208169Y-163962051D01*
X52208170Y-163962052D01*
X52401456Y-164000500D01*
X52401459Y-164000500D01*
X52598543Y-164000500D01*
X52728582Y-163974632D01*
X52791835Y-163962051D01*
X52973914Y-163886632D01*
X53137782Y-163777139D01*
X53277139Y-163637782D01*
X53386632Y-163473914D01*
X53462051Y-163291835D01*
X53500500Y-163098541D01*
X53500500Y-156401459D01*
X53500500Y-156401456D01*
X53462052Y-156208170D01*
X53462051Y-156208169D01*
X53462051Y-156208165D01*
X53421540Y-156110361D01*
X53386635Y-156026092D01*
X53386628Y-156026079D01*
X53277139Y-155862218D01*
X53277136Y-155862214D01*
X53137785Y-155722863D01*
X53137781Y-155722860D01*
X52973920Y-155613371D01*
X52973907Y-155613364D01*
X52791839Y-155537950D01*
X52791829Y-155537947D01*
X52598543Y-155499500D01*
X52598541Y-155499500D01*
X52401459Y-155499500D01*
X52401457Y-155499500D01*
X52208170Y-155537947D01*
X52208160Y-155537950D01*
X52026092Y-155613364D01*
X52026079Y-155613371D01*
X51862218Y-155722860D01*
X51862214Y-155722863D01*
X51722863Y-155862214D01*
X51722860Y-155862218D01*
X51613371Y-156026079D01*
X51613364Y-156026092D01*
X51537950Y-156208160D01*
X51537947Y-156208170D01*
X51499500Y-156401456D01*
X51499500Y-156401459D01*
X51499500Y-163098541D01*
X51499500Y-163098543D01*
X51499499Y-163098543D01*
X36250500Y-163098543D01*
X36250500Y-146319054D01*
X39399498Y-146319054D01*
X39440424Y-146471789D01*
X39442310Y-146475054D01*
X39442314Y-146475060D01*
X39519477Y-146608712D01*
X39519481Y-146608717D01*
X39638349Y-146727585D01*
X39638355Y-146727590D01*
X45403979Y-152493215D01*
X45437464Y-152554538D01*
X45434231Y-152619209D01*
X45432754Y-152623754D01*
X45432754Y-152623755D01*
X45399500Y-152833713D01*
X45399500Y-153046286D01*
X45431965Y-153251265D01*
X45432754Y-153256243D01*
X45442937Y-153287584D01*
X45498444Y-153458414D01*
X45594951Y-153647820D01*
X45719890Y-153819786D01*
X45870213Y-153970109D01*
X46042179Y-154095048D01*
X46042181Y-154095049D01*
X46042184Y-154095051D01*
X46051493Y-154099794D01*
X46102290Y-154147766D01*
X46119087Y-154215587D01*
X46096552Y-154281722D01*
X46051505Y-154320760D01*
X46042446Y-154325376D01*
X46042440Y-154325380D01*
X45988282Y-154364727D01*
X45988282Y-154364728D01*
X46620591Y-154997037D01*
X46557007Y-155014075D01*
X46442993Y-155079901D01*
X46349901Y-155172993D01*
X46284075Y-155287007D01*
X46267037Y-155350591D01*
X45634728Y-154718282D01*
X45634727Y-154718282D01*
X45595380Y-154772439D01*
X45498904Y-154961782D01*
X45433242Y-155163869D01*
X45433242Y-155163872D01*
X45400000Y-155373753D01*
X45400000Y-155586246D01*
X45433242Y-155796127D01*
X45433242Y-155796130D01*
X45498904Y-155998217D01*
X45595375Y-156187550D01*
X45634728Y-156241716D01*
X46267037Y-155609408D01*
X46284075Y-155672993D01*
X46349901Y-155787007D01*
X46442993Y-155880099D01*
X46557007Y-155945925D01*
X46620590Y-155962962D01*
X45988282Y-156595269D01*
X45988282Y-156595270D01*
X46042452Y-156634626D01*
X46042451Y-156634626D01*
X46051495Y-156639234D01*
X46102292Y-156687208D01*
X46119087Y-156755029D01*
X46096550Y-156821164D01*
X46051499Y-156860202D01*
X46042182Y-156864949D01*
X45870213Y-156989890D01*
X45719890Y-157140213D01*
X45594951Y-157312179D01*
X45498444Y-157501585D01*
X45432753Y-157703760D01*
X45399500Y-157913713D01*
X45399500Y-158126286D01*
X45432753Y-158336239D01*
X45498444Y-158538414D01*
X45594951Y-158727820D01*
X45719890Y-158899786D01*
X45870213Y-159050109D01*
X46042182Y-159175050D01*
X46050946Y-159179516D01*
X46101742Y-159227491D01*
X46118536Y-159295312D01*
X46095998Y-159361447D01*
X46050946Y-159400484D01*
X46042182Y-159404949D01*
X45870213Y-159529890D01*
X45719890Y-159680213D01*
X45594951Y-159852179D01*
X45498444Y-160041585D01*
X45432753Y-160243760D01*
X45399500Y-160453713D01*
X45399500Y-160666286D01*
X45432753Y-160876239D01*
X45498444Y-161078414D01*
X45594951Y-161267820D01*
X45719890Y-161439786D01*
X45870213Y-161590109D01*
X46042179Y-161715048D01*
X46042181Y-161715049D01*
X46042184Y-161715051D01*
X46231588Y-161811557D01*
X46433757Y-161877246D01*
X46643713Y-161910500D01*
X46643714Y-161910500D01*
X46856286Y-161910500D01*
X46856287Y-161910500D01*
X47066243Y-161877246D01*
X47268412Y-161811557D01*
X47457816Y-161715051D01*
X47479789Y-161699086D01*
X47629786Y-161590109D01*
X47629788Y-161590106D01*
X47629792Y-161590104D01*
X47780104Y-161439792D01*
X47780106Y-161439788D01*
X47780109Y-161439786D01*
X47905048Y-161267820D01*
X47905047Y-161267820D01*
X47905051Y-161267816D01*
X47909514Y-161259054D01*
X47957488Y-161208259D01*
X48025308Y-161191463D01*
X48091444Y-161213999D01*
X48130486Y-161259056D01*
X48134951Y-161267820D01*
X48259890Y-161439786D01*
X48410213Y-161590109D01*
X48582179Y-161715048D01*
X48582181Y-161715049D01*
X48582184Y-161715051D01*
X48771588Y-161811557D01*
X48973757Y-161877246D01*
X49183713Y-161910500D01*
X49183714Y-161910500D01*
X49396286Y-161910500D01*
X49396287Y-161910500D01*
X49606243Y-161877246D01*
X49808412Y-161811557D01*
X49997816Y-161715051D01*
X50019789Y-161699086D01*
X50169786Y-161590109D01*
X50169788Y-161590106D01*
X50169792Y-161590104D01*
X50320104Y-161439792D01*
X50320106Y-161439788D01*
X50320109Y-161439786D01*
X50445048Y-161267820D01*
X50445047Y-161267820D01*
X50445051Y-161267816D01*
X50541557Y-161078412D01*
X50607246Y-160876243D01*
X50640500Y-160666287D01*
X50640500Y-160453713D01*
X50607246Y-160243757D01*
X50541557Y-160041588D01*
X50445051Y-159852184D01*
X50445049Y-159852181D01*
X50445048Y-159852179D01*
X50320109Y-159680213D01*
X50169786Y-159529890D01*
X49997820Y-159404951D01*
X49997115Y-159404591D01*
X49989054Y-159400485D01*
X49938259Y-159352512D01*
X49921463Y-159284692D01*
X49943999Y-159218556D01*
X49989054Y-159179515D01*
X49997816Y-159175051D01*
X50019789Y-159159086D01*
X50169786Y-159050109D01*
X50169788Y-159050106D01*
X50169792Y-159050104D01*
X50320104Y-158899792D01*
X50320106Y-158899788D01*
X50320109Y-158899786D01*
X50445048Y-158727820D01*
X50445047Y-158727820D01*
X50445051Y-158727816D01*
X50541557Y-158538412D01*
X50607246Y-158336243D01*
X50640500Y-158126287D01*
X50640500Y-157913713D01*
X50607246Y-157703757D01*
X50541557Y-157501588D01*
X50445051Y-157312184D01*
X50445049Y-157312181D01*
X50445048Y-157312179D01*
X50320109Y-157140213D01*
X50169786Y-156989890D01*
X49997817Y-156864949D01*
X49988504Y-156860204D01*
X49937707Y-156812230D01*
X49920912Y-156744409D01*
X49943449Y-156678274D01*
X49988507Y-156639232D01*
X49997555Y-156634622D01*
X50051716Y-156595270D01*
X50051717Y-156595270D01*
X49939495Y-156483048D01*
X49419408Y-155962962D01*
X49482993Y-155945925D01*
X49597007Y-155880099D01*
X49690099Y-155787007D01*
X49755925Y-155672993D01*
X49772962Y-155609409D01*
X50405270Y-156241717D01*
X50405270Y-156241716D01*
X50444622Y-156187554D01*
X50541095Y-155998217D01*
X50606757Y-155796130D01*
X50606757Y-155796127D01*
X50640000Y-155586246D01*
X50640000Y-155373753D01*
X50606757Y-155163872D01*
X50606757Y-155163869D01*
X50541095Y-154961782D01*
X50444624Y-154772449D01*
X50405270Y-154718282D01*
X49772962Y-155350590D01*
X49755925Y-155287007D01*
X49690099Y-155172993D01*
X49597007Y-155079901D01*
X49482993Y-155014075D01*
X49419409Y-154997037D01*
X50051716Y-154364728D01*
X49997547Y-154325373D01*
X49997547Y-154325372D01*
X49988500Y-154320763D01*
X49937706Y-154272788D01*
X49920912Y-154204966D01*
X49943451Y-154138832D01*
X49988508Y-154099793D01*
X49997816Y-154095051D01*
X50077007Y-154037515D01*
X50169786Y-153970109D01*
X50169788Y-153970106D01*
X50169792Y-153970104D01*
X50320104Y-153819792D01*
X50320106Y-153819788D01*
X50320109Y-153819786D01*
X50447915Y-153643875D01*
X50449259Y-153644851D01*
X50495705Y-153602834D01*
X50549618Y-153590500D01*
X53788903Y-153590500D01*
X53818343Y-153599144D01*
X53848330Y-153605668D01*
X53853345Y-153609422D01*
X53855942Y-153610185D01*
X53876584Y-153626819D01*
X53962181Y-153712416D01*
X53995666Y-153773739D01*
X53998500Y-153800097D01*
X53998500Y-163262330D01*
X53998499Y-163262348D01*
X53998499Y-163428054D01*
X53998498Y-163428054D01*
X54010787Y-163473914D01*
X54039423Y-163580785D01*
X54061905Y-163619724D01*
X54099621Y-163685052D01*
X54118479Y-163717715D01*
X54237349Y-163836585D01*
X54237355Y-163836590D01*
X63442639Y-173041874D01*
X63442649Y-173041885D01*
X63446979Y-173046215D01*
X63446980Y-173046216D01*
X63558784Y-173158020D01*
X63645595Y-173208139D01*
X63645597Y-173208141D01*
X63695713Y-173237076D01*
X63695715Y-173237077D01*
X63848442Y-173278000D01*
X63848443Y-173278000D01*
X64670234Y-173278000D01*
X64737273Y-173297685D01*
X64739125Y-173298898D01*
X64870814Y-173386890D01*
X64870827Y-173386897D01*
X64961101Y-173424289D01*
X65016503Y-173447237D01*
X65171153Y-173477999D01*
X65171156Y-173478000D01*
X65171158Y-173478000D01*
X65328843Y-173478000D01*
X65345104Y-173474765D01*
X65426420Y-173458590D01*
X65496009Y-173464817D01*
X65538290Y-173492525D01*
X70526284Y-178480520D01*
X70526286Y-178480521D01*
X70526290Y-178480524D01*
X70663209Y-178559573D01*
X70663216Y-178559577D01*
X70815943Y-178600501D01*
X70815945Y-178600501D01*
X70981654Y-178600501D01*
X70981670Y-178600500D01*
X98413331Y-178600500D01*
X98413347Y-178600501D01*
X98420943Y-178600501D01*
X98579054Y-178600501D01*
X98579057Y-178600501D01*
X98731785Y-178559577D01*
X98781904Y-178530639D01*
X98868716Y-178480520D01*
X98980520Y-178368716D01*
X98980521Y-178368714D01*
X99480520Y-177868716D01*
X99559577Y-177731784D01*
X99600501Y-177579057D01*
X99600501Y-177420942D01*
X99600501Y-177413347D01*
X99600500Y-177413329D01*
X99600500Y-155300097D01*
X99620185Y-155233058D01*
X99636819Y-155212416D01*
X101212416Y-153636819D01*
X101273739Y-153603334D01*
X101300097Y-153600500D01*
X107913331Y-153600500D01*
X107913347Y-153600501D01*
X107920943Y-153600501D01*
X108079055Y-153600501D01*
X108079057Y-153600501D01*
X108212572Y-153564724D01*
X108244666Y-153560500D01*
X108934472Y-153560500D01*
X109001511Y-153580185D01*
X109044957Y-153628206D01*
X109054949Y-153647817D01*
X109179890Y-153819786D01*
X109330213Y-153970109D01*
X109502179Y-154095048D01*
X109502181Y-154095049D01*
X109502184Y-154095051D01*
X109511493Y-154099794D01*
X109562290Y-154147766D01*
X109579087Y-154215587D01*
X109556552Y-154281722D01*
X109511505Y-154320760D01*
X109502446Y-154325376D01*
X109502440Y-154325380D01*
X109448282Y-154364727D01*
X109448282Y-154364728D01*
X110080591Y-154997037D01*
X110017007Y-155014075D01*
X109902993Y-155079901D01*
X109809901Y-155172993D01*
X109744075Y-155287007D01*
X109727037Y-155350591D01*
X109094728Y-154718282D01*
X109094727Y-154718282D01*
X109055380Y-154772439D01*
X108958904Y-154961782D01*
X108893242Y-155163869D01*
X108893242Y-155163872D01*
X108860000Y-155373753D01*
X108860000Y-155586246D01*
X108893242Y-155796127D01*
X108893242Y-155796130D01*
X108958904Y-155998217D01*
X109055375Y-156187550D01*
X109094728Y-156241716D01*
X109727037Y-155609408D01*
X109744075Y-155672993D01*
X109809901Y-155787007D01*
X109902993Y-155880099D01*
X110017007Y-155945925D01*
X110080590Y-155962962D01*
X109448282Y-156595269D01*
X109448282Y-156595270D01*
X109502452Y-156634626D01*
X109502451Y-156634626D01*
X109511495Y-156639234D01*
X109562292Y-156687208D01*
X109579087Y-156755029D01*
X109556550Y-156821164D01*
X109511499Y-156860202D01*
X109502182Y-156864949D01*
X109330213Y-156989890D01*
X109179890Y-157140213D01*
X109054951Y-157312179D01*
X108958444Y-157501585D01*
X108892753Y-157703760D01*
X108859500Y-157913713D01*
X108859500Y-158126286D01*
X108892753Y-158336239D01*
X108958444Y-158538414D01*
X109054951Y-158727820D01*
X109179890Y-158899786D01*
X109330209Y-159050105D01*
X109335106Y-159053663D01*
X109377771Y-159108994D01*
X109383750Y-159178607D01*
X109351144Y-159240402D01*
X109301229Y-159271685D01*
X109290673Y-159275183D01*
X109290663Y-159275187D01*
X109141342Y-159367289D01*
X109017289Y-159491342D01*
X108925187Y-159640663D01*
X108925185Y-159640668D01*
X108912083Y-159680208D01*
X108870001Y-159807203D01*
X108870001Y-159807204D01*
X108870000Y-159807204D01*
X108859500Y-159909983D01*
X108859500Y-161210001D01*
X108859501Y-161210018D01*
X108870000Y-161312796D01*
X108870001Y-161312799D01*
X108893763Y-161384507D01*
X108925186Y-161479334D01*
X109017288Y-161628656D01*
X109141344Y-161752712D01*
X109290666Y-161844814D01*
X109457203Y-161899999D01*
X109559991Y-161910500D01*
X110860008Y-161910499D01*
X110962797Y-161899999D01*
X111129334Y-161844814D01*
X111278656Y-161752712D01*
X111402712Y-161628656D01*
X111494814Y-161479334D01*
X111498312Y-161468775D01*
X111538082Y-161411332D01*
X111602598Y-161384507D01*
X111671374Y-161396821D01*
X111716334Y-161434891D01*
X111719890Y-161439785D01*
X111719894Y-161439790D01*
X111870213Y-161590109D01*
X112042179Y-161715048D01*
X112042181Y-161715049D01*
X112042184Y-161715051D01*
X112231588Y-161811557D01*
X112433757Y-161877246D01*
X112643713Y-161910500D01*
X112643714Y-161910500D01*
X112856286Y-161910500D01*
X112856287Y-161910500D01*
X113066243Y-161877246D01*
X113268412Y-161811557D01*
X113457816Y-161715051D01*
X113479789Y-161699086D01*
X113629786Y-161590109D01*
X113629788Y-161590106D01*
X113629792Y-161590104D01*
X113780104Y-161439792D01*
X113780106Y-161439788D01*
X113780109Y-161439786D01*
X113905048Y-161267820D01*
X113905047Y-161267820D01*
X113905051Y-161267816D01*
X114001557Y-161078412D01*
X114067246Y-160876243D01*
X114100500Y-160666287D01*
X114100500Y-160453713D01*
X114067246Y-160243757D01*
X114001557Y-160041588D01*
X113905051Y-159852184D01*
X113905049Y-159852181D01*
X113905048Y-159852179D01*
X113780109Y-159680213D01*
X113629786Y-159529890D01*
X113457820Y-159404951D01*
X113457115Y-159404591D01*
X113449054Y-159400485D01*
X113398259Y-159352512D01*
X113381463Y-159284692D01*
X113403999Y-159218556D01*
X113449054Y-159179515D01*
X113457816Y-159175051D01*
X113479789Y-159159086D01*
X113629786Y-159050109D01*
X113629788Y-159050106D01*
X113629792Y-159050104D01*
X113780104Y-158899792D01*
X113780106Y-158899788D01*
X113780109Y-158899786D01*
X113905048Y-158727820D01*
X113905047Y-158727820D01*
X113905051Y-158727816D01*
X114001557Y-158538412D01*
X114067246Y-158336243D01*
X114100500Y-158126287D01*
X114100500Y-157913713D01*
X114067246Y-157703757D01*
X114001557Y-157501588D01*
X113905051Y-157312184D01*
X113905049Y-157312181D01*
X113905048Y-157312179D01*
X113780109Y-157140213D01*
X113629786Y-156989890D01*
X113457817Y-156864949D01*
X113448504Y-156860204D01*
X113397707Y-156812230D01*
X113380912Y-156744409D01*
X113403449Y-156678274D01*
X113448507Y-156639232D01*
X113457555Y-156634622D01*
X113511716Y-156595270D01*
X113511717Y-156595270D01*
X112879408Y-155962962D01*
X112942993Y-155945925D01*
X113057007Y-155880099D01*
X113150099Y-155787007D01*
X113215925Y-155672993D01*
X113232962Y-155609408D01*
X113865270Y-156241717D01*
X113865270Y-156241716D01*
X113904622Y-156187554D01*
X114001095Y-155998217D01*
X114066757Y-155796130D01*
X114066757Y-155796127D01*
X114100000Y-155586246D01*
X114100000Y-155373753D01*
X114066757Y-155163872D01*
X114066757Y-155163869D01*
X114001095Y-154961782D01*
X113904624Y-154772449D01*
X113865270Y-154718282D01*
X113232962Y-155350590D01*
X113215925Y-155287007D01*
X113150099Y-155172993D01*
X113057007Y-155079901D01*
X112942993Y-155014075D01*
X112879409Y-154997037D01*
X113511716Y-154364728D01*
X113457547Y-154325373D01*
X113457547Y-154325372D01*
X113448500Y-154320763D01*
X113397706Y-154272788D01*
X113380912Y-154204966D01*
X113403451Y-154138832D01*
X113448508Y-154099793D01*
X113457816Y-154095051D01*
X113537007Y-154037515D01*
X113629786Y-153970109D01*
X113629788Y-153970106D01*
X113629792Y-153970104D01*
X113780104Y-153819792D01*
X113780106Y-153819788D01*
X113780109Y-153819786D01*
X113905048Y-153647820D01*
X113905050Y-153647817D01*
X113905051Y-153647816D01*
X114001557Y-153458412D01*
X114067246Y-153256243D01*
X114100500Y-153046287D01*
X114100500Y-152833713D01*
X114067246Y-152623757D01*
X114067244Y-152623752D01*
X114067244Y-152623749D01*
X114056574Y-152590911D01*
X114054577Y-152521070D01*
X114086821Y-152464912D01*
X119858506Y-146693228D01*
X119858511Y-146693224D01*
X119868714Y-146683020D01*
X119868716Y-146683020D01*
X119980520Y-146571216D01*
X120044397Y-146460577D01*
X120059577Y-146434285D01*
X120100500Y-146281557D01*
X120100500Y-146123443D01*
X120100500Y-115339060D01*
X120100501Y-115339047D01*
X120100501Y-115170944D01*
X120098506Y-115163497D01*
X120059577Y-115018216D01*
X120054165Y-115008842D01*
X119980524Y-114881290D01*
X119980518Y-114881282D01*
X118699736Y-113600500D01*
X116977237Y-111878002D01*
X116943753Y-111816680D01*
X116948737Y-111746988D01*
X116990609Y-111691055D01*
X117056073Y-111666638D01*
X117067386Y-111666347D01*
X121250000Y-111750000D01*
X121250000Y-106750000D01*
X121249999Y-106749999D01*
X116250000Y-106649999D01*
X116250000Y-110851402D01*
X116230315Y-110918441D01*
X116177511Y-110964196D01*
X116108353Y-110974140D01*
X116044797Y-110945115D01*
X116038319Y-110939083D01*
X113737590Y-108638355D01*
X113737588Y-108638352D01*
X113618717Y-108519481D01*
X113618716Y-108519480D01*
X113531904Y-108469360D01*
X113531904Y-108469359D01*
X113531900Y-108469358D01*
X113481785Y-108440423D01*
X113329057Y-108399499D01*
X113170943Y-108399499D01*
X113163347Y-108399499D01*
X113163331Y-108399500D01*
X74086670Y-108399500D01*
X74086654Y-108399499D01*
X74079058Y-108399499D01*
X73920943Y-108399499D01*
X73844579Y-108419961D01*
X73768214Y-108440423D01*
X73768209Y-108440426D01*
X73631290Y-108519475D01*
X73631282Y-108519481D01*
X68485339Y-113665425D01*
X68424016Y-113698910D01*
X68421850Y-113699361D01*
X68266508Y-113730261D01*
X68266498Y-113730264D01*
X68120827Y-113790602D01*
X68120814Y-113790609D01*
X67989711Y-113878210D01*
X67989707Y-113878213D01*
X67878213Y-113989707D01*
X67878210Y-113989711D01*
X67790609Y-114120814D01*
X67790602Y-114120827D01*
X67730264Y-114266498D01*
X67730261Y-114266508D01*
X67699362Y-114421848D01*
X67666977Y-114483759D01*
X67665427Y-114485337D01*
X67589479Y-114561285D01*
X67589478Y-114561287D01*
X67543292Y-114641284D01*
X67510424Y-114698212D01*
X67510423Y-114698213D01*
X67492933Y-114763489D01*
X67469499Y-114850943D01*
X67469499Y-114850945D01*
X67469499Y-115019046D01*
X67469500Y-115019059D01*
X67469500Y-115129902D01*
X67449815Y-115196941D01*
X67433185Y-115217578D01*
X67287582Y-115363182D01*
X67226262Y-115396666D01*
X67199903Y-115399500D01*
X43086670Y-115399500D01*
X43086654Y-115399499D01*
X43079058Y-115399499D01*
X42920943Y-115399499D01*
X42844579Y-115419961D01*
X42768214Y-115440423D01*
X42768209Y-115440426D01*
X42631290Y-115519475D01*
X42631282Y-115519481D01*
X39519481Y-118631282D01*
X39519479Y-118631285D01*
X39469361Y-118718094D01*
X39469359Y-118718096D01*
X39440425Y-118768209D01*
X39440424Y-118768210D01*
X39440423Y-118768215D01*
X39399499Y-118920943D01*
X39399499Y-119079057D01*
X39399499Y-119079059D01*
X39399500Y-119089053D01*
X39399500Y-146153330D01*
X39399499Y-146153348D01*
X39399499Y-146319054D01*
X39399498Y-146319054D01*
X36250500Y-146319054D01*
X36250500Y-111750000D01*
X38264104Y-111750000D01*
X43264104Y-111750000D01*
X43264104Y-106750000D01*
X38264104Y-106750000D01*
X38264104Y-111750000D01*
X36250500Y-111750000D01*
X36250500Y-104874500D01*
X36270185Y-104807461D01*
X36322989Y-104761706D01*
X36374500Y-104750500D01*
X123125500Y-104750500D01*
X123192539Y-104770185D01*
G37*
%TD.AperFunction*%
%TD*%
%TA.AperFunction,NonConductor*%
G36*
X69588834Y-114362915D02*
G01*
X69644767Y-114404787D01*
X69669184Y-114470251D01*
X69669500Y-114479097D01*
X69669500Y-114608846D01*
X69700261Y-114763489D01*
X69700264Y-114763501D01*
X69760602Y-114909172D01*
X69760609Y-114909185D01*
X69848602Y-115040874D01*
X69869480Y-115107551D01*
X69869500Y-115109765D01*
X69869500Y-115729903D01*
X69860855Y-115759343D01*
X69854332Y-115789330D01*
X69850577Y-115794345D01*
X69849815Y-115796942D01*
X69833181Y-115817584D01*
X69787584Y-115863181D01*
X69726261Y-115896666D01*
X69699903Y-115899500D01*
X68707106Y-115899500D01*
X68640067Y-115879815D01*
X68594312Y-115827011D01*
X68584368Y-115757853D01*
X68599719Y-115713500D01*
X68607145Y-115700638D01*
X68629577Y-115661784D01*
X68670501Y-115509057D01*
X68670501Y-115378685D01*
X68690186Y-115311646D01*
X68742990Y-115265891D01*
X68747049Y-115264124D01*
X68879172Y-115209397D01*
X68879172Y-115209396D01*
X68879179Y-115209394D01*
X69010289Y-115121789D01*
X69121789Y-115010289D01*
X69209394Y-114879179D01*
X69269737Y-114733497D01*
X69300500Y-114578842D01*
X69300638Y-114578150D01*
X69309402Y-114561393D01*
X69313423Y-114542914D01*
X69332168Y-114517872D01*
X69333023Y-114516239D01*
X69334466Y-114514768D01*
X69457821Y-114391413D01*
X69519142Y-114357931D01*
X69588834Y-114362915D01*
G37*
%TD.AperFunction*%
%TA.AperFunction,NonConductor*%
G36*
X76877941Y-110120185D02*
G01*
X76923696Y-110172989D01*
X76933640Y-110242147D01*
X76904615Y-110305703D01*
X76898583Y-110312181D01*
X73140339Y-114070425D01*
X73079016Y-114103910D01*
X73076850Y-114104361D01*
X72921508Y-114135261D01*
X72921498Y-114135264D01*
X72775827Y-114195602D01*
X72775814Y-114195609D01*
X72644711Y-114283210D01*
X72644707Y-114283213D01*
X72533213Y-114394707D01*
X72533210Y-114394711D01*
X72445609Y-114525814D01*
X72445602Y-114525827D01*
X72385264Y-114671498D01*
X72385261Y-114671508D01*
X72354361Y-114826850D01*
X72321976Y-114888761D01*
X72320425Y-114890339D01*
X71282181Y-115928583D01*
X71220858Y-115962068D01*
X71151166Y-115957084D01*
X71095233Y-115915212D01*
X71070816Y-115849748D01*
X71070500Y-115840902D01*
X71070500Y-115109765D01*
X71090185Y-115042726D01*
X71091398Y-115040874D01*
X71096325Y-115033501D01*
X71179394Y-114909179D01*
X71179677Y-114908497D01*
X71197834Y-114864660D01*
X71239737Y-114763497D01*
X71264935Y-114636819D01*
X71270638Y-114608150D01*
X71303023Y-114546239D01*
X71304518Y-114544716D01*
X75712416Y-110136819D01*
X75773739Y-110103334D01*
X75800097Y-110100500D01*
X76810902Y-110100500D01*
X76877941Y-110120185D01*
G37*
%TD.AperFunction*%
%TA.AperFunction,NonConductor*%
G36*
X78917942Y-110620185D02*
G01*
X78963697Y-110672989D01*
X78973641Y-110742147D01*
X78944616Y-110805703D01*
X78938584Y-110812181D01*
X75785339Y-113965425D01*
X75724016Y-113998910D01*
X75721850Y-113999361D01*
X75566508Y-114030261D01*
X75566498Y-114030264D01*
X75420827Y-114090602D01*
X75420814Y-114090609D01*
X75289711Y-114178210D01*
X75289707Y-114178213D01*
X75178213Y-114289707D01*
X75178210Y-114289711D01*
X75090609Y-114420814D01*
X75090602Y-114420827D01*
X75030264Y-114566498D01*
X75030261Y-114566508D01*
X74999361Y-114721850D01*
X74966976Y-114783761D01*
X74965425Y-114785339D01*
X72887584Y-116863181D01*
X72826261Y-116896666D01*
X72799903Y-116899500D01*
X72309097Y-116899500D01*
X72242058Y-116879815D01*
X72196303Y-116827011D01*
X72186359Y-116757853D01*
X72215384Y-116694297D01*
X72221416Y-116687819D01*
X73169662Y-115739572D01*
X73230983Y-115706089D01*
X73233150Y-115705638D01*
X73291085Y-115694113D01*
X73388497Y-115674737D01*
X73534179Y-115614394D01*
X73665289Y-115526789D01*
X73776789Y-115415289D01*
X73864394Y-115284179D01*
X73874290Y-115260289D01*
X73905355Y-115185289D01*
X73924737Y-115138497D01*
X73948495Y-115019059D01*
X73955638Y-114983150D01*
X73988023Y-114921239D01*
X73989518Y-114919716D01*
X78272417Y-110636819D01*
X78333740Y-110603334D01*
X78360098Y-110600500D01*
X78850903Y-110600500D01*
X78917942Y-110620185D01*
G37*
%TD.AperFunction*%
%TA.AperFunction,NonConductor*%
G36*
X80817942Y-111120185D02*
G01*
X80863697Y-111172989D01*
X80873641Y-111242147D01*
X80844616Y-111305703D01*
X80838584Y-111312181D01*
X78235339Y-113915425D01*
X78174016Y-113948910D01*
X78171850Y-113949361D01*
X78016508Y-113980261D01*
X78016498Y-113980264D01*
X77870827Y-114040602D01*
X77870814Y-114040609D01*
X77739711Y-114128210D01*
X77739707Y-114128213D01*
X77628213Y-114239707D01*
X77628210Y-114239711D01*
X77540609Y-114370814D01*
X77540602Y-114370827D01*
X77480264Y-114516498D01*
X77480261Y-114516508D01*
X77449362Y-114671848D01*
X77416977Y-114733759D01*
X77415426Y-114735337D01*
X74787584Y-117363181D01*
X74726261Y-117396666D01*
X74699903Y-117399500D01*
X74349097Y-117399500D01*
X74282058Y-117379815D01*
X74236303Y-117327011D01*
X74226359Y-117257853D01*
X74255384Y-117194297D01*
X74261416Y-117187819D01*
X74761416Y-116687819D01*
X75814662Y-115634572D01*
X75875983Y-115601089D01*
X75878150Y-115600638D01*
X75936085Y-115589113D01*
X76033497Y-115569737D01*
X76154841Y-115519475D01*
X76179172Y-115509397D01*
X76179172Y-115509396D01*
X76179179Y-115509394D01*
X76310289Y-115421789D01*
X76421789Y-115310289D01*
X76509394Y-115179179D01*
X76512806Y-115170943D01*
X76530102Y-115129185D01*
X76569737Y-115033497D01*
X76593555Y-114913759D01*
X76600638Y-114878150D01*
X76633023Y-114816239D01*
X76634518Y-114814716D01*
X80312416Y-111136819D01*
X80373739Y-111103334D01*
X80400097Y-111100500D01*
X80750903Y-111100500D01*
X80817942Y-111120185D01*
G37*
%TD.AperFunction*%
%TA.AperFunction,NonConductor*%
G36*
X82917942Y-111620185D02*
G01*
X82963697Y-111672989D01*
X82973641Y-111742147D01*
X82944616Y-111805703D01*
X82938584Y-111812181D01*
X80910339Y-113840425D01*
X80849016Y-113873910D01*
X80846850Y-113874361D01*
X80691508Y-113905261D01*
X80691498Y-113905264D01*
X80545827Y-113965602D01*
X80545814Y-113965609D01*
X80414711Y-114053210D01*
X80414707Y-114053213D01*
X80303213Y-114164707D01*
X80303210Y-114164711D01*
X80215609Y-114295814D01*
X80215602Y-114295827D01*
X80155264Y-114441498D01*
X80155261Y-114441508D01*
X80124361Y-114596850D01*
X80091976Y-114658761D01*
X80090425Y-114660339D01*
X76887584Y-117863181D01*
X76826261Y-117896666D01*
X76799903Y-117899500D01*
X76249097Y-117899500D01*
X76182058Y-117879815D01*
X76136303Y-117827011D01*
X76126359Y-117757853D01*
X76155384Y-117694297D01*
X76161416Y-117687819D01*
X77091382Y-116757853D01*
X78264664Y-115584571D01*
X78325985Y-115551088D01*
X78328152Y-115550637D01*
X78328841Y-115550500D01*
X78328842Y-115550500D01*
X78483497Y-115519737D01*
X78629179Y-115459394D01*
X78760289Y-115371789D01*
X78871789Y-115260289D01*
X78959394Y-115129179D01*
X78967436Y-115109765D01*
X79008640Y-115010288D01*
X79019737Y-114983497D01*
X79046061Y-114851158D01*
X79050638Y-114828150D01*
X79083023Y-114766239D01*
X79084518Y-114764716D01*
X82212416Y-111636819D01*
X82273739Y-111603334D01*
X82300097Y-111600500D01*
X82850903Y-111600500D01*
X82917942Y-111620185D01*
G37*
%TD.AperFunction*%
%TA.AperFunction,NonConductor*%
G36*
X84917942Y-112120185D02*
G01*
X84963697Y-112172989D01*
X84973641Y-112242147D01*
X84944616Y-112305703D01*
X84938584Y-112312181D01*
X83410339Y-113840425D01*
X83349016Y-113873910D01*
X83346850Y-113874361D01*
X83191508Y-113905261D01*
X83191498Y-113905264D01*
X83045827Y-113965602D01*
X83045814Y-113965609D01*
X82914711Y-114053210D01*
X82914707Y-114053213D01*
X82803213Y-114164707D01*
X82803210Y-114164711D01*
X82715609Y-114295814D01*
X82715602Y-114295827D01*
X82655264Y-114441498D01*
X82655261Y-114441508D01*
X82624361Y-114596850D01*
X82591976Y-114658761D01*
X82590425Y-114660339D01*
X78887584Y-118363181D01*
X78826261Y-118396666D01*
X78799903Y-118399500D01*
X78349097Y-118399500D01*
X78282058Y-118379815D01*
X78236303Y-118327011D01*
X78226359Y-118257853D01*
X78255384Y-118194297D01*
X78261416Y-118187819D01*
X79586054Y-116863181D01*
X80939662Y-115509572D01*
X81000983Y-115476089D01*
X81003150Y-115475638D01*
X81061085Y-115464113D01*
X81158497Y-115444737D01*
X81304179Y-115384394D01*
X81435289Y-115296789D01*
X81546789Y-115185289D01*
X81634394Y-115054179D01*
X81694737Y-114908497D01*
X81721918Y-114771850D01*
X81725638Y-114753150D01*
X81758023Y-114691239D01*
X81759518Y-114689716D01*
X84312416Y-112136819D01*
X84373739Y-112103334D01*
X84400097Y-112100500D01*
X84850903Y-112100500D01*
X84917942Y-112120185D01*
G37*
%TD.AperFunction*%
%TA.AperFunction,NonConductor*%
G36*
X87017942Y-112620185D02*
G01*
X87063697Y-112672989D01*
X87073641Y-112742147D01*
X87044616Y-112805703D01*
X87038584Y-112812181D01*
X85835339Y-114015425D01*
X85774016Y-114048910D01*
X85771850Y-114049361D01*
X85616508Y-114080261D01*
X85616498Y-114080264D01*
X85470827Y-114140602D01*
X85470814Y-114140609D01*
X85339711Y-114228210D01*
X85339707Y-114228213D01*
X85228213Y-114339707D01*
X85228210Y-114339711D01*
X85140609Y-114470814D01*
X85140602Y-114470827D01*
X85080264Y-114616498D01*
X85080261Y-114616508D01*
X85049361Y-114771850D01*
X85016976Y-114833761D01*
X85015425Y-114835339D01*
X80987584Y-118863181D01*
X80926261Y-118896666D01*
X80899903Y-118899500D01*
X80349097Y-118899500D01*
X80282058Y-118879815D01*
X80236303Y-118827011D01*
X80226359Y-118757853D01*
X80255384Y-118694297D01*
X80261416Y-118687819D01*
X81761416Y-117187819D01*
X83439662Y-115509572D01*
X83500983Y-115476089D01*
X83503150Y-115475638D01*
X83561085Y-115464113D01*
X83658497Y-115444737D01*
X83804179Y-115384394D01*
X83935289Y-115296789D01*
X84046789Y-115185289D01*
X84134394Y-115054179D01*
X84194737Y-114908497D01*
X84221918Y-114771850D01*
X84225638Y-114753150D01*
X84258023Y-114691239D01*
X84259518Y-114689716D01*
X86312416Y-112636819D01*
X86373739Y-112603334D01*
X86400097Y-112600500D01*
X86950903Y-112600500D01*
X87017942Y-112620185D01*
G37*
%TD.AperFunction*%
%TA.AperFunction,NonConductor*%
G36*
X89017942Y-113120185D02*
G01*
X89063697Y-113172989D01*
X89073641Y-113242147D01*
X89044616Y-113305703D01*
X89038584Y-113312181D01*
X88335339Y-114015425D01*
X88274016Y-114048910D01*
X88271850Y-114049361D01*
X88116508Y-114080261D01*
X88116498Y-114080264D01*
X87970827Y-114140602D01*
X87970814Y-114140609D01*
X87839711Y-114228210D01*
X87839707Y-114228213D01*
X87728213Y-114339707D01*
X87728210Y-114339711D01*
X87640609Y-114470814D01*
X87640602Y-114470827D01*
X87580264Y-114616498D01*
X87580261Y-114616508D01*
X87549362Y-114771848D01*
X87516977Y-114833759D01*
X87515426Y-114835337D01*
X82987584Y-119363181D01*
X82926261Y-119396666D01*
X82899903Y-119399500D01*
X82449097Y-119399500D01*
X82382058Y-119379815D01*
X82336303Y-119327011D01*
X82326359Y-119257853D01*
X82355384Y-119194297D01*
X82361416Y-119187819D01*
X83861416Y-117687819D01*
X85864662Y-115684572D01*
X85925983Y-115651089D01*
X85928150Y-115650638D01*
X85986085Y-115639113D01*
X86083497Y-115619737D01*
X86229179Y-115559394D01*
X86360289Y-115471789D01*
X86471789Y-115360289D01*
X86559394Y-115229179D01*
X86619737Y-115083497D01*
X86640692Y-114978150D01*
X86650638Y-114928150D01*
X86683023Y-114866239D01*
X86684518Y-114864716D01*
X88412416Y-113136819D01*
X88473739Y-113103334D01*
X88500097Y-113100500D01*
X88950903Y-113100500D01*
X89017942Y-113120185D01*
G37*
%TD.AperFunction*%
%TA.AperFunction,NonConductor*%
G36*
X91017942Y-113620185D02*
G01*
X91063697Y-113672989D01*
X91073641Y-113742147D01*
X91044616Y-113805703D01*
X91038584Y-113812181D01*
X90755339Y-114095425D01*
X90694016Y-114128910D01*
X90691850Y-114129361D01*
X90536508Y-114160261D01*
X90536498Y-114160264D01*
X90390827Y-114220602D01*
X90390814Y-114220609D01*
X90259711Y-114308210D01*
X90259707Y-114308213D01*
X90148213Y-114419707D01*
X90148210Y-114419711D01*
X90060609Y-114550814D01*
X90060602Y-114550827D01*
X90000264Y-114696498D01*
X90000261Y-114696508D01*
X89969362Y-114851848D01*
X89936977Y-114913759D01*
X89935426Y-114915337D01*
X84987584Y-119863181D01*
X84926261Y-119896666D01*
X84899903Y-119899500D01*
X84449097Y-119899500D01*
X84382058Y-119879815D01*
X84336303Y-119827011D01*
X84326359Y-119757853D01*
X84355384Y-119694297D01*
X84361416Y-119687819D01*
X86222224Y-117827011D01*
X88364664Y-115684571D01*
X88425985Y-115651088D01*
X88428152Y-115650637D01*
X88428841Y-115650500D01*
X88428842Y-115650500D01*
X88583497Y-115619737D01*
X88729179Y-115559394D01*
X88860289Y-115471789D01*
X88971789Y-115360289D01*
X89059394Y-115229179D01*
X89119737Y-115083497D01*
X89140692Y-114978150D01*
X89150638Y-114928150D01*
X89183023Y-114866239D01*
X89184518Y-114864716D01*
X90412416Y-113636819D01*
X90473739Y-113603334D01*
X90500097Y-113600500D01*
X90950903Y-113600500D01*
X91017942Y-113620185D01*
G37*
%TD.AperFunction*%
%TA.AperFunction,NonConductor*%
G36*
X92835098Y-114120185D02*
G01*
X92880853Y-114172989D01*
X92890797Y-114242147D01*
X92861772Y-114305703D01*
X92855740Y-114312181D01*
X92778213Y-114389707D01*
X92778210Y-114389711D01*
X92690609Y-114520814D01*
X92690602Y-114520827D01*
X92630264Y-114666498D01*
X92630261Y-114666508D01*
X92599361Y-114821850D01*
X92566976Y-114883761D01*
X92565425Y-114885339D01*
X87087584Y-120363181D01*
X87026261Y-120396666D01*
X86999903Y-120399500D01*
X86449097Y-120399500D01*
X86382058Y-120379815D01*
X86336303Y-120327011D01*
X86326359Y-120257853D01*
X86355384Y-120194297D01*
X86361416Y-120187819D01*
X88361416Y-118187819D01*
X90784664Y-115764571D01*
X90845985Y-115731088D01*
X90848152Y-115730637D01*
X90848841Y-115730500D01*
X90848842Y-115730500D01*
X91003497Y-115699737D01*
X91149179Y-115639394D01*
X91280289Y-115551789D01*
X91391789Y-115440289D01*
X91479394Y-115309179D01*
X91539737Y-115163497D01*
X91563760Y-115042726D01*
X91570638Y-115008150D01*
X91603023Y-114946239D01*
X91604518Y-114944716D01*
X92412416Y-114136819D01*
X92473739Y-114103334D01*
X92500097Y-114100500D01*
X92768059Y-114100500D01*
X92835098Y-114120185D01*
G37*
%TD.AperFunction*%
%TA.AperFunction,NonConductor*%
G36*
X95035304Y-114620185D02*
G01*
X95081059Y-114672989D01*
X95091003Y-114742147D01*
X95089883Y-114748681D01*
X95086939Y-114763489D01*
X95069361Y-114851851D01*
X95036975Y-114913762D01*
X95035425Y-114915339D01*
X89087584Y-120863181D01*
X89026261Y-120896666D01*
X88999903Y-120899500D01*
X88549097Y-120899500D01*
X88482058Y-120879815D01*
X88436303Y-120827011D01*
X88426359Y-120757853D01*
X88455384Y-120694297D01*
X88461416Y-120687819D01*
X90891382Y-118257853D01*
X93414662Y-115734572D01*
X93475983Y-115701089D01*
X93478150Y-115700638D01*
X93536085Y-115689113D01*
X93633497Y-115669737D01*
X93767108Y-115614394D01*
X93779172Y-115609397D01*
X93779172Y-115609396D01*
X93779179Y-115609394D01*
X93910289Y-115521789D01*
X94021789Y-115410289D01*
X94109394Y-115279179D01*
X94169737Y-115133497D01*
X94194670Y-115008150D01*
X94200638Y-114978150D01*
X94233023Y-114916239D01*
X94234518Y-114914716D01*
X94512416Y-114636819D01*
X94573739Y-114603334D01*
X94600097Y-114600500D01*
X94968265Y-114600500D01*
X95035304Y-114620185D01*
G37*
%TD.AperFunction*%
%TA.AperFunction,NonConductor*%
G36*
X113548203Y-118397884D02*
G01*
X113554681Y-118403916D01*
X113863181Y-118712416D01*
X113896666Y-118773739D01*
X113899500Y-118800097D01*
X113899500Y-123940242D01*
X113879815Y-124007281D01*
X113827011Y-124053036D01*
X113757853Y-124062980D01*
X113694297Y-124033955D01*
X113687819Y-124027923D01*
X113629786Y-123969890D01*
X113457817Y-123844949D01*
X113410704Y-123820943D01*
X113359908Y-123772968D01*
X113343000Y-123710459D01*
X113343000Y-118491597D01*
X113362685Y-118424558D01*
X113415489Y-118378803D01*
X113484647Y-118368859D01*
X113548203Y-118397884D01*
G37*
%TD.AperFunction*%
%TA.AperFunction,NonConductor*%
G36*
X111551444Y-125653999D02*
G01*
X111590486Y-125699056D01*
X111594951Y-125707820D01*
X111719890Y-125879786D01*
X111870213Y-126030109D01*
X112042182Y-126155050D01*
X112050946Y-126159516D01*
X112101742Y-126207491D01*
X112118536Y-126275312D01*
X112095998Y-126341447D01*
X112050946Y-126380484D01*
X112042182Y-126384949D01*
X111870213Y-126509890D01*
X111719890Y-126660213D01*
X111594949Y-126832182D01*
X111590484Y-126840946D01*
X111542509Y-126891742D01*
X111474688Y-126908536D01*
X111408553Y-126885998D01*
X111369516Y-126840946D01*
X111365050Y-126832182D01*
X111240109Y-126660213D01*
X111089786Y-126509890D01*
X110917820Y-126384951D01*
X110917115Y-126384591D01*
X110909054Y-126380485D01*
X110858259Y-126332512D01*
X110841463Y-126264692D01*
X110863999Y-126198556D01*
X110909054Y-126159515D01*
X110917816Y-126155051D01*
X110939789Y-126139086D01*
X111089786Y-126030109D01*
X111089788Y-126030106D01*
X111089792Y-126030104D01*
X111240104Y-125879792D01*
X111240106Y-125879788D01*
X111240109Y-125879786D01*
X111365048Y-125707820D01*
X111365047Y-125707820D01*
X111365051Y-125707816D01*
X111369514Y-125699054D01*
X111417488Y-125648259D01*
X111485308Y-125631463D01*
X111551444Y-125653999D01*
G37*
%TD.AperFunction*%
%TA.AperFunction,NonConductor*%
G36*
X47970397Y-125858851D02*
G01*
X48001686Y-125908772D01*
X48005186Y-125919334D01*
X48097288Y-126068656D01*
X48221344Y-126192712D01*
X48370666Y-126284814D01*
X48381223Y-126288312D01*
X48438668Y-126328084D01*
X48465492Y-126392600D01*
X48453177Y-126461376D01*
X48415113Y-126506330D01*
X48410219Y-126509885D01*
X48410209Y-126509894D01*
X48259890Y-126660213D01*
X48134949Y-126832182D01*
X48130484Y-126840946D01*
X48082509Y-126891742D01*
X48014688Y-126908536D01*
X47948553Y-126885998D01*
X47909516Y-126840946D01*
X47905050Y-126832182D01*
X47780109Y-126660213D01*
X47629786Y-126509890D01*
X47457820Y-126384951D01*
X47457115Y-126384591D01*
X47449054Y-126380485D01*
X47398259Y-126332512D01*
X47381463Y-126264692D01*
X47403999Y-126198556D01*
X47449054Y-126159515D01*
X47457816Y-126155051D01*
X47479789Y-126139086D01*
X47629786Y-126030109D01*
X47629788Y-126030106D01*
X47629792Y-126030104D01*
X47780104Y-125879792D01*
X47783660Y-125874896D01*
X47838987Y-125832230D01*
X47908600Y-125826248D01*
X47970397Y-125858851D01*
G37*
%TD.AperFunction*%
%TA.AperFunction,NonConductor*%
G36*
X114318834Y-126935414D02*
G01*
X114374767Y-126977286D01*
X114399184Y-127042751D01*
X114399500Y-127051596D01*
X114399500Y-127542402D01*
X114379815Y-127609441D01*
X114363181Y-127630083D01*
X114312181Y-127681083D01*
X114250858Y-127714568D01*
X114181166Y-127709584D01*
X114125233Y-127667712D01*
X114100816Y-127602248D01*
X114100500Y-127593402D01*
X114100500Y-127433713D01*
X114094434Y-127395414D01*
X114067246Y-127223757D01*
X114067244Y-127223752D01*
X114067244Y-127223749D01*
X114056574Y-127190911D01*
X114054577Y-127121070D01*
X114086820Y-127064914D01*
X114187822Y-126963912D01*
X114249143Y-126930430D01*
X114318834Y-126935414D01*
G37*
%TD.AperFunction*%
%TA.AperFunction,NonConductor*%
G36*
X45305703Y-126995384D02*
G01*
X45312181Y-127001416D01*
X45403979Y-127093214D01*
X45437464Y-127154537D01*
X45434233Y-127219200D01*
X45432755Y-127223749D01*
X45432754Y-127223753D01*
X45399500Y-127433713D01*
X45399500Y-127630902D01*
X45393261Y-127652147D01*
X45391682Y-127674236D01*
X45383609Y-127685019D01*
X45379815Y-127697941D01*
X45363081Y-127712440D01*
X45349810Y-127730169D01*
X45337189Y-127734876D01*
X45327011Y-127743696D01*
X45305093Y-127746847D01*
X45284346Y-127754586D01*
X45271185Y-127751723D01*
X45257853Y-127753640D01*
X45237709Y-127744440D01*
X45216073Y-127739734D01*
X45198347Y-127726465D01*
X45194297Y-127724615D01*
X45187819Y-127718583D01*
X45136819Y-127667583D01*
X45103334Y-127606260D01*
X45100500Y-127579902D01*
X45100500Y-127089097D01*
X45120185Y-127022058D01*
X45172989Y-126976303D01*
X45242147Y-126966359D01*
X45305703Y-126995384D01*
G37*
%TD.AperFunction*%
%TA.AperFunction,NonConductor*%
G36*
X108778834Y-127395414D02*
G01*
X108834767Y-127437286D01*
X108859184Y-127502750D01*
X108859500Y-127511596D01*
X108859500Y-127646287D01*
X108863927Y-127674236D01*
X108892754Y-127856246D01*
X108909556Y-127907958D01*
X108911551Y-127977799D01*
X108879306Y-128033956D01*
X108812180Y-128101082D01*
X108750859Y-128134567D01*
X108681167Y-128129583D01*
X108625233Y-128087712D01*
X108600816Y-128022248D01*
X108600500Y-128013401D01*
X108600500Y-127522596D01*
X108609144Y-127493155D01*
X108615668Y-127463169D01*
X108619422Y-127458153D01*
X108620185Y-127455557D01*
X108636815Y-127434919D01*
X108647820Y-127423913D01*
X108709142Y-127390430D01*
X108778834Y-127395414D01*
G37*
%TD.AperFunction*%
%TA.AperFunction,NonConductor*%
G36*
X111551444Y-128193999D02*
G01*
X111590486Y-128239056D01*
X111594951Y-128247820D01*
X111719890Y-128419786D01*
X111870213Y-128570109D01*
X112042182Y-128695050D01*
X112050946Y-128699516D01*
X112101742Y-128747491D01*
X112118536Y-128815312D01*
X112095998Y-128881447D01*
X112050946Y-128920484D01*
X112042182Y-128924949D01*
X111870213Y-129049890D01*
X111719890Y-129200213D01*
X111594949Y-129372182D01*
X111590484Y-129380946D01*
X111542509Y-129431742D01*
X111474688Y-129448536D01*
X111408553Y-129425998D01*
X111369516Y-129380946D01*
X111365050Y-129372182D01*
X111240109Y-129200213D01*
X111089786Y-129049890D01*
X110917820Y-128924951D01*
X110917115Y-128924591D01*
X110909054Y-128920485D01*
X110858259Y-128872512D01*
X110841463Y-128804692D01*
X110863999Y-128738556D01*
X110909054Y-128699515D01*
X110917816Y-128695051D01*
X110939789Y-128679086D01*
X111089786Y-128570109D01*
X111089788Y-128570106D01*
X111089792Y-128570104D01*
X111240104Y-128419792D01*
X111240106Y-128419788D01*
X111240109Y-128419786D01*
X111365048Y-128247820D01*
X111365047Y-128247820D01*
X111365051Y-128247816D01*
X111369514Y-128239054D01*
X111417488Y-128188259D01*
X111485308Y-128171463D01*
X111551444Y-128193999D01*
G37*
%TD.AperFunction*%
%TA.AperFunction,NonConductor*%
G36*
X48091444Y-128193999D02*
G01*
X48130486Y-128239056D01*
X48134951Y-128247820D01*
X48259890Y-128419786D01*
X48410213Y-128570109D01*
X48582182Y-128695050D01*
X48590946Y-128699516D01*
X48641742Y-128747491D01*
X48658536Y-128815312D01*
X48635998Y-128881447D01*
X48590946Y-128920484D01*
X48582182Y-128924949D01*
X48410213Y-129049890D01*
X48259890Y-129200213D01*
X48134949Y-129372182D01*
X48130484Y-129380946D01*
X48082509Y-129431742D01*
X48014688Y-129448536D01*
X47948553Y-129425998D01*
X47909516Y-129380946D01*
X47905050Y-129372182D01*
X47780109Y-129200213D01*
X47629786Y-129049890D01*
X47457820Y-128924951D01*
X47457115Y-128924591D01*
X47449054Y-128920485D01*
X47398259Y-128872512D01*
X47381463Y-128804692D01*
X47403999Y-128738556D01*
X47449054Y-128699515D01*
X47457816Y-128695051D01*
X47479789Y-128679086D01*
X47629786Y-128570109D01*
X47629788Y-128570106D01*
X47629792Y-128570104D01*
X47780104Y-128419792D01*
X47780106Y-128419788D01*
X47780109Y-128419786D01*
X47905048Y-128247820D01*
X47905047Y-128247820D01*
X47905051Y-128247816D01*
X47909514Y-128239054D01*
X47957488Y-128188259D01*
X48025308Y-128171463D01*
X48091444Y-128193999D01*
G37*
%TD.AperFunction*%
%TA.AperFunction,NonConductor*%
G36*
X114818834Y-128975414D02*
G01*
X114874767Y-129017286D01*
X114899184Y-129082750D01*
X114899500Y-129091596D01*
X114899500Y-129582402D01*
X114879815Y-129649441D01*
X114863181Y-129670083D01*
X114312181Y-130221083D01*
X114250858Y-130254568D01*
X114181166Y-130249584D01*
X114125233Y-130207712D01*
X114100816Y-130142248D01*
X114100500Y-130133402D01*
X114100500Y-129973713D01*
X114092142Y-129920943D01*
X114067246Y-129763757D01*
X114067244Y-129763752D01*
X114067244Y-129763749D01*
X114056574Y-129730911D01*
X114054577Y-129661070D01*
X114086821Y-129604912D01*
X114687820Y-129003914D01*
X114749142Y-128970430D01*
X114818834Y-128975414D01*
G37*
%TD.AperFunction*%
%TA.AperFunction,NonConductor*%
G36*
X44805703Y-129035384D02*
G01*
X44812181Y-129041416D01*
X45403979Y-129633214D01*
X45437464Y-129694537D01*
X45434233Y-129759200D01*
X45432755Y-129763749D01*
X45432754Y-129763753D01*
X45399500Y-129973713D01*
X45399500Y-130170903D01*
X45379815Y-130237942D01*
X45327011Y-130283697D01*
X45257853Y-130293641D01*
X45194297Y-130264616D01*
X45187819Y-130258584D01*
X44636819Y-129707584D01*
X44603334Y-129646261D01*
X44600500Y-129619903D01*
X44600500Y-129129097D01*
X44620185Y-129062058D01*
X44672989Y-129016303D01*
X44742147Y-129006359D01*
X44805703Y-129035384D01*
G37*
%TD.AperFunction*%
%TA.AperFunction,NonConductor*%
G36*
X50845703Y-129995384D02*
G01*
X50852181Y-130001416D01*
X51863181Y-131012416D01*
X51896666Y-131073739D01*
X51899500Y-131100097D01*
X51899500Y-131590902D01*
X51879815Y-131657941D01*
X51827011Y-131703696D01*
X51757853Y-131713640D01*
X51694297Y-131684615D01*
X51687819Y-131678583D01*
X50611495Y-130602260D01*
X50578010Y-130540937D01*
X50581244Y-130476264D01*
X50607246Y-130396243D01*
X50640500Y-130186287D01*
X50640500Y-130089097D01*
X50660185Y-130022058D01*
X50712989Y-129976303D01*
X50782147Y-129966359D01*
X50845703Y-129995384D01*
G37*
%TD.AperFunction*%
%TA.AperFunction,NonConductor*%
G36*
X111551444Y-130733999D02*
G01*
X111590486Y-130779056D01*
X111594951Y-130787820D01*
X111719890Y-130959786D01*
X111870213Y-131110109D01*
X112042182Y-131235050D01*
X112050946Y-131239516D01*
X112101742Y-131287491D01*
X112118536Y-131355312D01*
X112095998Y-131421447D01*
X112050946Y-131460484D01*
X112042182Y-131464949D01*
X111870213Y-131589890D01*
X111719890Y-131740213D01*
X111594949Y-131912182D01*
X111590484Y-131920946D01*
X111542509Y-131971742D01*
X111474688Y-131988536D01*
X111408553Y-131965998D01*
X111369516Y-131920946D01*
X111365050Y-131912182D01*
X111240109Y-131740213D01*
X111089786Y-131589890D01*
X110917820Y-131464951D01*
X110917115Y-131464591D01*
X110909054Y-131460485D01*
X110858259Y-131412512D01*
X110841463Y-131344692D01*
X110863999Y-131278556D01*
X110909054Y-131239515D01*
X110917816Y-131235051D01*
X111009119Y-131168716D01*
X111089786Y-131110109D01*
X111089788Y-131110106D01*
X111089792Y-131110104D01*
X111240104Y-130959792D01*
X111240106Y-130959788D01*
X111240109Y-130959786D01*
X111365048Y-130787820D01*
X111365047Y-130787820D01*
X111365051Y-130787816D01*
X111369514Y-130779054D01*
X111417488Y-130728259D01*
X111485308Y-130711463D01*
X111551444Y-130733999D01*
G37*
%TD.AperFunction*%
%TA.AperFunction,NonConductor*%
G36*
X48091444Y-130733999D02*
G01*
X48130486Y-130779056D01*
X48134951Y-130787820D01*
X48259890Y-130959786D01*
X48410213Y-131110109D01*
X48582182Y-131235050D01*
X48590946Y-131239516D01*
X48641742Y-131287491D01*
X48658536Y-131355312D01*
X48635998Y-131421447D01*
X48590946Y-131460484D01*
X48582182Y-131464949D01*
X48410213Y-131589890D01*
X48259890Y-131740213D01*
X48134949Y-131912182D01*
X48130484Y-131920946D01*
X48082509Y-131971742D01*
X48014688Y-131988536D01*
X47948553Y-131965998D01*
X47909516Y-131920946D01*
X47905050Y-131912182D01*
X47780109Y-131740213D01*
X47629786Y-131589890D01*
X47457820Y-131464951D01*
X47457115Y-131464591D01*
X47449054Y-131460485D01*
X47398259Y-131412512D01*
X47381463Y-131344692D01*
X47403999Y-131278556D01*
X47449054Y-131239515D01*
X47457816Y-131235051D01*
X47549119Y-131168716D01*
X47629786Y-131110109D01*
X47629788Y-131110106D01*
X47629792Y-131110104D01*
X47780104Y-130959792D01*
X47780106Y-130959788D01*
X47780109Y-130959786D01*
X47905048Y-130787820D01*
X47905047Y-130787820D01*
X47905051Y-130787816D01*
X47909514Y-130779054D01*
X47957488Y-130728259D01*
X48025308Y-130711463D01*
X48091444Y-130733999D01*
G37*
%TD.AperFunction*%
%TA.AperFunction,NonConductor*%
G36*
X115318834Y-131015414D02*
G01*
X115374767Y-131057286D01*
X115399184Y-131122750D01*
X115399500Y-131131596D01*
X115399500Y-131622402D01*
X115379815Y-131689441D01*
X115363181Y-131710083D01*
X114312181Y-132761083D01*
X114250858Y-132794568D01*
X114181166Y-132789584D01*
X114125233Y-132747712D01*
X114100816Y-132682248D01*
X114100500Y-132673402D01*
X114100500Y-132513713D01*
X114094434Y-132475414D01*
X114067246Y-132303757D01*
X114067244Y-132303752D01*
X114067244Y-132303749D01*
X114056574Y-132270911D01*
X114054577Y-132201070D01*
X114086821Y-132144912D01*
X115187820Y-131043913D01*
X115249142Y-131010430D01*
X115318834Y-131015414D01*
G37*
%TD.AperFunction*%
%TA.AperFunction,NonConductor*%
G36*
X44305703Y-131075384D02*
G01*
X44312181Y-131081416D01*
X45403979Y-132173214D01*
X45437464Y-132234537D01*
X45434233Y-132299200D01*
X45432755Y-132303749D01*
X45432754Y-132303753D01*
X45399500Y-132513713D01*
X45399500Y-132710903D01*
X45379815Y-132777942D01*
X45327011Y-132823697D01*
X45257853Y-132833641D01*
X45194297Y-132804616D01*
X45187819Y-132798584D01*
X44136819Y-131747584D01*
X44103334Y-131686261D01*
X44100500Y-131659903D01*
X44100500Y-131169097D01*
X44120185Y-131102058D01*
X44172989Y-131056303D01*
X44242147Y-131046359D01*
X44305703Y-131075384D01*
G37*
%TD.AperFunction*%
%TA.AperFunction,NonConductor*%
G36*
X108778834Y-132475414D02*
G01*
X108834767Y-132517286D01*
X108859184Y-132582750D01*
X108859500Y-132591596D01*
X108859500Y-132726287D01*
X108865011Y-132761083D01*
X108892754Y-132936246D01*
X108909556Y-132987958D01*
X108911551Y-133057799D01*
X108879306Y-133113956D01*
X108812180Y-133181082D01*
X108750859Y-133214567D01*
X108681167Y-133209583D01*
X108625233Y-133167712D01*
X108600816Y-133102248D01*
X108600500Y-133093401D01*
X108600500Y-132602596D01*
X108608909Y-132573957D01*
X108614849Y-132544693D01*
X108618650Y-132540784D01*
X108620185Y-132535557D01*
X108636815Y-132514919D01*
X108647820Y-132503913D01*
X108662075Y-132496130D01*
X108663560Y-132494604D01*
X108665840Y-132494074D01*
X108709142Y-132470430D01*
X108778834Y-132475414D01*
G37*
%TD.AperFunction*%
%TA.AperFunction,NonConductor*%
G36*
X50845703Y-132535384D02*
G01*
X50852181Y-132541416D01*
X51363181Y-133052416D01*
X51396666Y-133113739D01*
X51399500Y-133140097D01*
X51399500Y-133630903D01*
X51379815Y-133697942D01*
X51327011Y-133743697D01*
X51257853Y-133753641D01*
X51194297Y-133724616D01*
X51187819Y-133718584D01*
X50611495Y-133142260D01*
X50578010Y-133080937D01*
X50581244Y-133016264D01*
X50607246Y-132936243D01*
X50640500Y-132726287D01*
X50640500Y-132629097D01*
X50660185Y-132562058D01*
X50712989Y-132516303D01*
X50782147Y-132506359D01*
X50845703Y-132535384D01*
G37*
%TD.AperFunction*%
%TA.AperFunction,NonConductor*%
G36*
X111551444Y-133273999D02*
G01*
X111590486Y-133319056D01*
X111594951Y-133327820D01*
X111719890Y-133499786D01*
X111870213Y-133650109D01*
X112042182Y-133775050D01*
X112050946Y-133779516D01*
X112101742Y-133827491D01*
X112118536Y-133895312D01*
X112095998Y-133961447D01*
X112050946Y-134000484D01*
X112042182Y-134004949D01*
X111870213Y-134129890D01*
X111719890Y-134280213D01*
X111594949Y-134452182D01*
X111590484Y-134460946D01*
X111542509Y-134511742D01*
X111474688Y-134528536D01*
X111408553Y-134505998D01*
X111369516Y-134460946D01*
X111365050Y-134452182D01*
X111240109Y-134280213D01*
X111089786Y-134129890D01*
X110917820Y-134004951D01*
X110917115Y-134004591D01*
X110909054Y-134000485D01*
X110858259Y-133952512D01*
X110841463Y-133884692D01*
X110863999Y-133818556D01*
X110909054Y-133779515D01*
X110917816Y-133775051D01*
X110952182Y-133750083D01*
X111089786Y-133650109D01*
X111089788Y-133650106D01*
X111089792Y-133650104D01*
X111240104Y-133499792D01*
X111240106Y-133499788D01*
X111240109Y-133499786D01*
X111365048Y-133327820D01*
X111365047Y-133327820D01*
X111365051Y-133327816D01*
X111369514Y-133319054D01*
X111417488Y-133268259D01*
X111485308Y-133251463D01*
X111551444Y-133273999D01*
G37*
%TD.AperFunction*%
%TA.AperFunction,NonConductor*%
G36*
X48091444Y-133273999D02*
G01*
X48130486Y-133319056D01*
X48134951Y-133327820D01*
X48259890Y-133499786D01*
X48410213Y-133650109D01*
X48582182Y-133775050D01*
X48590946Y-133779516D01*
X48641742Y-133827491D01*
X48658536Y-133895312D01*
X48635998Y-133961447D01*
X48590946Y-134000484D01*
X48582182Y-134004949D01*
X48410213Y-134129890D01*
X48259890Y-134280213D01*
X48134949Y-134452182D01*
X48130484Y-134460946D01*
X48082509Y-134511742D01*
X48014688Y-134528536D01*
X47948553Y-134505998D01*
X47909516Y-134460946D01*
X47905050Y-134452182D01*
X47780109Y-134280213D01*
X47629786Y-134129890D01*
X47457820Y-134004951D01*
X47457115Y-134004591D01*
X47449054Y-134000485D01*
X47398259Y-133952512D01*
X47381463Y-133884692D01*
X47403999Y-133818556D01*
X47449054Y-133779515D01*
X47457816Y-133775051D01*
X47492182Y-133750083D01*
X47629786Y-133650109D01*
X47629788Y-133650106D01*
X47629792Y-133650104D01*
X47780104Y-133499792D01*
X47780106Y-133499788D01*
X47780109Y-133499786D01*
X47905048Y-133327820D01*
X47905047Y-133327820D01*
X47905051Y-133327816D01*
X47909514Y-133319054D01*
X47957488Y-133268259D01*
X48025308Y-133251463D01*
X48091444Y-133273999D01*
G37*
%TD.AperFunction*%
%TA.AperFunction,NonConductor*%
G36*
X115818834Y-133055415D02*
G01*
X115874767Y-133097287D01*
X115899184Y-133162751D01*
X115899500Y-133171597D01*
X115899500Y-133662402D01*
X115879815Y-133729441D01*
X115863181Y-133750083D01*
X114312181Y-135301083D01*
X114250858Y-135334568D01*
X114181166Y-135329584D01*
X114125233Y-135287712D01*
X114100816Y-135222248D01*
X114100500Y-135213402D01*
X114100500Y-135053713D01*
X114067246Y-134843759D01*
X114067246Y-134843757D01*
X114056572Y-134810909D01*
X114054578Y-134741069D01*
X114086821Y-134684913D01*
X115687819Y-133083916D01*
X115749142Y-133050431D01*
X115818834Y-133055415D01*
G37*
%TD.AperFunction*%
%TA.AperFunction,NonConductor*%
G36*
X43805703Y-133115384D02*
G01*
X43812181Y-133121416D01*
X45403979Y-134713214D01*
X45437464Y-134774537D01*
X45434233Y-134839200D01*
X45432755Y-134843749D01*
X45432754Y-134843753D01*
X45399500Y-135053713D01*
X45399500Y-135250903D01*
X45379815Y-135317942D01*
X45327011Y-135363697D01*
X45257853Y-135373641D01*
X45194297Y-135344616D01*
X45187819Y-135338584D01*
X43636819Y-133787584D01*
X43603334Y-133726261D01*
X43600500Y-133699903D01*
X43600500Y-133209097D01*
X43620185Y-133142058D01*
X43672989Y-133096303D01*
X43742147Y-133086359D01*
X43805703Y-133115384D01*
G37*
%TD.AperFunction*%
%TA.AperFunction,NonConductor*%
G36*
X50845703Y-135075384D02*
G01*
X50852181Y-135081416D01*
X50863181Y-135092416D01*
X50896666Y-135153739D01*
X50899500Y-135180097D01*
X50899500Y-135670903D01*
X50879815Y-135737942D01*
X50827011Y-135783697D01*
X50757853Y-135793641D01*
X50694297Y-135764616D01*
X50687819Y-135758584D01*
X50611495Y-135682260D01*
X50578010Y-135620937D01*
X50581244Y-135556264D01*
X50607246Y-135476243D01*
X50640500Y-135266287D01*
X50640500Y-135169097D01*
X50660185Y-135102058D01*
X50712989Y-135056303D01*
X50782147Y-135046359D01*
X50845703Y-135075384D01*
G37*
%TD.AperFunction*%
%TA.AperFunction,NonConductor*%
G36*
X111551444Y-135813999D02*
G01*
X111590486Y-135859056D01*
X111594951Y-135867820D01*
X111719890Y-136039786D01*
X111870213Y-136190109D01*
X112042182Y-136315050D01*
X112050946Y-136319516D01*
X112101742Y-136367491D01*
X112118536Y-136435312D01*
X112095998Y-136501447D01*
X112050946Y-136540484D01*
X112042182Y-136544949D01*
X111870213Y-136669890D01*
X111719890Y-136820213D01*
X111594949Y-136992182D01*
X111590484Y-137000946D01*
X111542509Y-137051742D01*
X111474688Y-137068536D01*
X111408553Y-137045998D01*
X111369516Y-137000946D01*
X111365050Y-136992182D01*
X111240109Y-136820213D01*
X111089786Y-136669890D01*
X110917820Y-136544951D01*
X110917115Y-136544591D01*
X110909054Y-136540485D01*
X110858259Y-136492512D01*
X110841463Y-136424692D01*
X110863999Y-136358556D01*
X110909054Y-136319515D01*
X110917816Y-136315051D01*
X110939789Y-136299086D01*
X111089786Y-136190109D01*
X111089788Y-136190106D01*
X111089792Y-136190104D01*
X111240104Y-136039792D01*
X111240106Y-136039788D01*
X111240109Y-136039786D01*
X111365048Y-135867820D01*
X111365047Y-135867820D01*
X111365051Y-135867816D01*
X111369514Y-135859054D01*
X111417488Y-135808259D01*
X111485308Y-135791463D01*
X111551444Y-135813999D01*
G37*
%TD.AperFunction*%
%TA.AperFunction,NonConductor*%
G36*
X48091444Y-135813999D02*
G01*
X48130486Y-135859056D01*
X48134951Y-135867820D01*
X48259890Y-136039786D01*
X48410213Y-136190109D01*
X48582182Y-136315050D01*
X48590946Y-136319516D01*
X48641742Y-136367491D01*
X48658536Y-136435312D01*
X48635998Y-136501447D01*
X48590946Y-136540484D01*
X48582182Y-136544949D01*
X48410213Y-136669890D01*
X48259890Y-136820213D01*
X48134949Y-136992182D01*
X48130484Y-137000946D01*
X48082509Y-137051742D01*
X48014688Y-137068536D01*
X47948553Y-137045998D01*
X47909516Y-137000946D01*
X47905050Y-136992182D01*
X47780109Y-136820213D01*
X47629786Y-136669890D01*
X47457820Y-136544951D01*
X47457115Y-136544591D01*
X47449054Y-136540485D01*
X47398259Y-136492512D01*
X47381463Y-136424692D01*
X47403999Y-136358556D01*
X47449054Y-136319515D01*
X47457816Y-136315051D01*
X47479789Y-136299086D01*
X47629786Y-136190109D01*
X47629788Y-136190106D01*
X47629792Y-136190104D01*
X47780104Y-136039792D01*
X47780106Y-136039788D01*
X47780109Y-136039786D01*
X47905048Y-135867820D01*
X47905047Y-135867820D01*
X47905051Y-135867816D01*
X47909514Y-135859054D01*
X47957488Y-135808259D01*
X48025308Y-135791463D01*
X48091444Y-135813999D01*
G37*
%TD.AperFunction*%
%TA.AperFunction,NonConductor*%
G36*
X116318834Y-135095414D02*
G01*
X116374767Y-135137286D01*
X116399184Y-135202750D01*
X116399500Y-135211596D01*
X116399500Y-135702402D01*
X116379815Y-135769441D01*
X116363181Y-135790083D01*
X114312181Y-137841083D01*
X114250858Y-137874568D01*
X114181166Y-137869584D01*
X114125233Y-137827712D01*
X114100816Y-137762248D01*
X114100500Y-137753402D01*
X114100500Y-137593713D01*
X114094434Y-137555414D01*
X114067246Y-137383757D01*
X114067244Y-137383752D01*
X114067244Y-137383749D01*
X114056574Y-137350911D01*
X114054577Y-137281070D01*
X114086821Y-137224912D01*
X116187821Y-135123913D01*
X116249142Y-135090430D01*
X116318834Y-135095414D01*
G37*
%TD.AperFunction*%
%TA.AperFunction,NonConductor*%
G36*
X43305703Y-135155384D02*
G01*
X43312181Y-135161416D01*
X45403979Y-137253214D01*
X45437464Y-137314537D01*
X45434233Y-137379200D01*
X45432755Y-137383749D01*
X45432754Y-137383753D01*
X45399500Y-137593713D01*
X45399500Y-137790902D01*
X45379815Y-137857941D01*
X45327011Y-137903696D01*
X45257853Y-137913640D01*
X45194297Y-137884615D01*
X45187819Y-137878583D01*
X43136819Y-135827583D01*
X43103334Y-135766260D01*
X43100500Y-135739902D01*
X43100500Y-135249097D01*
X43120185Y-135182058D01*
X43172989Y-135136303D01*
X43242147Y-135126359D01*
X43305703Y-135155384D01*
G37*
%TD.AperFunction*%
%TA.AperFunction,NonConductor*%
G36*
X108778834Y-137555414D02*
G01*
X108834767Y-137597286D01*
X108859184Y-137662750D01*
X108859500Y-137671596D01*
X108859500Y-137806286D01*
X108892753Y-138016242D01*
X108909557Y-138067960D01*
X108911551Y-138137801D01*
X108879306Y-138193957D01*
X108210084Y-138863181D01*
X108148761Y-138896666D01*
X108122403Y-138899500D01*
X107675686Y-138899500D01*
X107651217Y-138892315D01*
X107625916Y-138889074D01*
X107618249Y-138882634D01*
X107608647Y-138879815D01*
X107591947Y-138860543D01*
X107572415Y-138844137D01*
X107569447Y-138834575D01*
X107562892Y-138827011D01*
X107559262Y-138801765D01*
X107551701Y-138777408D01*
X107554015Y-138765279D01*
X107552948Y-138757853D01*
X107556185Y-138742400D01*
X107558709Y-138733287D01*
X107559577Y-138731784D01*
X107572969Y-138681802D01*
X107573076Y-138681418D01*
X107577436Y-138674397D01*
X107604894Y-138626839D01*
X108647819Y-137583915D01*
X108709142Y-137550430D01*
X108778834Y-137555414D01*
G37*
%TD.AperFunction*%
%TA.AperFunction,NonConductor*%
G36*
X111551444Y-138353999D02*
G01*
X111590486Y-138399056D01*
X111594951Y-138407820D01*
X111719890Y-138579786D01*
X111870213Y-138730109D01*
X112042182Y-138855050D01*
X112050946Y-138859516D01*
X112101742Y-138907491D01*
X112118536Y-138975312D01*
X112095998Y-139041447D01*
X112050946Y-139080484D01*
X112042182Y-139084949D01*
X111870213Y-139209890D01*
X111719890Y-139360213D01*
X111594949Y-139532182D01*
X111590484Y-139540946D01*
X111542509Y-139591742D01*
X111474688Y-139608536D01*
X111408553Y-139585998D01*
X111369516Y-139540946D01*
X111365050Y-139532182D01*
X111240109Y-139360213D01*
X111089786Y-139209890D01*
X110917820Y-139084951D01*
X110917115Y-139084591D01*
X110909054Y-139080485D01*
X110858259Y-139032512D01*
X110841463Y-138964692D01*
X110863999Y-138898556D01*
X110909054Y-138859515D01*
X110917816Y-138855051D01*
X110956410Y-138827011D01*
X111089786Y-138730109D01*
X111089788Y-138730106D01*
X111089792Y-138730104D01*
X111240104Y-138579792D01*
X111240106Y-138579788D01*
X111240109Y-138579786D01*
X111365048Y-138407820D01*
X111365047Y-138407820D01*
X111365051Y-138407816D01*
X111369514Y-138399054D01*
X111417488Y-138348259D01*
X111485308Y-138331463D01*
X111551444Y-138353999D01*
G37*
%TD.AperFunction*%
%TA.AperFunction,NonConductor*%
G36*
X48091444Y-138353999D02*
G01*
X48130486Y-138399056D01*
X48134951Y-138407820D01*
X48259890Y-138579786D01*
X48410213Y-138730109D01*
X48582182Y-138855050D01*
X48590946Y-138859516D01*
X48641742Y-138907491D01*
X48658536Y-138975312D01*
X48635998Y-139041447D01*
X48590946Y-139080484D01*
X48582182Y-139084949D01*
X48410213Y-139209890D01*
X48259890Y-139360213D01*
X48134949Y-139532182D01*
X48130484Y-139540946D01*
X48082509Y-139591742D01*
X48014688Y-139608536D01*
X47948553Y-139585998D01*
X47909516Y-139540946D01*
X47905050Y-139532182D01*
X47780109Y-139360213D01*
X47629786Y-139209890D01*
X47457820Y-139084951D01*
X47457115Y-139084591D01*
X47449054Y-139080485D01*
X47398259Y-139032512D01*
X47381463Y-138964692D01*
X47403999Y-138898556D01*
X47449054Y-138859515D01*
X47457816Y-138855051D01*
X47496410Y-138827011D01*
X47629786Y-138730109D01*
X47629788Y-138730106D01*
X47629792Y-138730104D01*
X47780104Y-138579792D01*
X47780106Y-138579788D01*
X47780109Y-138579786D01*
X47905048Y-138407820D01*
X47905047Y-138407820D01*
X47905051Y-138407816D01*
X47909514Y-138399054D01*
X47957488Y-138348259D01*
X48025308Y-138331463D01*
X48091444Y-138353999D01*
G37*
%TD.AperFunction*%
%TA.AperFunction,NonConductor*%
G36*
X116818834Y-137135414D02*
G01*
X116874767Y-137177286D01*
X116899184Y-137242750D01*
X116899500Y-137251596D01*
X116899500Y-137742402D01*
X116879815Y-137809441D01*
X116863181Y-137830083D01*
X114312181Y-140381083D01*
X114250858Y-140414568D01*
X114181166Y-140409584D01*
X114125233Y-140367712D01*
X114100816Y-140302248D01*
X114100500Y-140293402D01*
X114100500Y-140133713D01*
X114082407Y-140019480D01*
X114067246Y-139923757D01*
X114067244Y-139923752D01*
X114067244Y-139923749D01*
X114056574Y-139890911D01*
X114054577Y-139821070D01*
X114086821Y-139764912D01*
X116687821Y-137163913D01*
X116749142Y-137130430D01*
X116818834Y-137135414D01*
G37*
%TD.AperFunction*%
%TA.AperFunction,NonConductor*%
G36*
X42805703Y-137195384D02*
G01*
X42812181Y-137201416D01*
X45403979Y-139793214D01*
X45437464Y-139854537D01*
X45434233Y-139919200D01*
X45432755Y-139923749D01*
X45432754Y-139923753D01*
X45399500Y-140133713D01*
X45399500Y-140330903D01*
X45379815Y-140397942D01*
X45327011Y-140443697D01*
X45257853Y-140453641D01*
X45194297Y-140424616D01*
X45187819Y-140418584D01*
X42636819Y-137867584D01*
X42603334Y-137806261D01*
X42600500Y-137779903D01*
X42600500Y-137289097D01*
X42620185Y-137222058D01*
X42672989Y-137176303D01*
X42742147Y-137166359D01*
X42805703Y-137195384D01*
G37*
%TD.AperFunction*%
%TA.AperFunction,NonConductor*%
G36*
X111551444Y-140893999D02*
G01*
X111590486Y-140939056D01*
X111594951Y-140947820D01*
X111719890Y-141119786D01*
X111870213Y-141270109D01*
X112042182Y-141395050D01*
X112050946Y-141399516D01*
X112101742Y-141447491D01*
X112118536Y-141515312D01*
X112095998Y-141581447D01*
X112050946Y-141620484D01*
X112042182Y-141624949D01*
X111870213Y-141749890D01*
X111719890Y-141900213D01*
X111594949Y-142072182D01*
X111590484Y-142080946D01*
X111542509Y-142131742D01*
X111474688Y-142148536D01*
X111408553Y-142125998D01*
X111369516Y-142080946D01*
X111365050Y-142072182D01*
X111240109Y-141900213D01*
X111089786Y-141749890D01*
X110917820Y-141624951D01*
X110917115Y-141624591D01*
X110909054Y-141620485D01*
X110858259Y-141572512D01*
X110841463Y-141504692D01*
X110863999Y-141438556D01*
X110909054Y-141399515D01*
X110917816Y-141395051D01*
X111005155Y-141331596D01*
X111089786Y-141270109D01*
X111089788Y-141270106D01*
X111089792Y-141270104D01*
X111240104Y-141119792D01*
X111240106Y-141119788D01*
X111240109Y-141119786D01*
X111365048Y-140947820D01*
X111365050Y-140947817D01*
X111365051Y-140947816D01*
X111369514Y-140939054D01*
X111417488Y-140888259D01*
X111485308Y-140871463D01*
X111551444Y-140893999D01*
G37*
%TD.AperFunction*%
%TA.AperFunction,NonConductor*%
G36*
X48091444Y-140893999D02*
G01*
X48130486Y-140939056D01*
X48134951Y-140947820D01*
X48259890Y-141119786D01*
X48410213Y-141270109D01*
X48582182Y-141395050D01*
X48590946Y-141399516D01*
X48641742Y-141447491D01*
X48658536Y-141515312D01*
X48635998Y-141581447D01*
X48590946Y-141620484D01*
X48582182Y-141624949D01*
X48410213Y-141749890D01*
X48259890Y-141900213D01*
X48134949Y-142072182D01*
X48130484Y-142080946D01*
X48082509Y-142131742D01*
X48014688Y-142148536D01*
X47948553Y-142125998D01*
X47909516Y-142080946D01*
X47905050Y-142072182D01*
X47780109Y-141900213D01*
X47629786Y-141749890D01*
X47457820Y-141624951D01*
X47457115Y-141624591D01*
X47449054Y-141620485D01*
X47398259Y-141572512D01*
X47381463Y-141504692D01*
X47403999Y-141438556D01*
X47449054Y-141399515D01*
X47457816Y-141395051D01*
X47545155Y-141331596D01*
X47629786Y-141270109D01*
X47629788Y-141270106D01*
X47629792Y-141270104D01*
X47780104Y-141119792D01*
X47780106Y-141119788D01*
X47780109Y-141119786D01*
X47905048Y-140947820D01*
X47905050Y-140947817D01*
X47905051Y-140947816D01*
X47909514Y-140939054D01*
X47957488Y-140888259D01*
X48025308Y-140871463D01*
X48091444Y-140893999D01*
G37*
%TD.AperFunction*%
%TA.AperFunction,NonConductor*%
G36*
X117318834Y-139175414D02*
G01*
X117374767Y-139217286D01*
X117399184Y-139282750D01*
X117399500Y-139291596D01*
X117399500Y-139782402D01*
X117379815Y-139849441D01*
X117363181Y-139870083D01*
X114312181Y-142921083D01*
X114250858Y-142954568D01*
X114181166Y-142949584D01*
X114125233Y-142907712D01*
X114100816Y-142842248D01*
X114100500Y-142833402D01*
X114100500Y-142673713D01*
X114087770Y-142593339D01*
X114067246Y-142463757D01*
X114067244Y-142463752D01*
X114067244Y-142463749D01*
X114056574Y-142430911D01*
X114054577Y-142361070D01*
X114086821Y-142304912D01*
X117187821Y-139203913D01*
X117249142Y-139170430D01*
X117318834Y-139175414D01*
G37*
%TD.AperFunction*%
%TA.AperFunction,NonConductor*%
G36*
X42305703Y-139235384D02*
G01*
X42312181Y-139241416D01*
X45403979Y-142333214D01*
X45437464Y-142394537D01*
X45434233Y-142459200D01*
X45432755Y-142463749D01*
X45432754Y-142463753D01*
X45399500Y-142673713D01*
X45399500Y-142870903D01*
X45379815Y-142937942D01*
X45327011Y-142983697D01*
X45257853Y-142993641D01*
X45194297Y-142964616D01*
X45187819Y-142958584D01*
X42136819Y-139907584D01*
X42103334Y-139846261D01*
X42100500Y-139819903D01*
X42100500Y-139329097D01*
X42120185Y-139262058D01*
X42172989Y-139216303D01*
X42242147Y-139206359D01*
X42305703Y-139235384D01*
G37*
%TD.AperFunction*%
%TA.AperFunction,NonConductor*%
G36*
X111551444Y-143433999D02*
G01*
X111590486Y-143479056D01*
X111594951Y-143487820D01*
X111719890Y-143659786D01*
X111870213Y-143810109D01*
X112042182Y-143935050D01*
X112050946Y-143939516D01*
X112101742Y-143987491D01*
X112118536Y-144055312D01*
X112095998Y-144121447D01*
X112050946Y-144160484D01*
X112042182Y-144164949D01*
X111870213Y-144289890D01*
X111719890Y-144440213D01*
X111594949Y-144612182D01*
X111590484Y-144620946D01*
X111542509Y-144671742D01*
X111474688Y-144688536D01*
X111408553Y-144665998D01*
X111369516Y-144620946D01*
X111365050Y-144612182D01*
X111240109Y-144440213D01*
X111089786Y-144289890D01*
X110917820Y-144164951D01*
X110917115Y-144164591D01*
X110909054Y-144160485D01*
X110858259Y-144112512D01*
X110841463Y-144044692D01*
X110863999Y-143978556D01*
X110909054Y-143939515D01*
X110917816Y-143935051D01*
X110966195Y-143899902D01*
X111089786Y-143810109D01*
X111089788Y-143810106D01*
X111089792Y-143810104D01*
X111240104Y-143659792D01*
X111240106Y-143659788D01*
X111240109Y-143659786D01*
X111365048Y-143487820D01*
X111365047Y-143487820D01*
X111365051Y-143487816D01*
X111369514Y-143479054D01*
X111417488Y-143428259D01*
X111485308Y-143411463D01*
X111551444Y-143433999D01*
G37*
%TD.AperFunction*%
%TA.AperFunction,NonConductor*%
G36*
X48091444Y-143433999D02*
G01*
X48130486Y-143479056D01*
X48134951Y-143487820D01*
X48259890Y-143659786D01*
X48410213Y-143810109D01*
X48582182Y-143935050D01*
X48590946Y-143939516D01*
X48641742Y-143987491D01*
X48658536Y-144055312D01*
X48635998Y-144121447D01*
X48590946Y-144160484D01*
X48582182Y-144164949D01*
X48410213Y-144289890D01*
X48259890Y-144440213D01*
X48134949Y-144612182D01*
X48130484Y-144620946D01*
X48082509Y-144671742D01*
X48014688Y-144688536D01*
X47948553Y-144665998D01*
X47909516Y-144620946D01*
X47905050Y-144612182D01*
X47780109Y-144440213D01*
X47629786Y-144289890D01*
X47457820Y-144164951D01*
X47457115Y-144164591D01*
X47449054Y-144160485D01*
X47398259Y-144112512D01*
X47381463Y-144044692D01*
X47403999Y-143978556D01*
X47449054Y-143939515D01*
X47457816Y-143935051D01*
X47506195Y-143899902D01*
X47629786Y-143810109D01*
X47629788Y-143810106D01*
X47629792Y-143810104D01*
X47780104Y-143659792D01*
X47780106Y-143659788D01*
X47780109Y-143659786D01*
X47905048Y-143487820D01*
X47905047Y-143487820D01*
X47905051Y-143487816D01*
X47909514Y-143479054D01*
X47957488Y-143428259D01*
X48025308Y-143411463D01*
X48091444Y-143433999D01*
G37*
%TD.AperFunction*%
%TA.AperFunction,NonConductor*%
G36*
X117818834Y-141215414D02*
G01*
X117874767Y-141257286D01*
X117899184Y-141322750D01*
X117899500Y-141331596D01*
X117899500Y-141822402D01*
X117879815Y-141889441D01*
X117863181Y-141910083D01*
X114312181Y-145461083D01*
X114250858Y-145494568D01*
X114181166Y-145489584D01*
X114125233Y-145447712D01*
X114100816Y-145382248D01*
X114100500Y-145373402D01*
X114100500Y-145213713D01*
X114094057Y-145173033D01*
X114067246Y-145003757D01*
X114067244Y-145003752D01*
X114067244Y-145003749D01*
X114056574Y-144970911D01*
X114054577Y-144901070D01*
X114086821Y-144844912D01*
X117687821Y-141243913D01*
X117749142Y-141210430D01*
X117818834Y-141215414D01*
G37*
%TD.AperFunction*%
%TA.AperFunction,NonConductor*%
G36*
X41805703Y-141275384D02*
G01*
X41812181Y-141281416D01*
X45403979Y-144873214D01*
X45437464Y-144934537D01*
X45434233Y-144999200D01*
X45432755Y-145003749D01*
X45432754Y-145003753D01*
X45399500Y-145213713D01*
X45399500Y-145410903D01*
X45379815Y-145477942D01*
X45327011Y-145523697D01*
X45257853Y-145533641D01*
X45194297Y-145504616D01*
X45187819Y-145498584D01*
X41636819Y-141947584D01*
X41603334Y-141886261D01*
X41600500Y-141859903D01*
X41600500Y-141369097D01*
X41620185Y-141302058D01*
X41672989Y-141256303D01*
X41742147Y-141246359D01*
X41805703Y-141275384D01*
G37*
%TD.AperFunction*%
%TA.AperFunction,NonConductor*%
G36*
X50845703Y-140155384D02*
G01*
X50852181Y-140161416D01*
X51555139Y-140864374D01*
X51555149Y-140864385D01*
X51559479Y-140868715D01*
X51559480Y-140868716D01*
X51671284Y-140980520D01*
X51757827Y-141030485D01*
X51808215Y-141059577D01*
X51960942Y-141100500D01*
X51960943Y-141100500D01*
X57199903Y-141100500D01*
X57229343Y-141109144D01*
X57259330Y-141115668D01*
X57264345Y-141119422D01*
X57266942Y-141120185D01*
X57287584Y-141136819D01*
X57363181Y-141212416D01*
X57396666Y-141273739D01*
X57399500Y-141300097D01*
X57399500Y-146250903D01*
X57379815Y-146317942D01*
X57327011Y-146363697D01*
X57257853Y-146373641D01*
X57194297Y-146344616D01*
X57187819Y-146338584D01*
X55987590Y-145138355D01*
X55987588Y-145138352D01*
X55868717Y-145019481D01*
X55868716Y-145019480D01*
X55781904Y-144969360D01*
X55781904Y-144969359D01*
X55781900Y-144969358D01*
X55731785Y-144940423D01*
X55579057Y-144899499D01*
X55420943Y-144899499D01*
X55413347Y-144899499D01*
X55413331Y-144899500D01*
X52300098Y-144899500D01*
X52270657Y-144890855D01*
X52240671Y-144884332D01*
X52235655Y-144880577D01*
X52233059Y-144879815D01*
X52212417Y-144863181D01*
X52136819Y-144787583D01*
X52103334Y-144726260D01*
X52100500Y-144699902D01*
X52100500Y-144089060D01*
X52100501Y-144089047D01*
X52100501Y-143920944D01*
X52100501Y-143920943D01*
X52059577Y-143768216D01*
X51996979Y-143659792D01*
X51980524Y-143631290D01*
X51980518Y-143631282D01*
X51636819Y-143287583D01*
X51603334Y-143226260D01*
X51600500Y-143199902D01*
X51600500Y-141920944D01*
X51600499Y-141920938D01*
X51594946Y-141900213D01*
X51594755Y-141899500D01*
X51559577Y-141768215D01*
X51508346Y-141679481D01*
X51480520Y-141631284D01*
X51368716Y-141519480D01*
X51368715Y-141519479D01*
X51364385Y-141515149D01*
X51364374Y-141515139D01*
X50611495Y-140762260D01*
X50578010Y-140700937D01*
X50581244Y-140636264D01*
X50607246Y-140556243D01*
X50640500Y-140346287D01*
X50640500Y-140249097D01*
X50660185Y-140182058D01*
X50712989Y-140136303D01*
X50782147Y-140126359D01*
X50845703Y-140155384D01*
G37*
%TD.AperFunction*%
%TA.AperFunction,NonConductor*%
G36*
X108778834Y-145175414D02*
G01*
X108834767Y-145217286D01*
X108859184Y-145282750D01*
X108859500Y-145291596D01*
X108859500Y-145426287D01*
X108863113Y-145449097D01*
X108892754Y-145636246D01*
X108909556Y-145687958D01*
X108911551Y-145757799D01*
X108879306Y-145813956D01*
X108312181Y-146381082D01*
X108250858Y-146414567D01*
X108181167Y-146409583D01*
X108125233Y-146367712D01*
X108100816Y-146302247D01*
X108100500Y-146293401D01*
X108100500Y-145802596D01*
X108120185Y-145735557D01*
X108136815Y-145714919D01*
X108647819Y-145203914D01*
X108709142Y-145170430D01*
X108778834Y-145175414D01*
G37*
%TD.AperFunction*%
%TA.AperFunction,NonConductor*%
G36*
X111551444Y-145973999D02*
G01*
X111590486Y-146019056D01*
X111594951Y-146027820D01*
X111719890Y-146199786D01*
X111870213Y-146350109D01*
X112042182Y-146475050D01*
X112050946Y-146479516D01*
X112101742Y-146527491D01*
X112118536Y-146595312D01*
X112095998Y-146661447D01*
X112050946Y-146700484D01*
X112042182Y-146704949D01*
X111870213Y-146829890D01*
X111719890Y-146980213D01*
X111594949Y-147152182D01*
X111590484Y-147160946D01*
X111542509Y-147211742D01*
X111474688Y-147228536D01*
X111408553Y-147205998D01*
X111369516Y-147160946D01*
X111365050Y-147152182D01*
X111240109Y-146980213D01*
X111089786Y-146829890D01*
X110917820Y-146704951D01*
X110917115Y-146704591D01*
X110909054Y-146700485D01*
X110858259Y-146652512D01*
X110841463Y-146584692D01*
X110863999Y-146518556D01*
X110909054Y-146479515D01*
X110917816Y-146475051D01*
X110992291Y-146420942D01*
X111089786Y-146350109D01*
X111089788Y-146350106D01*
X111089792Y-146350104D01*
X111240104Y-146199792D01*
X111240106Y-146199788D01*
X111240109Y-146199786D01*
X111365048Y-146027820D01*
X111365047Y-146027820D01*
X111365051Y-146027816D01*
X111369514Y-146019054D01*
X111417488Y-145968259D01*
X111485308Y-145951463D01*
X111551444Y-145973999D01*
G37*
%TD.AperFunction*%
%TA.AperFunction,NonConductor*%
G36*
X48091444Y-145973999D02*
G01*
X48130486Y-146019056D01*
X48134951Y-146027820D01*
X48259890Y-146199786D01*
X48410213Y-146350109D01*
X48582182Y-146475050D01*
X48590946Y-146479516D01*
X48641742Y-146527491D01*
X48658536Y-146595312D01*
X48635998Y-146661447D01*
X48590946Y-146700484D01*
X48582182Y-146704949D01*
X48410213Y-146829890D01*
X48259890Y-146980213D01*
X48134949Y-147152182D01*
X48130484Y-147160946D01*
X48082509Y-147211742D01*
X48014688Y-147228536D01*
X47948553Y-147205998D01*
X47909516Y-147160946D01*
X47905050Y-147152182D01*
X47780109Y-146980213D01*
X47629786Y-146829890D01*
X47457820Y-146704951D01*
X47457115Y-146704591D01*
X47449054Y-146700485D01*
X47398259Y-146652512D01*
X47381463Y-146584692D01*
X47403999Y-146518556D01*
X47449054Y-146479515D01*
X47457816Y-146475051D01*
X47532291Y-146420942D01*
X47629786Y-146350109D01*
X47629788Y-146350106D01*
X47629792Y-146350104D01*
X47780104Y-146199792D01*
X47780106Y-146199788D01*
X47780109Y-146199786D01*
X47905048Y-146027820D01*
X47905047Y-146027820D01*
X47905051Y-146027816D01*
X47909514Y-146019054D01*
X47957488Y-145968259D01*
X48025308Y-145951463D01*
X48091444Y-145973999D01*
G37*
%TD.AperFunction*%
%TA.AperFunction,NonConductor*%
G36*
X118318834Y-143255414D02*
G01*
X118374767Y-143297286D01*
X118399184Y-143362750D01*
X118399500Y-143371596D01*
X118399500Y-143862402D01*
X118379815Y-143929441D01*
X118363181Y-143950083D01*
X114312181Y-148001083D01*
X114250858Y-148034568D01*
X114181166Y-148029584D01*
X114125233Y-147987712D01*
X114100816Y-147922248D01*
X114100500Y-147913402D01*
X114100500Y-147753713D01*
X114094434Y-147715414D01*
X114067246Y-147543757D01*
X114067244Y-147543752D01*
X114067244Y-147543749D01*
X114056574Y-147510911D01*
X114054577Y-147441070D01*
X114086821Y-147384912D01*
X118187821Y-143283913D01*
X118249142Y-143250430D01*
X118318834Y-143255414D01*
G37*
%TD.AperFunction*%
%TA.AperFunction,NonConductor*%
G36*
X41305703Y-143315384D02*
G01*
X41312181Y-143321416D01*
X45403979Y-147413214D01*
X45437464Y-147474537D01*
X45434233Y-147539200D01*
X45432755Y-147543749D01*
X45432754Y-147543753D01*
X45399500Y-147753713D01*
X45399500Y-147950902D01*
X45379815Y-148017941D01*
X45327011Y-148063696D01*
X45257853Y-148073640D01*
X45194297Y-148044615D01*
X45187819Y-148038583D01*
X41136819Y-143987583D01*
X41103334Y-143926260D01*
X41100500Y-143899902D01*
X41100500Y-143409097D01*
X41120185Y-143342058D01*
X41172989Y-143296303D01*
X41242147Y-143286359D01*
X41305703Y-143315384D01*
G37*
%TD.AperFunction*%
%TA.AperFunction,NonConductor*%
G36*
X111551444Y-148513999D02*
G01*
X111590486Y-148559056D01*
X111594951Y-148567820D01*
X111719890Y-148739786D01*
X111870213Y-148890109D01*
X112042182Y-149015050D01*
X112050946Y-149019516D01*
X112101742Y-149067491D01*
X112118536Y-149135312D01*
X112095998Y-149201447D01*
X112050946Y-149240484D01*
X112042182Y-149244949D01*
X111870213Y-149369890D01*
X111719890Y-149520213D01*
X111594949Y-149692182D01*
X111590484Y-149700946D01*
X111542509Y-149751742D01*
X111474688Y-149768536D01*
X111408553Y-149745998D01*
X111369516Y-149700946D01*
X111365050Y-149692182D01*
X111240109Y-149520213D01*
X111089786Y-149369890D01*
X110917820Y-149244951D01*
X110917115Y-149244591D01*
X110909054Y-149240485D01*
X110858259Y-149192512D01*
X110841463Y-149124692D01*
X110863999Y-149058556D01*
X110909054Y-149019515D01*
X110917816Y-149015051D01*
X110939789Y-148999086D01*
X111089786Y-148890109D01*
X111089788Y-148890106D01*
X111089792Y-148890104D01*
X111240104Y-148739792D01*
X111240106Y-148739788D01*
X111240109Y-148739786D01*
X111365048Y-148567820D01*
X111365047Y-148567820D01*
X111365051Y-148567816D01*
X111369514Y-148559054D01*
X111417488Y-148508259D01*
X111485308Y-148491463D01*
X111551444Y-148513999D01*
G37*
%TD.AperFunction*%
%TA.AperFunction,NonConductor*%
G36*
X48091444Y-148513999D02*
G01*
X48130486Y-148559056D01*
X48134951Y-148567820D01*
X48259890Y-148739786D01*
X48410213Y-148890109D01*
X48582182Y-149015050D01*
X48590946Y-149019516D01*
X48641742Y-149067491D01*
X48658536Y-149135312D01*
X48635998Y-149201447D01*
X48590946Y-149240484D01*
X48582182Y-149244949D01*
X48410213Y-149369890D01*
X48259890Y-149520213D01*
X48134949Y-149692182D01*
X48130484Y-149700946D01*
X48082509Y-149751742D01*
X48014688Y-149768536D01*
X47948553Y-149745998D01*
X47909516Y-149700946D01*
X47905050Y-149692182D01*
X47780109Y-149520213D01*
X47629786Y-149369890D01*
X47457820Y-149244951D01*
X47457115Y-149244591D01*
X47449054Y-149240485D01*
X47398259Y-149192512D01*
X47381463Y-149124692D01*
X47403999Y-149058556D01*
X47449054Y-149019515D01*
X47457816Y-149015051D01*
X47479789Y-148999086D01*
X47629786Y-148890109D01*
X47629788Y-148890106D01*
X47629792Y-148890104D01*
X47780104Y-148739792D01*
X47780106Y-148739788D01*
X47780109Y-148739786D01*
X47905048Y-148567820D01*
X47905047Y-148567820D01*
X47905051Y-148567816D01*
X47909514Y-148559054D01*
X47957488Y-148508259D01*
X48025308Y-148491463D01*
X48091444Y-148513999D01*
G37*
%TD.AperFunction*%
%TA.AperFunction,NonConductor*%
G36*
X55176942Y-148530185D02*
G01*
X55197584Y-148546819D01*
X55363181Y-148712416D01*
X55396666Y-148773739D01*
X55399500Y-148800097D01*
X55399500Y-149801346D01*
X55379815Y-149868385D01*
X55327011Y-149914140D01*
X55257853Y-149924084D01*
X55213500Y-149908733D01*
X55181788Y-149890424D01*
X55181787Y-149890423D01*
X55099539Y-149868385D01*
X55029057Y-149849499D01*
X54870943Y-149849499D01*
X54863347Y-149849499D01*
X54863331Y-149849500D01*
X50601195Y-149849500D01*
X50534156Y-149829815D01*
X50490710Y-149781795D01*
X50461576Y-149724617D01*
X50445051Y-149692184D01*
X50444308Y-149691161D01*
X50320109Y-149520213D01*
X50169786Y-149369890D01*
X49997820Y-149244951D01*
X49997115Y-149244591D01*
X49989054Y-149240485D01*
X49938259Y-149192512D01*
X49921463Y-149124692D01*
X49943999Y-149058556D01*
X49989054Y-149019515D01*
X49997816Y-149015051D01*
X50019789Y-148999086D01*
X50169786Y-148890109D01*
X50169788Y-148890106D01*
X50169792Y-148890104D01*
X50320104Y-148739792D01*
X50320106Y-148739788D01*
X50320109Y-148739786D01*
X50447915Y-148563875D01*
X50449259Y-148564851D01*
X50495705Y-148522834D01*
X50549618Y-148510500D01*
X55109903Y-148510500D01*
X55176942Y-148530185D01*
G37*
%TD.AperFunction*%
%TA.AperFunction,NonConductor*%
G36*
X118818834Y-145295414D02*
G01*
X118874767Y-145337286D01*
X118899184Y-145402750D01*
X118899500Y-145411596D01*
X118899500Y-145902402D01*
X118879815Y-145969441D01*
X118863181Y-145990083D01*
X114312181Y-150541083D01*
X114250858Y-150574568D01*
X114181166Y-150569584D01*
X114125233Y-150527712D01*
X114100816Y-150462248D01*
X114100500Y-150453402D01*
X114100500Y-150293713D01*
X114094434Y-150255414D01*
X114067246Y-150083757D01*
X114067244Y-150083752D01*
X114067244Y-150083749D01*
X114056574Y-150050911D01*
X114054577Y-149981070D01*
X114086821Y-149924912D01*
X118687821Y-145323913D01*
X118749142Y-145290430D01*
X118818834Y-145295414D01*
G37*
%TD.AperFunction*%
%TA.AperFunction,NonConductor*%
G36*
X40805703Y-145355384D02*
G01*
X40812180Y-145361415D01*
X43161194Y-147710430D01*
X45403979Y-149953215D01*
X45437464Y-150014538D01*
X45434231Y-150079209D01*
X45432754Y-150083754D01*
X45432754Y-150083755D01*
X45399500Y-150293713D01*
X45399500Y-150490902D01*
X45379815Y-150557941D01*
X45327011Y-150603696D01*
X45257853Y-150613640D01*
X45194297Y-150584615D01*
X45187819Y-150578583D01*
X40636819Y-146027583D01*
X40603334Y-145966260D01*
X40600500Y-145939902D01*
X40600500Y-145449097D01*
X40620185Y-145382058D01*
X40672989Y-145336303D01*
X40742147Y-145326359D01*
X40805703Y-145355384D01*
G37*
%TD.AperFunction*%
%TA.AperFunction,NonConductor*%
G36*
X108778834Y-147715414D02*
G01*
X108834767Y-147757286D01*
X108859184Y-147822750D01*
X108859500Y-147831596D01*
X108859500Y-147966287D01*
X108859633Y-147967127D01*
X108892753Y-148176242D01*
X108909557Y-148227960D01*
X108911551Y-148297801D01*
X108879306Y-148353957D01*
X105870084Y-151363181D01*
X105808761Y-151396666D01*
X105782403Y-151399500D01*
X105291597Y-151399500D01*
X105224558Y-151379815D01*
X105178803Y-151327011D01*
X105168859Y-151257853D01*
X105197884Y-151194297D01*
X105203916Y-151187819D01*
X108647819Y-147743915D01*
X108709142Y-147710430D01*
X108778834Y-147715414D01*
G37*
%TD.AperFunction*%
%TA.AperFunction,NonConductor*%
G36*
X101659389Y-140854724D02*
G01*
X101680943Y-140860500D01*
X101839057Y-140860500D01*
X108934472Y-140860500D01*
X109001511Y-140880185D01*
X109044957Y-140928206D01*
X109054949Y-140947817D01*
X109179890Y-141119786D01*
X109330213Y-141270109D01*
X109502182Y-141395050D01*
X109510946Y-141399516D01*
X109561742Y-141447491D01*
X109578536Y-141515312D01*
X109555998Y-141581447D01*
X109510946Y-141620484D01*
X109502182Y-141624949D01*
X109330213Y-141749890D01*
X109179890Y-141900213D01*
X109054951Y-142072179D01*
X108958444Y-142261585D01*
X108892753Y-142463760D01*
X108872230Y-142593338D01*
X108859500Y-142673713D01*
X108859500Y-142886287D01*
X108865011Y-142921083D01*
X108892754Y-143096246D01*
X108909556Y-143147958D01*
X108911551Y-143217799D01*
X108879306Y-143273956D01*
X107147778Y-145005485D01*
X107135591Y-145016174D01*
X107131286Y-145019477D01*
X107019478Y-145131286D01*
X107019475Y-145131290D01*
X106940426Y-145268209D01*
X106940423Y-145268216D01*
X106899500Y-145420943D01*
X106899500Y-146199903D01*
X106879815Y-146266942D01*
X106863181Y-146287584D01*
X102787584Y-150363181D01*
X102726261Y-150396666D01*
X102699903Y-150399500D01*
X99079057Y-150399500D01*
X98920943Y-150399500D01*
X98768215Y-150440423D01*
X98768214Y-150440423D01*
X98768212Y-150440424D01*
X98768209Y-150440425D01*
X98718096Y-150469359D01*
X98718095Y-150469360D01*
X98680783Y-150490902D01*
X98631285Y-150519479D01*
X98631282Y-150519481D01*
X97312181Y-151838583D01*
X97250858Y-151872068D01*
X97181166Y-151867084D01*
X97125233Y-151825212D01*
X97100816Y-151759748D01*
X97100500Y-151750902D01*
X97100500Y-145300097D01*
X97120185Y-145233058D01*
X97136819Y-145212416D01*
X101462416Y-140886819D01*
X101523739Y-140853334D01*
X101550097Y-140850500D01*
X101627298Y-140850500D01*
X101659389Y-140854724D01*
G37*
%TD.AperFunction*%
%TA.AperFunction,NonConductor*%
G36*
X108778834Y-150255414D02*
G01*
X108834767Y-150297286D01*
X108859184Y-150362750D01*
X108859500Y-150371596D01*
X108859500Y-150506287D01*
X108861590Y-150519480D01*
X108892753Y-150716242D01*
X108909557Y-150767960D01*
X108911551Y-150837801D01*
X108879306Y-150893957D01*
X107910084Y-151863181D01*
X107848761Y-151896666D01*
X107822403Y-151899500D01*
X107331597Y-151899500D01*
X107264558Y-151879815D01*
X107218803Y-151827011D01*
X107208859Y-151757853D01*
X107237884Y-151694297D01*
X107243916Y-151687819D01*
X108647819Y-150283915D01*
X108709142Y-150250430D01*
X108778834Y-150255414D01*
G37*
%TD.AperFunction*%
%TA.AperFunction,NonConductor*%
G36*
X111551444Y-151053999D02*
G01*
X111590486Y-151099056D01*
X111594951Y-151107820D01*
X111719890Y-151279786D01*
X111870213Y-151430109D01*
X112042182Y-151555050D01*
X112050946Y-151559516D01*
X112101742Y-151607491D01*
X112118536Y-151675312D01*
X112095998Y-151741447D01*
X112050946Y-151780484D01*
X112042182Y-151784949D01*
X111870213Y-151909890D01*
X111719890Y-152060213D01*
X111594949Y-152232182D01*
X111590484Y-152240946D01*
X111542509Y-152291742D01*
X111474688Y-152308536D01*
X111408553Y-152285998D01*
X111369516Y-152240946D01*
X111365050Y-152232182D01*
X111240109Y-152060213D01*
X111089786Y-151909890D01*
X110917820Y-151784951D01*
X110917115Y-151784591D01*
X110909054Y-151780485D01*
X110858259Y-151732512D01*
X110841463Y-151664692D01*
X110863999Y-151598556D01*
X110909054Y-151559515D01*
X110917816Y-151555051D01*
X110939789Y-151539086D01*
X111089786Y-151430109D01*
X111089788Y-151430106D01*
X111089792Y-151430104D01*
X111240104Y-151279792D01*
X111240106Y-151279788D01*
X111240109Y-151279786D01*
X111365048Y-151107820D01*
X111365047Y-151107820D01*
X111365051Y-151107816D01*
X111369514Y-151099054D01*
X111417488Y-151048259D01*
X111485308Y-151031463D01*
X111551444Y-151053999D01*
G37*
%TD.AperFunction*%
%TA.AperFunction,NonConductor*%
G36*
X48091444Y-151053999D02*
G01*
X48130486Y-151099056D01*
X48134951Y-151107820D01*
X48259890Y-151279786D01*
X48410213Y-151430109D01*
X48582182Y-151555050D01*
X48590946Y-151559516D01*
X48641742Y-151607491D01*
X48658536Y-151675312D01*
X48635998Y-151741447D01*
X48590946Y-151780484D01*
X48582182Y-151784949D01*
X48410213Y-151909890D01*
X48259890Y-152060213D01*
X48134949Y-152232182D01*
X48130484Y-152240946D01*
X48082509Y-152291742D01*
X48014688Y-152308536D01*
X47948553Y-152285998D01*
X47909516Y-152240946D01*
X47905050Y-152232182D01*
X47780109Y-152060213D01*
X47629786Y-151909890D01*
X47457820Y-151784951D01*
X47457115Y-151784591D01*
X47449054Y-151780485D01*
X47398259Y-151732512D01*
X47381463Y-151664692D01*
X47403999Y-151598556D01*
X47449054Y-151559515D01*
X47457816Y-151555051D01*
X47479789Y-151539086D01*
X47629786Y-151430109D01*
X47629788Y-151430106D01*
X47629792Y-151430104D01*
X47780104Y-151279792D01*
X47780106Y-151279788D01*
X47780109Y-151279786D01*
X47905048Y-151107820D01*
X47905047Y-151107820D01*
X47905051Y-151107816D01*
X47909514Y-151099054D01*
X47957488Y-151048259D01*
X48025308Y-151031463D01*
X48091444Y-151053999D01*
G37*
%TD.AperFunction*%
%TA.AperFunction,NonConductor*%
G36*
X54342539Y-151070185D02*
G01*
X54388294Y-151122989D01*
X54399500Y-151174500D01*
X54399500Y-152289914D01*
X54379815Y-152356953D01*
X54327011Y-152402708D01*
X54257853Y-152412652D01*
X54243407Y-152409689D01*
X54203910Y-152399106D01*
X54168057Y-152389499D01*
X54009943Y-152389499D01*
X54002347Y-152389499D01*
X54002331Y-152389500D01*
X50601195Y-152389500D01*
X50534156Y-152369815D01*
X50490710Y-152321795D01*
X50449515Y-152240946D01*
X50445051Y-152232184D01*
X50444308Y-152231161D01*
X50320109Y-152060213D01*
X50169786Y-151909890D01*
X49997820Y-151784951D01*
X49997115Y-151784591D01*
X49989054Y-151780485D01*
X49938259Y-151732512D01*
X49921463Y-151664692D01*
X49943999Y-151598556D01*
X49989054Y-151559515D01*
X49997816Y-151555051D01*
X50019789Y-151539086D01*
X50169786Y-151430109D01*
X50169788Y-151430106D01*
X50169792Y-151430104D01*
X50320104Y-151279792D01*
X50320106Y-151279788D01*
X50320109Y-151279786D01*
X50447915Y-151103875D01*
X50449259Y-151104851D01*
X50495705Y-151062834D01*
X50549618Y-151050500D01*
X54275500Y-151050500D01*
X54342539Y-151070185D01*
G37*
%TD.AperFunction*%
%TA.AperFunction,NonConductor*%
G36*
X111551444Y-158673999D02*
G01*
X111590486Y-158719056D01*
X111594951Y-158727820D01*
X111719890Y-158899786D01*
X111870213Y-159050109D01*
X112042182Y-159175050D01*
X112050946Y-159179516D01*
X112101742Y-159227491D01*
X112118536Y-159295312D01*
X112095998Y-159361447D01*
X112050946Y-159400484D01*
X112042182Y-159404949D01*
X111870213Y-159529890D01*
X111719894Y-159680209D01*
X111719885Y-159680219D01*
X111716330Y-159685113D01*
X111660997Y-159727775D01*
X111591383Y-159733748D01*
X111529591Y-159701137D01*
X111498312Y-159651223D01*
X111494815Y-159640670D01*
X111494814Y-159640666D01*
X111402712Y-159491344D01*
X111278656Y-159367288D01*
X111161964Y-159295312D01*
X111129336Y-159275187D01*
X111129325Y-159275182D01*
X111118773Y-159271686D01*
X111061328Y-159231913D01*
X111034506Y-159167397D01*
X111046822Y-159098621D01*
X111084903Y-159053656D01*
X111089788Y-159050107D01*
X111089788Y-159050106D01*
X111089792Y-159050104D01*
X111240104Y-158899792D01*
X111240106Y-158899788D01*
X111240109Y-158899786D01*
X111365048Y-158727820D01*
X111365047Y-158727820D01*
X111365051Y-158727816D01*
X111369514Y-158719054D01*
X111417488Y-158668259D01*
X111485308Y-158651463D01*
X111551444Y-158673999D01*
G37*
%TD.AperFunction*%
%TA.AperFunction,NonConductor*%
G36*
X48091444Y-158673999D02*
G01*
X48130486Y-158719056D01*
X48134951Y-158727820D01*
X48259890Y-158899786D01*
X48410213Y-159050109D01*
X48582182Y-159175050D01*
X48590946Y-159179516D01*
X48641742Y-159227491D01*
X48658536Y-159295312D01*
X48635998Y-159361447D01*
X48590946Y-159400484D01*
X48582182Y-159404949D01*
X48410213Y-159529890D01*
X48259890Y-159680213D01*
X48134949Y-159852182D01*
X48130484Y-159860946D01*
X48082509Y-159911742D01*
X48014688Y-159928536D01*
X47948553Y-159905998D01*
X47909516Y-159860946D01*
X47905050Y-159852182D01*
X47780109Y-159680213D01*
X47629786Y-159529890D01*
X47457820Y-159404951D01*
X47457115Y-159404591D01*
X47449054Y-159400485D01*
X47398259Y-159352512D01*
X47381463Y-159284692D01*
X47403999Y-159218556D01*
X47449054Y-159179515D01*
X47457816Y-159175051D01*
X47479789Y-159159086D01*
X47629786Y-159050109D01*
X47629788Y-159050106D01*
X47629792Y-159050104D01*
X47780104Y-158899792D01*
X47780106Y-158899788D01*
X47780109Y-158899786D01*
X47905048Y-158727820D01*
X47905047Y-158727820D01*
X47905051Y-158727816D01*
X47909514Y-158719054D01*
X47957488Y-158668259D01*
X48025308Y-158651463D01*
X48091444Y-158673999D01*
G37*
%TD.AperFunction*%
%TA.AperFunction,NonConductor*%
G36*
X96318834Y-166632914D02*
G01*
X96374767Y-166674786D01*
X96399184Y-166740250D01*
X96399500Y-166749096D01*
X96399500Y-175199901D01*
X96379815Y-175266940D01*
X96363182Y-175287582D01*
X96287584Y-175363181D01*
X96226261Y-175396666D01*
X96199902Y-175399500D01*
X79195097Y-175399500D01*
X79128058Y-175379815D01*
X79107416Y-175363181D01*
X76282074Y-172537839D01*
X76248589Y-172476516D01*
X76248138Y-172474349D01*
X76226741Y-172366785D01*
X76217237Y-172319003D01*
X76185724Y-172242923D01*
X76156897Y-172173327D01*
X76156890Y-172173314D01*
X76069289Y-172042211D01*
X76069286Y-172042207D01*
X75957792Y-171930713D01*
X75957788Y-171930710D01*
X75826685Y-171843109D01*
X75826672Y-171843102D01*
X75681001Y-171782764D01*
X75680991Y-171782761D01*
X75525649Y-171751861D01*
X75463738Y-171719476D01*
X75462160Y-171717925D01*
X74382590Y-170638355D01*
X74382588Y-170638352D01*
X74263717Y-170519481D01*
X74263716Y-170519480D01*
X74176904Y-170469360D01*
X74176904Y-170469359D01*
X74176900Y-170469358D01*
X74126785Y-170440423D01*
X73974057Y-170399499D01*
X73815943Y-170399499D01*
X73808347Y-170399499D01*
X73808331Y-170399500D01*
X71300097Y-170399500D01*
X71233058Y-170379815D01*
X71212416Y-170363181D01*
X69536416Y-168687181D01*
X69502931Y-168625858D01*
X69507915Y-168556166D01*
X69549787Y-168500233D01*
X69615251Y-168475816D01*
X69624097Y-168475500D01*
X77670234Y-168475500D01*
X77737273Y-168495185D01*
X77739125Y-168496398D01*
X77870814Y-168584390D01*
X77870827Y-168584397D01*
X78016498Y-168644735D01*
X78016503Y-168644737D01*
X78171153Y-168675499D01*
X78171156Y-168675500D01*
X78171158Y-168675500D01*
X78328844Y-168675500D01*
X78328845Y-168675499D01*
X78483497Y-168644737D01*
X78629179Y-168584394D01*
X78755135Y-168500233D01*
X78760875Y-168496398D01*
X78827553Y-168475520D01*
X78829766Y-168475500D01*
X94038331Y-168475500D01*
X94038347Y-168475501D01*
X94045943Y-168475501D01*
X94204054Y-168475501D01*
X94204057Y-168475501D01*
X94356785Y-168434577D01*
X94406904Y-168405639D01*
X94493716Y-168355520D01*
X94605520Y-168243716D01*
X94605520Y-168243714D01*
X94615728Y-168233507D01*
X94615729Y-168233504D01*
X96187820Y-166661413D01*
X96249142Y-166627930D01*
X96318834Y-166632914D01*
G37*
%TD.AperFunction*%
%TA.AperFunction,NonConductor*%
G36*
X73661942Y-171620185D02*
G01*
X73682584Y-171636819D01*
X74612925Y-172567160D01*
X74646410Y-172628483D01*
X74646861Y-172630649D01*
X74677761Y-172785991D01*
X74677764Y-172786001D01*
X74738102Y-172931672D01*
X74738109Y-172931685D01*
X74825710Y-173062788D01*
X74825713Y-173062792D01*
X74937207Y-173174286D01*
X74937211Y-173174289D01*
X75068314Y-173261890D01*
X75068327Y-173261897D01*
X75201746Y-173317160D01*
X75214003Y-173322237D01*
X75278647Y-173335095D01*
X75369349Y-173353138D01*
X75431260Y-173385523D01*
X75432839Y-173387074D01*
X77733584Y-175687819D01*
X77767069Y-175749142D01*
X77762085Y-175818834D01*
X77720213Y-175874767D01*
X77654749Y-175899184D01*
X77645903Y-175899500D01*
X77195097Y-175899500D01*
X77128058Y-175879815D01*
X77107416Y-175863181D01*
X73268792Y-172024557D01*
X73248319Y-171997528D01*
X73244725Y-171991119D01*
X73209394Y-171905821D01*
X73131587Y-171789375D01*
X73129219Y-171785152D01*
X73122444Y-171755621D01*
X73113393Y-171726713D01*
X73114711Y-171721908D01*
X73113597Y-171717052D01*
X73123862Y-171688548D01*
X73131878Y-171659333D01*
X73135584Y-171656003D01*
X73137273Y-171651316D01*
X73161319Y-171632887D01*
X73183857Y-171612643D01*
X73189366Y-171611392D01*
X73192730Y-171608815D01*
X73205329Y-171607770D01*
X73237373Y-171600500D01*
X73594903Y-171600500D01*
X73661942Y-171620185D01*
G37*
%TD.AperFunction*%
%TA.AperFunction,NonConductor*%
G36*
X71960784Y-172908597D02*
G01*
X71983996Y-172909012D01*
X72001761Y-172917511D01*
X72006370Y-172918514D01*
X72015834Y-172924244D01*
X72120814Y-172994390D01*
X72120827Y-172994397D01*
X72235475Y-173041885D01*
X72266503Y-173054737D01*
X72421153Y-173085499D01*
X72421156Y-173085500D01*
X72579903Y-173085500D01*
X72646942Y-173105185D01*
X72667584Y-173121819D01*
X75733584Y-176187819D01*
X75767069Y-176249142D01*
X75762085Y-176318834D01*
X75720213Y-176374767D01*
X75654749Y-176399184D01*
X75645903Y-176399500D01*
X75195097Y-176399500D01*
X75128058Y-176379815D01*
X75107416Y-176363181D01*
X71859262Y-173115027D01*
X71848136Y-173094652D01*
X71833247Y-173076836D01*
X71831705Y-173064560D01*
X71825777Y-173053704D01*
X71827433Y-173030546D01*
X71824540Y-173007511D01*
X71829878Y-172996352D01*
X71830761Y-172984012D01*
X71844675Y-172965424D01*
X71854695Y-172944483D01*
X71865219Y-172937981D01*
X71872633Y-172928079D01*
X71894384Y-172919965D01*
X71914138Y-172907764D01*
X71926506Y-172907984D01*
X71938097Y-172903662D01*
X71960784Y-172908597D01*
G37*
%TD.AperFunction*%
%TA.AperFunction,NonConductor*%
G36*
X68335703Y-171185384D02*
G01*
X68342181Y-171191416D01*
X69274678Y-172123913D01*
X69279190Y-172130642D01*
X69283293Y-172133471D01*
X69290304Y-172147216D01*
X69301402Y-172163766D01*
X69304615Y-172171452D01*
X69315423Y-172211785D01*
X69333401Y-172242923D01*
X69337362Y-172249784D01*
X69337363Y-172249786D01*
X69394479Y-172348714D01*
X69394481Y-172348717D01*
X69513349Y-172467585D01*
X69513355Y-172467590D01*
X69862925Y-172817160D01*
X69896410Y-172878483D01*
X69896861Y-172880649D01*
X69927761Y-173035991D01*
X69927764Y-173036001D01*
X69988102Y-173181672D01*
X69988109Y-173181685D01*
X70075710Y-173312788D01*
X70075713Y-173312792D01*
X70187207Y-173424286D01*
X70187211Y-173424289D01*
X70318314Y-173511890D01*
X70318327Y-173511897D01*
X70463998Y-173572235D01*
X70464003Y-173572237D01*
X70528647Y-173585095D01*
X70619349Y-173603138D01*
X70681260Y-173635523D01*
X70682839Y-173637074D01*
X73733584Y-176687819D01*
X73767069Y-176749142D01*
X73762085Y-176818834D01*
X73720213Y-176874767D01*
X73654749Y-176899184D01*
X73645903Y-176899500D01*
X73195097Y-176899500D01*
X73128058Y-176879815D01*
X73107416Y-176863181D01*
X69532074Y-173287839D01*
X69498589Y-173226516D01*
X69498138Y-173224349D01*
X69467238Y-173069010D01*
X69467237Y-173069003D01*
X69460900Y-173053704D01*
X69406897Y-172923327D01*
X69406890Y-172923314D01*
X69319289Y-172792211D01*
X69319286Y-172792207D01*
X69207792Y-172680713D01*
X69207788Y-172680710D01*
X69076685Y-172593109D01*
X69076672Y-172593102D01*
X68931001Y-172532764D01*
X68930991Y-172532761D01*
X68775649Y-172501861D01*
X68713738Y-172469476D01*
X68712160Y-172467925D01*
X68166819Y-171922584D01*
X68133334Y-171861261D01*
X68130500Y-171834903D01*
X68130500Y-171279097D01*
X68150185Y-171212058D01*
X68202989Y-171166303D01*
X68272147Y-171156359D01*
X68335703Y-171185384D01*
G37*
%TD.AperFunction*%
%TA.AperFunction,NonConductor*%
G36*
X55404703Y-159254384D02*
G01*
X55411181Y-159260416D01*
X66893181Y-170742416D01*
X66926666Y-170803739D01*
X66929500Y-170830097D01*
X66929500Y-172048330D01*
X66929499Y-172048348D01*
X66929499Y-172214054D01*
X66929498Y-172214054D01*
X66929499Y-172214057D01*
X66965581Y-172348716D01*
X66970424Y-172366787D01*
X66982573Y-172387829D01*
X66982574Y-172387831D01*
X67049477Y-172503712D01*
X67049481Y-172503717D01*
X67168349Y-172622585D01*
X67168355Y-172622590D01*
X67862925Y-173317160D01*
X67896410Y-173378483D01*
X67896861Y-173380649D01*
X67927761Y-173535991D01*
X67927764Y-173536001D01*
X67988102Y-173681672D01*
X67988109Y-173681685D01*
X68075710Y-173812788D01*
X68075713Y-173812792D01*
X68187207Y-173924286D01*
X68187211Y-173924289D01*
X68318314Y-174011890D01*
X68318327Y-174011897D01*
X68463998Y-174072235D01*
X68464003Y-174072237D01*
X68528647Y-174085095D01*
X68619349Y-174103138D01*
X68681260Y-174135523D01*
X68682839Y-174137074D01*
X71733584Y-177187819D01*
X71767069Y-177249142D01*
X71762085Y-177318834D01*
X71720213Y-177374767D01*
X71654749Y-177399184D01*
X71645903Y-177399500D01*
X71195098Y-177399500D01*
X71128059Y-177379815D01*
X71107417Y-177363181D01*
X66060090Y-172315855D01*
X66060088Y-172315852D01*
X65941217Y-172196981D01*
X65941212Y-172196977D01*
X65861522Y-172150968D01*
X65835841Y-172131262D01*
X65760292Y-172055713D01*
X65760288Y-172055710D01*
X65629185Y-171968109D01*
X65629172Y-171968102D01*
X65483501Y-171907764D01*
X65483489Y-171907761D01*
X65328845Y-171877000D01*
X65328842Y-171877000D01*
X65171158Y-171877000D01*
X65171155Y-171877000D01*
X65016510Y-171907761D01*
X65016498Y-171907764D01*
X64870827Y-171968102D01*
X64870814Y-171968109D01*
X64739125Y-172056102D01*
X64672447Y-172076980D01*
X64670234Y-172077000D01*
X64227597Y-172077000D01*
X64160558Y-172057315D01*
X64139916Y-172040681D01*
X55235819Y-163136584D01*
X55202334Y-163075261D01*
X55199500Y-163048903D01*
X55199500Y-159348097D01*
X55219185Y-159281058D01*
X55271989Y-159235303D01*
X55341147Y-159225359D01*
X55404703Y-159254384D01*
G37*
%TD.AperFunction*%
M02*
