%TF.GenerationSoftware,KiCad,Pcbnew,9.0.7*%
%TF.CreationDate,2026-01-21T05:55:32-03:00*%
%TF.ProjectId,Infrared_n_motors,496e6672-6172-4656-945f-6e5f6d6f746f,0.0.1*%
%TF.SameCoordinates,Original*%
%TF.FileFunction,Other,ECO1*%
%FSLAX46Y46*%
G04 Gerber Fmt 4.6, Leading zero omitted, Abs format (unit mm)*
G04 Created by KiCad (PCBNEW 9.0.7) date 2026-01-21 05:55:32*
%MOMM*%
%LPD*%
G01*
G04 APERTURE LIST*
%ADD10C,0.100000*%
%ADD11C,0.150000*%
G04 APERTURE END LIST*
D10*
X28750000Y-98750000D02*
X328750000Y-98750000D01*
X328750000Y-448750000D01*
X28750000Y-448750000D01*
X28750000Y-98750000D01*
D11*
X79178571Y-85133390D02*
X79083333Y-85085771D01*
X79083333Y-85085771D02*
X79035714Y-85038152D01*
X79035714Y-85038152D02*
X78988095Y-84942914D01*
X78988095Y-84942914D02*
X78988095Y-84895295D01*
X78988095Y-84895295D02*
X79035714Y-84800057D01*
X79035714Y-84800057D02*
X79083333Y-84752438D01*
X79083333Y-84752438D02*
X79178571Y-84704819D01*
X79178571Y-84704819D02*
X79369047Y-84704819D01*
X79369047Y-84704819D02*
X79464285Y-84752438D01*
X79464285Y-84752438D02*
X79511904Y-84800057D01*
X79511904Y-84800057D02*
X79559523Y-84895295D01*
X79559523Y-84895295D02*
X79559523Y-84942914D01*
X79559523Y-84942914D02*
X79511904Y-85038152D01*
X79511904Y-85038152D02*
X79464285Y-85085771D01*
X79464285Y-85085771D02*
X79369047Y-85133390D01*
X79369047Y-85133390D02*
X79178571Y-85133390D01*
X79178571Y-85133390D02*
X79083333Y-85181009D01*
X79083333Y-85181009D02*
X79035714Y-85228628D01*
X79035714Y-85228628D02*
X78988095Y-85323866D01*
X78988095Y-85323866D02*
X78988095Y-85514342D01*
X78988095Y-85514342D02*
X79035714Y-85609580D01*
X79035714Y-85609580D02*
X79083333Y-85657200D01*
X79083333Y-85657200D02*
X79178571Y-85704819D01*
X79178571Y-85704819D02*
X79369047Y-85704819D01*
X79369047Y-85704819D02*
X79464285Y-85657200D01*
X79464285Y-85657200D02*
X79511904Y-85609580D01*
X79511904Y-85609580D02*
X79559523Y-85514342D01*
X79559523Y-85514342D02*
X79559523Y-85323866D01*
X79559523Y-85323866D02*
X79511904Y-85228628D01*
X79511904Y-85228628D02*
X79464285Y-85181009D01*
X79464285Y-85181009D02*
X79369047Y-85133390D01*
X80130952Y-85133390D02*
X80035714Y-85085771D01*
X80035714Y-85085771D02*
X79988095Y-85038152D01*
X79988095Y-85038152D02*
X79940476Y-84942914D01*
X79940476Y-84942914D02*
X79940476Y-84895295D01*
X79940476Y-84895295D02*
X79988095Y-84800057D01*
X79988095Y-84800057D02*
X80035714Y-84752438D01*
X80035714Y-84752438D02*
X80130952Y-84704819D01*
X80130952Y-84704819D02*
X80321428Y-84704819D01*
X80321428Y-84704819D02*
X80416666Y-84752438D01*
X80416666Y-84752438D02*
X80464285Y-84800057D01*
X80464285Y-84800057D02*
X80511904Y-84895295D01*
X80511904Y-84895295D02*
X80511904Y-84942914D01*
X80511904Y-84942914D02*
X80464285Y-85038152D01*
X80464285Y-85038152D02*
X80416666Y-85085771D01*
X80416666Y-85085771D02*
X80321428Y-85133390D01*
X80321428Y-85133390D02*
X80130952Y-85133390D01*
X80130952Y-85133390D02*
X80035714Y-85181009D01*
X80035714Y-85181009D02*
X79988095Y-85228628D01*
X79988095Y-85228628D02*
X79940476Y-85323866D01*
X79940476Y-85323866D02*
X79940476Y-85514342D01*
X79940476Y-85514342D02*
X79988095Y-85609580D01*
X79988095Y-85609580D02*
X80035714Y-85657200D01*
X80035714Y-85657200D02*
X80130952Y-85704819D01*
X80130952Y-85704819D02*
X80321428Y-85704819D01*
X80321428Y-85704819D02*
X80416666Y-85657200D01*
X80416666Y-85657200D02*
X80464285Y-85609580D01*
X80464285Y-85609580D02*
X80511904Y-85514342D01*
X80511904Y-85514342D02*
X80511904Y-85323866D01*
X80511904Y-85323866D02*
X80464285Y-85228628D01*
X80464285Y-85228628D02*
X80416666Y-85181009D01*
X80416666Y-85181009D02*
X80321428Y-85133390D01*
D10*
X123750000Y-102750000D02*
X123750000Y-86663580D01*
X35750000Y-86663580D02*
X35750000Y-102750000D01*
X123750000Y-87250000D02*
X35750000Y-87250000D01*
X123750000Y-87250000D02*
X122623496Y-87836421D01*
X123750000Y-87250000D02*
X122623496Y-86663579D01*
X35750000Y-87250000D02*
X36876504Y-86663579D01*
X35750000Y-87250000D02*
X36876504Y-87836421D01*
D11*
X395554819Y-275035713D02*
X395554819Y-274416666D01*
X395554819Y-274416666D02*
X395935771Y-274749999D01*
X395935771Y-274749999D02*
X395935771Y-274607142D01*
X395935771Y-274607142D02*
X395983390Y-274511904D01*
X395983390Y-274511904D02*
X396031009Y-274464285D01*
X396031009Y-274464285D02*
X396126247Y-274416666D01*
X396126247Y-274416666D02*
X396364342Y-274416666D01*
X396364342Y-274416666D02*
X396459580Y-274464285D01*
X396459580Y-274464285D02*
X396507200Y-274511904D01*
X396507200Y-274511904D02*
X396554819Y-274607142D01*
X396554819Y-274607142D02*
X396554819Y-274892856D01*
X396554819Y-274892856D02*
X396507200Y-274988094D01*
X396507200Y-274988094D02*
X396459580Y-275035713D01*
X395554819Y-273511904D02*
X395554819Y-273988094D01*
X395554819Y-273988094D02*
X396031009Y-274035713D01*
X396031009Y-274035713D02*
X395983390Y-273988094D01*
X395983390Y-273988094D02*
X395935771Y-273892856D01*
X395935771Y-273892856D02*
X395935771Y-273654761D01*
X395935771Y-273654761D02*
X395983390Y-273559523D01*
X395983390Y-273559523D02*
X396031009Y-273511904D01*
X396031009Y-273511904D02*
X396126247Y-273464285D01*
X396126247Y-273464285D02*
X396364342Y-273464285D01*
X396364342Y-273464285D02*
X396459580Y-273511904D01*
X396459580Y-273511904D02*
X396507200Y-273559523D01*
X396507200Y-273559523D02*
X396554819Y-273654761D01*
X396554819Y-273654761D02*
X396554819Y-273892856D01*
X396554819Y-273892856D02*
X396507200Y-273988094D01*
X396507200Y-273988094D02*
X396459580Y-274035713D01*
X395554819Y-272845237D02*
X395554819Y-272749999D01*
X395554819Y-272749999D02*
X395602438Y-272654761D01*
X395602438Y-272654761D02*
X395650057Y-272607142D01*
X395650057Y-272607142D02*
X395745295Y-272559523D01*
X395745295Y-272559523D02*
X395935771Y-272511904D01*
X395935771Y-272511904D02*
X396173866Y-272511904D01*
X396173866Y-272511904D02*
X396364342Y-272559523D01*
X396364342Y-272559523D02*
X396459580Y-272607142D01*
X396459580Y-272607142D02*
X396507200Y-272654761D01*
X396507200Y-272654761D02*
X396554819Y-272749999D01*
X396554819Y-272749999D02*
X396554819Y-272845237D01*
X396554819Y-272845237D02*
X396507200Y-272940475D01*
X396507200Y-272940475D02*
X396459580Y-272988094D01*
X396459580Y-272988094D02*
X396364342Y-273035713D01*
X396364342Y-273035713D02*
X396173866Y-273083332D01*
X396173866Y-273083332D02*
X395935771Y-273083332D01*
X395935771Y-273083332D02*
X395745295Y-273035713D01*
X395745295Y-273035713D02*
X395650057Y-272988094D01*
X395650057Y-272988094D02*
X395602438Y-272940475D01*
X395602438Y-272940475D02*
X395554819Y-272845237D01*
D10*
X329250000Y-98750000D02*
X397836420Y-98750000D01*
X397836420Y-448750000D02*
X329250000Y-448750000D01*
X397250000Y-98750000D02*
X397250000Y-448750000D01*
X397250000Y-98750000D02*
X397836421Y-99876504D01*
X397250000Y-98750000D02*
X396663579Y-99876504D01*
X397250000Y-448750000D02*
X396663579Y-447623496D01*
X397250000Y-448750000D02*
X397836421Y-447623496D01*
D11*
X177464286Y-54554819D02*
X178083333Y-54554819D01*
X178083333Y-54554819D02*
X177750000Y-54935771D01*
X177750000Y-54935771D02*
X177892857Y-54935771D01*
X177892857Y-54935771D02*
X177988095Y-54983390D01*
X177988095Y-54983390D02*
X178035714Y-55031009D01*
X178035714Y-55031009D02*
X178083333Y-55126247D01*
X178083333Y-55126247D02*
X178083333Y-55364342D01*
X178083333Y-55364342D02*
X178035714Y-55459580D01*
X178035714Y-55459580D02*
X177988095Y-55507200D01*
X177988095Y-55507200D02*
X177892857Y-55554819D01*
X177892857Y-55554819D02*
X177607143Y-55554819D01*
X177607143Y-55554819D02*
X177511905Y-55507200D01*
X177511905Y-55507200D02*
X177464286Y-55459580D01*
X178702381Y-54554819D02*
X178797619Y-54554819D01*
X178797619Y-54554819D02*
X178892857Y-54602438D01*
X178892857Y-54602438D02*
X178940476Y-54650057D01*
X178940476Y-54650057D02*
X178988095Y-54745295D01*
X178988095Y-54745295D02*
X179035714Y-54935771D01*
X179035714Y-54935771D02*
X179035714Y-55173866D01*
X179035714Y-55173866D02*
X178988095Y-55364342D01*
X178988095Y-55364342D02*
X178940476Y-55459580D01*
X178940476Y-55459580D02*
X178892857Y-55507200D01*
X178892857Y-55507200D02*
X178797619Y-55554819D01*
X178797619Y-55554819D02*
X178702381Y-55554819D01*
X178702381Y-55554819D02*
X178607143Y-55507200D01*
X178607143Y-55507200D02*
X178559524Y-55459580D01*
X178559524Y-55459580D02*
X178511905Y-55364342D01*
X178511905Y-55364342D02*
X178464286Y-55173866D01*
X178464286Y-55173866D02*
X178464286Y-54935771D01*
X178464286Y-54935771D02*
X178511905Y-54745295D01*
X178511905Y-54745295D02*
X178559524Y-54650057D01*
X178559524Y-54650057D02*
X178607143Y-54602438D01*
X178607143Y-54602438D02*
X178702381Y-54554819D01*
X179654762Y-54554819D02*
X179750000Y-54554819D01*
X179750000Y-54554819D02*
X179845238Y-54602438D01*
X179845238Y-54602438D02*
X179892857Y-54650057D01*
X179892857Y-54650057D02*
X179940476Y-54745295D01*
X179940476Y-54745295D02*
X179988095Y-54935771D01*
X179988095Y-54935771D02*
X179988095Y-55173866D01*
X179988095Y-55173866D02*
X179940476Y-55364342D01*
X179940476Y-55364342D02*
X179892857Y-55459580D01*
X179892857Y-55459580D02*
X179845238Y-55507200D01*
X179845238Y-55507200D02*
X179750000Y-55554819D01*
X179750000Y-55554819D02*
X179654762Y-55554819D01*
X179654762Y-55554819D02*
X179559524Y-55507200D01*
X179559524Y-55507200D02*
X179511905Y-55459580D01*
X179511905Y-55459580D02*
X179464286Y-55364342D01*
X179464286Y-55364342D02*
X179416667Y-55173866D01*
X179416667Y-55173866D02*
X179416667Y-54935771D01*
X179416667Y-54935771D02*
X179464286Y-54745295D01*
X179464286Y-54745295D02*
X179511905Y-54650057D01*
X179511905Y-54650057D02*
X179559524Y-54602438D01*
X179559524Y-54602438D02*
X179654762Y-54554819D01*
D10*
X28750000Y-98250000D02*
X28750000Y-55663580D01*
X328750000Y-55663580D02*
X328750000Y-98250000D01*
X28750000Y-56250000D02*
X328750000Y-56250000D01*
X28750000Y-56250000D02*
X29876504Y-55663579D01*
X28750000Y-56250000D02*
X29876504Y-56836421D01*
X328750000Y-56250000D02*
X327623496Y-56836421D01*
X328750000Y-56250000D02*
X327623496Y-55663579D01*
M02*
