<?xml version="1.0"?>
<!DOCTYPE svg PUBLIC "-//W3C//DTD SVG 1.1//EN" "http://www.w3.org/Graphics/SVG/1.1/DTD/svg11.dtd">
<svg width="316.20000000000005mm" height="366.20000000000005mm" viewBox="0 0 316.20000000000005 366.20000000000005" xmlns="http://www.w3.org/2000/svg" version="1.1">
<g id="Cut014" transform="translate(-1.900000,368.100000) scale(1,-1)">
<path id="Cut014_f0000"  d="M 4.999999999999998 340.0 L 4.999999999999996 340.0 L 5.0 5.0 L 5.0 5.0 L 4.999999999999998 340.0 Z " stroke="#191919" stroke-width="0.7 px" style="stroke-width:0.7;stroke-miterlimit:4;stroke-dasharray:none;stroke-linecap:square;fill:#adb5bd;fill-opacity:1.0;fill-rule: evenodd"/>
<path id="Cut014_f0001"  d="M 14.999999999999996 340.0 L 15.0 355.0 L 30.0 355.0 L 30.0 365.0 L 290.0 365.0 L 290.0 355.0 L 305.0 355.0 L 305.0 340.0 L 315.0 340.0 L 315.0 30.0 L 305.0 30.0 L 305.0 15.0 L 290.0 15.000000000000004 L 290.0 5.0 L 5.0 5.0 L 4.999999999999996 340.0 L 14.999999999999996 340.0 Z " stroke="#191919" stroke-width="0.7 px" style="stroke-width:0.7;stroke-miterlimit:4;stroke-dasharray:none;stroke-linecap:square;fill:#adb5bd;fill-opacity:1.0;fill-rule: evenodd"/>
<path id="Cut014_f0002"  d="M 4.999999999999998 340.0 L 4.999999999999996 340.0 L 14.999999999999996 340.0 L 15.0 340.0 L 4.999999999999999 340.0 Z " stroke="#191919" stroke-width="0.7 px" style="stroke-width:0.7;stroke-miterlimit:4;stroke-dasharray:none;stroke-linecap:square;fill:#adb5bd;fill-opacity:1.0;fill-rule: evenodd"/>
<path id="Cut014_f0003"  d="M 290.0 15.000000000000004 L 305.0 15.0 L 305.0 30.0 L 315.0 30.0 L 315.0 340.0 L 305.0 340.0 L 305.0 355.0 L 290.0 355.0 L 290.0 365.0 L 30.0 365.0 L 29.999999999999996 355.0 L 15.0 355.0 L 14.999999999999996 340.0 L 4.999999999999999 340.0 L 5.0 5.0 L 290.0 5.000000000000002 L 290.0 15.000000000000004 Z " stroke="#191919" stroke-width="0.7 px" style="stroke-width:0.7;stroke-miterlimit:4;stroke-dasharray:none;stroke-linecap:square;fill:#adb5bd;fill-opacity:1.0;fill-rule: evenodd"/>
<path id="Cut014_f0004"  d="M 5.0 5.0 L 5.0 5.0 L 290.0 5.000000000000002 L 290.0 5.000000000000004 L 5.0 5.0 Z " stroke="#191919" stroke-width="0.7 px" style="stroke-width:0.7;stroke-miterlimit:4;stroke-dasharray:none;stroke-linecap:square;fill:#adb5bd;fill-opacity:1.0;fill-rule: evenodd"/>
<path id="Cut014_f0005"  d="M 15.0 340.0 L 15.0 340.0 L 15.0 355.0 L 15.0 355.0 L 15.0 340.0 Z " stroke="#191919" stroke-width="0.7 px" style="stroke-width:0.7;stroke-miterlimit:4;stroke-dasharray:none;stroke-linecap:square;fill:#adb5bd;fill-opacity:1.0;fill-rule: evenodd"/>
<path id="Cut014_f0006"  d="M 30.0 355.0 L 15.0 355.0 L 15.0 355.0 L 30.0 355.0 L 30.0 355.0 Z " stroke="#191919" stroke-width="0.7 px" style="stroke-width:0.7;stroke-miterlimit:4;stroke-dasharray:none;stroke-linecap:square;fill:#adb5bd;fill-opacity:1.0;fill-rule: evenodd"/>
<path id="Cut014_f0007"  d="M 30.0 355.0 L 30.0 355.0 L 30.0 365.0 L 30.0 365.0 L 30.0 355.0 Z " stroke="#191919" stroke-width="0.7 px" style="stroke-width:0.7;stroke-miterlimit:4;stroke-dasharray:none;stroke-linecap:square;fill:#adb5bd;fill-opacity:1.0;fill-rule: evenodd"/>
<path id="Cut014_f0008"  d="M 290.0 365.0 L 30.0 365.0 L 30.0 365.0 L 290.0 365.0 L 290.0 365.0 Z " stroke="#191919" stroke-width="0.7 px" style="stroke-width:0.7;stroke-miterlimit:4;stroke-dasharray:none;stroke-linecap:square;fill:#adb5bd;fill-opacity:1.0;fill-rule: evenodd"/>
<path id="Cut014_f0009"  d="M 290.0 365.0 L 290.0 365.0 L 290.0 355.0 L 290.0 355.0 L 290.0 365.0 Z " stroke="#191919" stroke-width="0.7 px" style="stroke-width:0.7;stroke-miterlimit:4;stroke-dasharray:none;stroke-linecap:square;fill:#adb5bd;fill-opacity:1.0;fill-rule: evenodd"/>
<path id="Cut014_f0010"  d="M 290.0 355.0 L 290.0 355.0 L 305.0 355.0 L 305.0 355.0 L 290.0 355.0 Z " stroke="#191919" stroke-width="0.7 px" style="stroke-width:0.7;stroke-miterlimit:4;stroke-dasharray:none;stroke-linecap:square;fill:#adb5bd;fill-opacity:1.0;fill-rule: evenodd"/>
<path id="Cut014_f0011"  d="M 305.0 340.0 L 305.0 355.0 L 305.0 355.0 L 305.0 340.0 L 305.0 340.0 Z " stroke="#191919" stroke-width="0.7 px" style="stroke-width:0.7;stroke-miterlimit:4;stroke-dasharray:none;stroke-linecap:square;fill:#adb5bd;fill-opacity:1.0;fill-rule: evenodd"/>
<path id="Cut014_f0012"  d="M 305.0 340.0 L 305.0 340.0 L 315.0 340.0 L 315.0 340.0 L 305.0 340.0 Z " stroke="#191919" stroke-width="0.7 px" style="stroke-width:0.7;stroke-miterlimit:4;stroke-dasharray:none;stroke-linecap:square;fill:#adb5bd;fill-opacity:1.0;fill-rule: evenodd"/>
<path id="Cut014_f0013"  d="M 315.0 340.0 L 315.0 340.0 L 315.0 30.0 L 315.0 30.0 L 315.0 340.0 Z " stroke="#191919" stroke-width="0.7 px" style="stroke-width:0.7;stroke-miterlimit:4;stroke-dasharray:none;stroke-linecap:square;fill:#adb5bd;fill-opacity:1.0;fill-rule: evenodd"/>
<path id="Cut014_f0014"  d="M 315.0 30.0 L 315.0 30.0 L 305.0 30.0 L 305.0 30.0 L 315.0 30.0 Z " stroke="#191919" stroke-width="0.7 px" style="stroke-width:0.7;stroke-miterlimit:4;stroke-dasharray:none;stroke-linecap:square;fill:#adb5bd;fill-opacity:1.0;fill-rule: evenodd"/>
<path id="Cut014_f0015"  d="M 305.0 30.0 L 305.0 30.0 L 305.0 15.0 L 305.0 15.0 L 305.0 30.0 Z " stroke="#191919" stroke-width="0.7 px" style="stroke-width:0.7;stroke-miterlimit:4;stroke-dasharray:none;stroke-linecap:square;fill:#adb5bd;fill-opacity:1.0;fill-rule: evenodd"/>
<path id="Cut014_f0016"  d="M 290.0 15.0 L 305.0 15.0 L 305.0 15.0 L 290.0 15.000000000000004 L 290.0 15.0 Z " stroke="#191919" stroke-width="0.7 px" style="stroke-width:0.7;stroke-miterlimit:4;stroke-dasharray:none;stroke-linecap:square;fill:#adb5bd;fill-opacity:1.0;fill-rule: evenodd"/>
<path id="Cut014_f0017"  d="M 290.0 15.000000000000004 L 290.0 15.000000000000004 L 290.0 5.000000000000002 L 290.0 5.000000000000004 L 290.0 15.000000000000004 Z " stroke="#191919" stroke-width="0.7 px" style="stroke-width:0.7;stroke-miterlimit:4;stroke-dasharray:none;stroke-linecap:square;fill:#adb5bd;fill-opacity:1.0;fill-rule: evenodd"/>
<title>b'diffuser_panel_plain'</title>
</g>
</svg>