M48
; DRILL file {KiCad 9.0.6} date 2026-02-04T16:34:15-0300
; FORMAT={-:-/ absolute / metric / decimal}
; #@! TF.CreationDate,2026-02-04T16:34:15-03:00
; #@! TF.GenerationSoftware,Kicad,Pcbnew,9.0.6
; #@! TF.FileFunction,Plated,1,2,PTH
FMAT,2
METRIC
; #@! TA.AperFunction,Plated,PTH,ViaDrill
T1C0.300
; #@! TA.AperFunction,Plated,PTH,ComponentDrill
T2C1.000
; #@! TA.AperFunction,Plated,PTH,ComponentDrill
T3C1.040
%
G90
G05
T1
X92.4Y-116.3
X101.5Y-114.25
X101.502Y-107.748
X102.127Y-107.184
X102.3Y-114.25
X102.917Y-107.061
X103.1Y-114.25
X103.7Y-107.25
X103.9Y-114.25
X114.0Y-75.25
X115.0Y-104.5
X116.0Y-95.541
X118.0Y-74.0
X118.0Y-78.0
X118.566Y-78.566
X118.629Y-73.254
X119.25Y-77.527
X119.429Y-73.249
X119.6Y-109.5
X120.029Y-74.25
X120.05Y-77.527
X120.075Y-104.935
X120.5Y-109.5
X120.703Y-104.433
X121.326Y-104.935
X121.516Y-109.5
X122.126Y-104.935
X122.7Y-109.5
X123.3Y-69.0
X123.876Y-94.876
X124.5Y-97.5
X125.0Y-75.5
X125.75Y-75.0
X133.0Y-60.0
X133.562Y-93.952
X141.0Y-68.0
X141.4Y-72.2
X141.4Y-73.1
X143.2Y-81.3
X147.7Y-81.4
X147.725Y-75.675
X147.75Y-63.25
X154.1Y-77.8
X154.1Y-78.7
T2
X96.358Y-120.25
X96.358Y-122.79
X96.358Y-125.33
X96.358Y-127.87
X96.358Y-130.41
X96.358Y-132.95
X96.46Y-68.25
X96.46Y-70.79
X96.46Y-73.33
X96.46Y-75.87
X96.46Y-78.41
X96.46Y-80.95
X96.46Y-83.49
X96.46Y-86.03
X96.46Y-88.57
X96.46Y-91.11
X96.46Y-93.65
X96.46Y-96.19
X96.46Y-98.73
X96.46Y-101.27
X96.46Y-103.81
X98.897Y-120.25
X98.897Y-122.79
X98.897Y-125.33
X98.897Y-127.87
X98.897Y-130.41
X98.897Y-132.95
X99.0Y-68.25
X99.0Y-70.79
X99.0Y-73.33
X99.0Y-75.87
X99.0Y-78.41
X99.0Y-80.95
X99.0Y-83.49
X99.0Y-86.03
X99.0Y-88.57
X99.0Y-91.11
X99.0Y-93.65
X99.0Y-96.19
X99.0Y-98.73
X99.0Y-101.27
X99.0Y-103.81
X143.8Y-102.25
X143.81Y-136.2
X146.34Y-102.25
X146.35Y-136.2
X148.88Y-102.25
X148.89Y-136.2
X151.42Y-102.25
X151.43Y-136.2
X153.96Y-102.25
X153.97Y-136.2
X156.5Y-102.25
X156.51Y-136.2
X159.04Y-102.25
X159.05Y-136.2
X161.58Y-102.25
X161.59Y-136.2
X164.12Y-102.25
X164.13Y-136.2
X166.66Y-102.25
X166.67Y-136.2
X169.2Y-102.25
X169.21Y-136.2
X171.74Y-102.25
X171.75Y-136.2
X174.28Y-102.25
X174.29Y-136.2
X176.82Y-102.25
X176.83Y-136.2
X179.36Y-102.25
X179.37Y-136.2
X181.9Y-102.25
X181.91Y-136.2
X184.44Y-102.25
X184.45Y-136.2
X186.98Y-102.25
X186.99Y-136.2
X189.52Y-102.25
X189.53Y-136.2
T3
X143.82Y-106.5
X143.82Y-131.9
X146.36Y-106.5
X146.36Y-131.9
X148.9Y-106.5
X148.9Y-131.9
X151.44Y-106.5
X151.44Y-131.9
X153.98Y-106.5
X153.98Y-131.9
X156.52Y-106.5
X156.52Y-131.9
X159.06Y-106.5
X159.06Y-131.9
X161.6Y-106.5
X161.6Y-131.9
X164.14Y-106.5
X164.14Y-131.9
X166.68Y-106.5
X166.68Y-131.9
X169.22Y-106.5
X169.22Y-131.9
X171.76Y-106.5
X171.76Y-131.9
X174.3Y-106.5
X174.3Y-131.9
X176.84Y-106.5
X176.84Y-131.9
X179.38Y-106.5
X179.38Y-131.9
X181.92Y-106.5
X181.92Y-131.9
X184.46Y-106.5
X184.46Y-131.9
X187.0Y-106.5
X187.0Y-131.9
X189.54Y-106.5
X189.54Y-131.9
T2
G00X181.0Y-87.0
M15
G01X181.0Y-85.0
M16
G05
G00X185.0Y-81.3
M15
G01X183.0Y-81.3
M16
G05
G00X187.0Y-87.0
M15
G01X187.0Y-85.0
M16
G05
M30
