%TF.GenerationSoftware,KiCad,Pcbnew,9.0.6*%
%TF.CreationDate,2026-02-04T16:34:19-03:00*%
%TF.ProjectId,main_board,6d61696e-5f62-46f6-9172-642e6b696361,rev?*%
%TF.SameCoordinates,Original*%
%TF.FileFunction,Soldermask,Top*%
%TF.FilePolarity,Negative*%
%FSLAX46Y46*%
G04 Gerber Fmt 4.6, Leading zero omitted, Abs format (unit mm)*
G04 Created by KiCad (PCBNEW 9.0.6) date 2026-02-04 16:34:19*
%MOMM*%
%LPD*%
G01*
G04 APERTURE LIST*
G04 Aperture macros list*
%AMRoundRect*
0 Rectangle with rounded corners*
0 $1 Rounding radius*
0 $2 $3 $4 $5 $6 $7 $8 $9 X,Y pos of 4 corners*
0 Add a 4 corners polygon primitive as box body*
4,1,4,$2,$3,$4,$5,$6,$7,$8,$9,$2,$3,0*
0 Add four circle primitives for the rounded corners*
1,1,$1+$1,$2,$3*
1,1,$1+$1,$4,$5*
1,1,$1+$1,$6,$7*
1,1,$1+$1,$8,$9*
0 Add four rect primitives between the rounded corners*
20,1,$1+$1,$2,$3,$4,$5,0*
20,1,$1+$1,$4,$5,$6,$7,0*
20,1,$1+$1,$6,$7,$8,$9,0*
20,1,$1+$1,$8,$9,$2,$3,0*%
G04 Aperture macros list end*
%ADD10C,3.200000*%
%ADD11RoundRect,0.250000X-0.900000X1.500000X-0.900000X-1.500000X0.900000X-1.500000X0.900000X1.500000X0*%
%ADD12RoundRect,0.249999X0.450001X1.075001X-0.450001X1.075001X-0.450001X-1.075001X0.450001X-1.075001X0*%
%ADD13RoundRect,0.250000X-0.412500X-0.650000X0.412500X-0.650000X0.412500X0.650000X-0.412500X0.650000X0*%
%ADD14RoundRect,0.249999X1.075001X-0.450001X1.075001X0.450001X-1.075001X0.450001X-1.075001X-0.450001X0*%
%ADD15RoundRect,0.250000X0.625000X-0.375000X0.625000X0.375000X-0.625000X0.375000X-0.625000X-0.375000X0*%
%ADD16RoundRect,0.375000X-0.375000X0.625000X-0.375000X-0.625000X0.375000X-0.625000X0.375000X0.625000X0*%
%ADD17RoundRect,0.500000X-1.400000X0.500000X-1.400000X-0.500000X1.400000X-0.500000X1.400000X0.500000X0*%
%ADD18RoundRect,0.100000X-0.637500X-0.100000X0.637500X-0.100000X0.637500X0.100000X-0.637500X0.100000X0*%
%ADD19RoundRect,0.249999X-0.450001X-1.075001X0.450001X-1.075001X0.450001X1.075001X-0.450001X1.075001X0*%
%ADD20R,2.900000X5.400000*%
%ADD21RoundRect,0.250000X-0.550000X1.075000X-0.550000X-1.075000X0.550000X-1.075000X0.550000X1.075000X0*%
%ADD22RoundRect,0.250000X-0.550000X1.412500X-0.550000X-1.412500X0.550000X-1.412500X0.550000X1.412500X0*%
%ADD23RoundRect,0.250000X0.412500X0.650000X-0.412500X0.650000X-0.412500X-0.650000X0.412500X-0.650000X0*%
%ADD24R,1.700000X1.700000*%
%ADD25C,1.700000*%
%ADD26RoundRect,0.250000X-0.300000X2.050000X-0.300000X-2.050000X0.300000X-2.050000X0.300000X2.050000X0*%
%ADD27RoundRect,0.250002X-5.149998X4.449998X-5.149998X-4.449998X5.149998X-4.449998X5.149998X4.449998X0*%
%ADD28RoundRect,0.250001X-2.049999X-0.799999X2.049999X-0.799999X2.049999X0.799999X-2.049999X0.799999X0*%
%ADD29R,1.560000X1.560000*%
%ADD30C,1.560000*%
%ADD31RoundRect,0.250000X-0.650000X0.412500X-0.650000X-0.412500X0.650000X-0.412500X0.650000X0.412500X0*%
%ADD32RoundRect,0.249999X-1.075001X0.450001X-1.075001X-0.450001X1.075001X-0.450001X1.075001X0.450001X0*%
%ADD33R,3.500000X3.500000*%
%ADD34RoundRect,0.750000X0.750000X1.000000X-0.750000X1.000000X-0.750000X-1.000000X0.750000X-1.000000X0*%
%ADD35RoundRect,0.875000X0.875000X0.875000X-0.875000X0.875000X-0.875000X-0.875000X0.875000X-0.875000X0*%
%ADD36RoundRect,0.250000X0.600000X0.600000X-0.600000X0.600000X-0.600000X-0.600000X0.600000X-0.600000X0*%
G04 APERTURE END LIST*
D10*
%TO.C,H3*%
X186000000Y-58000000D03*
%TD*%
D11*
%TO.C,D3*%
X173700000Y-57850000D03*
X173700000Y-63250000D03*
%TD*%
D12*
%TO.C,R17*%
X116726380Y-82852000D03*
X111926380Y-82852000D03*
%TD*%
D13*
%TO.C,C6*%
X130437500Y-93952000D03*
X133562500Y-93952000D03*
%TD*%
D14*
%TO.C,R13*%
X131100000Y-102352000D03*
X131100000Y-97552000D03*
%TD*%
D15*
%TO.C,D1*%
X189000000Y-95900000D03*
X189000000Y-93100000D03*
%TD*%
D12*
%TO.C,R20*%
X126726380Y-86352000D03*
X121926380Y-86352000D03*
%TD*%
D10*
%TO.C,H4*%
X186000000Y-145500000D03*
%TD*%
D12*
%TO.C,R1*%
X186000000Y-93500000D03*
X181200000Y-93500000D03*
%TD*%
D16*
%TO.C,U3*%
X147800000Y-87750000D03*
X145500000Y-87750000D03*
D17*
X145500000Y-94050000D03*
D16*
X143200000Y-87750000D03*
%TD*%
D18*
%TO.C,U5*%
X116075000Y-66500000D03*
X116075000Y-67150000D03*
X116075000Y-67800000D03*
X116075000Y-68450000D03*
X116075000Y-69100000D03*
X116075000Y-69750000D03*
X116075000Y-70400000D03*
X116075000Y-71050000D03*
X116075000Y-71700000D03*
X116075000Y-72350000D03*
X116075000Y-73000000D03*
X116075000Y-73650000D03*
X116075000Y-74300000D03*
X116075000Y-74950000D03*
X121800000Y-74950000D03*
X121800000Y-74300000D03*
X121800000Y-73650000D03*
X121800000Y-73000000D03*
X121800000Y-72350000D03*
X121800000Y-71700000D03*
X121800000Y-71050000D03*
X121800000Y-70400000D03*
X121800000Y-69750000D03*
X121800000Y-69100000D03*
X121800000Y-68450000D03*
X121800000Y-67800000D03*
X121800000Y-67150000D03*
X121800000Y-66500000D03*
%TD*%
D12*
%TO.C,R6*%
X127800000Y-62800000D03*
X123000000Y-62800000D03*
%TD*%
D19*
%TO.C,R2*%
X150850000Y-88150000D03*
X155650000Y-88150000D03*
%TD*%
D12*
%TO.C,R12*%
X127700000Y-59150000D03*
X122900000Y-59150000D03*
%TD*%
D19*
%TO.C,R5*%
X125150000Y-72400000D03*
X129950000Y-72400000D03*
%TD*%
D20*
%TO.C,L2*%
X167100000Y-60750000D03*
X157200000Y-60750000D03*
%TD*%
D12*
%TO.C,R15*%
X116726380Y-89852000D03*
X111926380Y-89852000D03*
%TD*%
D19*
%TO.C,R4*%
X125150000Y-69050000D03*
X129950000Y-69050000D03*
%TD*%
D21*
%TO.C,C4*%
X153500000Y-92900000D03*
X153500000Y-96250000D03*
%TD*%
D12*
%TO.C,R8*%
X120700000Y-59150000D03*
X115900000Y-59150000D03*
%TD*%
D22*
%TO.C,C8*%
X137200000Y-61212500D03*
X137200000Y-66287500D03*
%TD*%
D23*
%TO.C,C5*%
X128262500Y-66100000D03*
X125137500Y-66100000D03*
%TD*%
D24*
%TO.C,J2*%
X143800000Y-102250000D03*
D25*
X146340000Y-102250000D03*
X148880000Y-102250000D03*
X151420000Y-102250000D03*
X153960000Y-102250000D03*
X156500000Y-102250000D03*
X159040000Y-102250000D03*
X161580000Y-102250000D03*
X164120000Y-102250000D03*
X166660000Y-102250000D03*
X169200000Y-102250000D03*
X171740000Y-102250000D03*
X174280000Y-102250000D03*
X176820000Y-102250000D03*
X179360000Y-102250000D03*
X181900000Y-102250000D03*
X184440000Y-102250000D03*
X186980000Y-102250000D03*
X189520000Y-102250000D03*
%TD*%
D19*
%TO.C,R11*%
X104000000Y-66500000D03*
X108800000Y-66500000D03*
%TD*%
D12*
%TO.C,R7*%
X120750000Y-62800000D03*
X115950000Y-62800000D03*
%TD*%
D18*
%TO.C,U6*%
X117486760Y-95541000D03*
X117486760Y-96191000D03*
X117486760Y-96841000D03*
X117486760Y-97491000D03*
X117486760Y-98141000D03*
X117486760Y-98791000D03*
X117486760Y-99441000D03*
X117486760Y-100091000D03*
X117486760Y-100741000D03*
X117486760Y-101391000D03*
X117486760Y-102041000D03*
X117486760Y-102691000D03*
X117486760Y-103341000D03*
X117486760Y-103991000D03*
X123211760Y-103991000D03*
X123211760Y-103341000D03*
X123211760Y-102691000D03*
X123211760Y-102041000D03*
X123211760Y-101391000D03*
X123211760Y-100741000D03*
X123211760Y-100091000D03*
X123211760Y-99441000D03*
X123211760Y-98791000D03*
X123211760Y-98141000D03*
X123211760Y-97491000D03*
X123211760Y-96841000D03*
X123211760Y-96191000D03*
X123211760Y-95541000D03*
%TD*%
D19*
%TO.C,R14*%
X109526380Y-95202000D03*
X114326380Y-95202000D03*
%TD*%
D10*
%TO.C,H1*%
X90000000Y-58000000D03*
%TD*%
D12*
%TO.C,R16*%
X116726380Y-86352000D03*
X111926380Y-86352000D03*
%TD*%
D26*
%TO.C,U2*%
X151125000Y-66525000D03*
X149425000Y-66525000D03*
X147725000Y-66525000D03*
D27*
X147725000Y-75675000D03*
D26*
X146025000Y-66525000D03*
X144325000Y-66525000D03*
%TD*%
D12*
%TO.C,R3*%
X155650000Y-84150000D03*
X150850000Y-84150000D03*
%TD*%
%TO.C,R19*%
X133626380Y-89752000D03*
X128826380Y-89752000D03*
%TD*%
D19*
%TO.C,R9*%
X108600000Y-62800000D03*
X113400000Y-62800000D03*
%TD*%
D24*
%TO.C,J1*%
X143810000Y-136200000D03*
D25*
X146350000Y-136200000D03*
X148890000Y-136200000D03*
X151430000Y-136200000D03*
X153970000Y-136200000D03*
X156510000Y-136200000D03*
X159050000Y-136200000D03*
X161590000Y-136200000D03*
X164130000Y-136200000D03*
X166670000Y-136200000D03*
X169210000Y-136200000D03*
X171750000Y-136200000D03*
X174290000Y-136200000D03*
X176830000Y-136200000D03*
X179370000Y-136200000D03*
X181910000Y-136200000D03*
X184450000Y-136200000D03*
X186990000Y-136200000D03*
X189530000Y-136200000D03*
%TD*%
D28*
%TO.C,C1*%
X156700000Y-74750000D03*
X165500000Y-74750000D03*
%TD*%
D29*
%TO.C,U4*%
X143820000Y-131900000D03*
D30*
X146360000Y-131900000D03*
X148900000Y-131900000D03*
X151440000Y-131900000D03*
X153980000Y-131900000D03*
X156520000Y-131900000D03*
X159060000Y-131900000D03*
X161600000Y-131900000D03*
X164140000Y-131900000D03*
X166680000Y-131900000D03*
X169220000Y-131900000D03*
X171760000Y-131900000D03*
X174300000Y-131900000D03*
X176840000Y-131900000D03*
X179380000Y-131900000D03*
X181920000Y-131900000D03*
X184460000Y-131900000D03*
X187000000Y-131900000D03*
X189540000Y-131900000D03*
X143820000Y-106500000D03*
X146360000Y-106500000D03*
X148900000Y-106500000D03*
X151440000Y-106500000D03*
X153980000Y-106500000D03*
X156520000Y-106500000D03*
X159060000Y-106500000D03*
X161600000Y-106500000D03*
X164140000Y-106500000D03*
X166680000Y-106500000D03*
X169220000Y-106500000D03*
X171760000Y-106500000D03*
X174300000Y-106500000D03*
X176840000Y-106500000D03*
X179380000Y-106500000D03*
X181920000Y-106500000D03*
X184460000Y-106500000D03*
X187000000Y-106500000D03*
X189540000Y-106500000D03*
%TD*%
D14*
%TO.C,R21*%
X134500000Y-102352000D03*
X134500000Y-97552000D03*
%TD*%
D31*
%TO.C,C3*%
X140250000Y-87337500D03*
X140250000Y-90462500D03*
%TD*%
D10*
%TO.C,H2*%
X90000000Y-145500000D03*
%TD*%
D32*
%TO.C,R22*%
X143900000Y-56600000D03*
X143900000Y-61400000D03*
%TD*%
D19*
%TO.C,R10*%
X108600000Y-59200000D03*
X113400000Y-59200000D03*
%TD*%
D33*
%TO.C,CON1*%
X181000000Y-86000000D03*
D34*
X187000000Y-86000000D03*
D35*
X184000000Y-81300000D03*
%TD*%
D12*
%TO.C,R18*%
X126726380Y-89752000D03*
X121926380Y-89752000D03*
%TD*%
D14*
%TO.C,R23*%
X151800000Y-61400000D03*
X151800000Y-56600000D03*
%TD*%
D31*
%TO.C,C7*%
X148100000Y-56500000D03*
X148100000Y-59625000D03*
%TD*%
D36*
%TO.C,J3*%
X98897500Y-120250000D03*
D25*
X96357500Y-120250000D03*
X98897500Y-122790000D03*
X96357500Y-122790000D03*
X98897500Y-125330000D03*
X96357500Y-125330000D03*
X98897500Y-127870000D03*
X96357500Y-127870000D03*
X98897500Y-130410000D03*
X96357500Y-130410000D03*
X98897500Y-132950000D03*
X96357500Y-132950000D03*
%TD*%
D36*
%TO.C,J14*%
X99000000Y-68250000D03*
D25*
X96460000Y-68250000D03*
X99000000Y-70790000D03*
X96460000Y-70790000D03*
X99000000Y-73330000D03*
X96460000Y-73330000D03*
X99000000Y-75870000D03*
X96460000Y-75870000D03*
X99000000Y-78410000D03*
X96460000Y-78410000D03*
X99000000Y-80950000D03*
X96460000Y-80950000D03*
X99000000Y-83490000D03*
X96460000Y-83490000D03*
X99000000Y-86030000D03*
X96460000Y-86030000D03*
X99000000Y-88570000D03*
X96460000Y-88570000D03*
X99000000Y-91110000D03*
X96460000Y-91110000D03*
X99000000Y-93650000D03*
X96460000Y-93650000D03*
X99000000Y-96190000D03*
X96460000Y-96190000D03*
X99000000Y-98730000D03*
X96460000Y-98730000D03*
X99000000Y-101270000D03*
X96460000Y-101270000D03*
X99000000Y-103810000D03*
X96460000Y-103810000D03*
%TD*%
M02*
